<?xml version="1.0" standalone="no"?>
<!DOCTYPE svg PUBLIC "-//W3C//DTD SVG 1.1//EN" "http://www.w3.org/Graphics/SVG/1.1/DTD/svg11.dtd" >
<svg>
<metadata>
Created by FontForge 20090622 at Wed Dec 27 11:20:38 2017
 By deploy user
Copyright (c) Mark Simonson, 2005. All rights reserved.
</metadata>
<defs>
<font id="ProximaNova-Regular" horiz-adv-x="572" >
  <font-face 
    font-family="Proxim Nova Regular"
    font-weight="400"
    font-stretch="normal"
    units-per-em="1000"
    panose-1="2 0 5 6 3 0 0 2 0 4"
    ascent="775"
    descent="-225"
    x-height="483"
    cap-height="667"
    bbox="-358 -327 1133 1079"
    underline-thickness="20"
    underline-position="-133"
    unicode-range="U+000D-U+FB04"
  />
<missing-glyph horiz-adv-x="507" 
d="M429 752v-842h-351v842h351zM109 -60h288v782h-288v-782z" />
    <glyph glyph-name="f_f_j" unicode="ffj" horiz-adv-x="791" 
d="M16 415v66h80v37q0 73 38 116q37 42 102 42q45 0 73 -17l-19 -56q-20 11 -43 11q-38 0 -57 -24q-19 -23 -19 -70v-37h98v-66h-98v-417h-75v417zM299 413v66h80v37q0 73 38 116q37 42 102 42q45 0 73 -17l-19 -57q-20 12 -43 12q-38 0 -57 -24q-19 -23 -19 -70v-37h98v-66
h-98v-417h-75v417zM643 571q-15 15 -15 36t15 36t35 15q21 0 36 -15t15 -36t-15 -36t-36 -15q-20 0 -35 15zM716 -52q0 -72 -37 -110q-38 -39 -105 -39q-33 0 -54 7l10 63q13 -5 36 -5q75 0 75 84v530h75v-530z" />
    <glyph glyph-name="f_j" unicode="fj" horiz-adv-x="508" 
d="M16 415v66h80v37q0 73 38 116q37 42 102 42q45 0 73 -17l-19 -57q-20 12 -43 12q-38 0 -57 -24q-19 -23 -19 -70v-37h98v-66h-98v-417h-75v417zM360 573q-15 15 -15 36t15 36t35 15q21 0 36 -15t15 -36t-15 -36t-36 -15q-20 0 -35 15zM433 -50q0 -72 -37 -110
q-38 -39 -105 -39q-33 0 -54 7l10 63q13 -5 36 -5q75 0 75 84v530h75v-530z" />
    <glyph glyph-name="f_f" unicode="ff" horiz-adv-x="566" 
d="M16 415v66h80v37q0 73 38 116q37 42 102 42q45 0 73 -17l-19 -56q-20 11 -43 11q-38 0 -57 -24q-19 -23 -19 -70v-37h98v-66h-98v-417h-75v417zM299 413v66h80v37q0 73 38 116q37 42 102 42q45 0 73 -17l-19 -56q-20 11 -43 11q-38 0 -57 -24q-19 -23 -19 -70v-37h98v-66
h-98v-417h-75v417z" />
    <glyph glyph-name="fi" unicode="fi" horiz-adv-x="508" 
d="M16 415v66h80v37q0 73 38 116q37 42 102 42q45 0 73 -17l-19 -57q-20 12 -43 12q-38 0 -57 -24q-19 -23 -19 -70v-37h98v-66h-98v-417h-75v417zM360 573q-15 15 -15 36t15 36t35 15q21 0 36 -15t15 -36t-15 -36t-36 -15q-20 0 -35 15zM433 480v-483h-75v483h75z" />
    <glyph glyph-name="fl" unicode="fl" horiz-adv-x="508" 
d="M16 415v66h80v37q0 73 38 116q37 42 102 42q45 0 73 -17l-19 -57q-20 12 -43 12q-38 0 -57 -24q-19 -23 -19 -70v-37h98v-66h-98v-417h-75v417zM433 665v-667h-75v667h75z" />
    <glyph glyph-name="f_f_i" unicode="ffi" horiz-adv-x="791" 
d="M16 415v66h80v37q0 73 38 116q37 42 102 42q45 0 73 -17l-19 -56q-20 11 -43 11q-38 0 -57 -24q-19 -23 -19 -70v-37h98v-66h-98v-417h-75v417zM299 413v66h80v37q0 73 38 116q37 42 102 42q45 0 73 -17l-19 -57q-20 12 -43 12q-38 0 -57 -24q-19 -23 -19 -70v-37h98v-66
h-98v-417h-75v417zM643 571q-15 15 -15 36t15 36t35 15q21 0 36 -15t15 -36t-15 -36t-36 -15q-20 0 -35 15zM716 478v-483h-75v483h75z" />
    <glyph glyph-name="f_f_l" unicode="ffl" horiz-adv-x="791" 
d="M16 415v66h80v37q0 73 38 116q37 42 102 42q45 0 73 -17l-19 -56q-20 11 -43 11q-38 0 -57 -24q-19 -23 -19 -70v-37h98v-66h-98v-417h-75v417zM299 413v66h80v37q0 73 38 116q37 42 102 42q45 0 73 -17l-19 -57q-20 12 -43 12q-38 0 -57 -24q-19 -23 -19 -70v-37h98v-66
h-98v-417h-75v417zM716 663v-667h-75v667h75z" />
    <glyph glyph-name="f_b" unicode="fb" horiz-adv-x="858" 
d="M16 415v66h80v37q0 73 38 116q37 42 102 42q45 0 73 -17l-19 -57q-20 12 -43 12q-38 0 -57 -24q-19 -23 -19 -70v-37h98v-66h-98v-417h-75v417zM435 662v-257q30 40 72 63q43 23 91 23q64 0 111 -31q48 -31 75 -89q27 -57 27 -133q0 -77 -27 -134t-75 -87t-111 -30
q-49 0 -93 23q-44 22 -72 60v-72h-75v667zM495 69q40 -22 84 -22q72 0 114 52t42 135q0 82 -42 135t-114 53q-44 0 -84 -22q-41 -23 -60 -55v-219q19 -32 60 -54v-3z" />
    <glyph glyph-name="f_h" unicode="fh" horiz-adv-x="835" 
d="M16 415v66h80v37q0 73 38 116q37 42 102 42q45 0 73 -17l-19 -57q-20 12 -43 12q-38 0 -57 -24q-19 -23 -19 -70v-37h98v-66h-98v-417h-75v417zM684 318q0 60 -28 85t-81 25q-42 0 -80 -22q-40 -23 -62 -54v-353h-75v667h75v-254q28 33 75 57q46 24 98 24q154 0 154 -154
v-341h-75v318z" />
    <glyph glyph-name="f_k" unicode="fk" horiz-adv-x="797" 
d="M16 415v66h80v37q0 73 38 116q37 42 102 42q45 0 73 -17l-19 -57q-20 12 -43 12q-38 0 -57 -24q-19 -23 -19 -70v-37h98v-66h-98v-417h-75v417zM433 136v-138h-75v667h75v-441l254 257h95l-214 -219l215 -264h-96l-174 217z" />
    <glyph glyph-name=".notdef" horiz-adv-x="507" 
d="M429 752v-842h-351v842h351zM109 -60h288v782h-288v-782z" />
    <glyph glyph-name=".null" horiz-adv-x="0" 
 />
    <glyph glyph-name=".null" horiz-adv-x="0" 
 />
    <glyph glyph-name="nonmarkingreturn" unicode="&#xd;" horiz-adv-x="0" 
 />
    <glyph glyph-name="space" unicode=" " horiz-adv-x="258" 
 />
    <glyph glyph-name="exclam" unicode="!" horiz-adv-x="230" 
d="M162 667l-16 -480h-62l-16 480h94zM75 83q16 16 39 16t39 -16t16 -39t-16 -39t-39 -16q-22 0 -39 17q-16 16 -16 39q0 22 17 39z" />
    <glyph glyph-name="quotedbl" unicode="&#x22;" horiz-adv-x="343" 
d="M65 532q-12 88 -12 98q0 20 13 33q14 14 33 14q20 0 33 -13q14 -14 14 -33q0 -10 -12 -98l-10 -74.5t-6 -45.5h-37q-2 16 -6 45.5l-10 74.5v-1zM210 531q-12 88 -12 98q0 19 14 33t33 14q20 0 33 -13t13 -33q0 -10 -12 -98l-10 -74.5t-6 -45.5h-37q-2 16 -6 45.5
l-10 74.5v-1z" />
    <glyph glyph-name="numbersign" unicode="#" horiz-adv-x="590" 
d="M189 181l-60 -181h-62l61 181h-106l17 53h107l66 199h-108l16 52h110l60 182h62l-60 -182h110l60 182h61l-61 -182h107l-15 -52h-109l-67 -199h111l-16 -53h-113l-60 -181h-61l61 181h-111zM207 234h110l66 199h-110z" />
    <glyph glyph-name="dollar" unicode="$" horiz-adv-x="593" 
d="M491 52q-53 -56 -160 -63v-90h-61v89q-74 4 -132 33q-58 28 -97 73l50 63q31 -35 78 -61q45 -25 102 -31v243q-65 16 -108 36q-43 19 -72 56t-29 93q0 51 27 92t74 65q48 25 107 29v91h61v-93q122 -11 198 -91l-50 -61q-55 62 -147 76v-217q64 -18 108 -39t74 -60
t30 -100q0 -77 -52 -132zM179 433q33 -22 90 -38v204q-53 -3 -88 -32q-34 -28 -34 -72q0 -39 32 -60v-2zM428 98q30 33 30 74q0 47 -33 71q-35 25 -94 44v-226q66 4 96 38z" />
    <glyph glyph-name="percent" unicode="%" horiz-adv-x="731" 
d="M49 594q21 37 57 60q35 22 83 22q47 0 84 -22t58 -60t21 -84q0 -47 -21 -84t-58 -58q-38 -21 -84 -21q-47 0 -83 21t-56 59t-20 84t21 84zM606 665l-427 -667h-54l426 667h55zM261 590q-29 33 -73 33t-72 -33q-28 -32 -28 -82q0 -49 28 -81q28 -33 72 -33q43 0 72 33
q29 34 29 81q0 51 -28 83v-1zM394 231q21 37 57 60q35 22 83 22t83 -22q36 -23 57 -60q21 -38 21 -84q0 -47 -21 -84t-57 -58t-83 -21t-83 21t-56 59t-20 84t21 84zM607 228q-29 33 -73 33q-45 0 -73 -33q-28 -32 -28 -82q0 -47 29 -81q28 -33 72 -33q43 0 72 33
q29 34 29 81q0 51 -28 83v-1z" />
    <glyph glyph-name="ampersand" unicode="&#x26;" horiz-adv-x="641" 
d="M508 -1q-30 27 -73 70q-83 -82 -192 -82q-92 0 -150 48t-58 137q0 71 39 116q40 46 109 83q-52 85 -52 149q0 43 23 80t61 56q40 20 85 20q68 0 109 -34q42 -35 42 -96q0 -46 -23 -80t-57 -56q-35 -23 -90 -51q18 -25 37.5 -49l39.5 -47q40 -48 80 -89q13 19 23.5 38.5
t19.5 39.5t16 38.5t12 35.5l65 -28q-43 -105 -90 -172q46 -48 129 -126zM249 402q66 33 99 63t33 75q0 37 -22 56q-23 20 -57 20q-39 0 -66 -27t-27 -69q0 -45 40 -115v-3zM390 110q-67 70 -92 101l-49 59.5t-35 46.5q-46 -28 -72 -62t-26 -81q0 -60 39 -94q38 -34 95 -34
q74 0 140 66v-2z" />
    <glyph glyph-name="quotesingle" unicode="'" horiz-adv-x="199" 
d="M65 532q-12 88 -12 98q0 20 13 33q14 14 33 14q20 0 33 -13q14 -14 14 -33q0 -10 -12 -98l-10 -74.5t-6 -45.5h-37q-2 16 -6 45.5l-10 74.5v-1z" />
    <glyph glyph-name="parenleft" unicode="(" horiz-adv-x="248" 
d="M79 10q-36 114 -36 234t36 234q36 113 104 207l45 -34q-53 -105 -78 -198q-25 -91 -25 -211q0 -115 26 -210q25 -92 78 -196l-45 -35q-68 94 -104 207z" />
    <glyph glyph-name="parenright" unicode=")" horiz-adv-x="248" 
d="M96 452q-26 94 -78 197l45 34q67 -93 105 -207q37 -112 37 -234q0 -123 -37 -235q-38 -115 -105 -206l-45 35q52 103 78 197q26 95 26 210q0 116 -26 211v-2z" />
    <glyph glyph-name="asterisk" unicode="*" horiz-adv-x="340" 
d="M56 441l-22 40l102 52l-102 52l22 39l96 -62l-5 115h46l-6 -115l96 62l23 -39l-102 -52l102 -52l-23 -40l-96 63l6 -115h-46l5 115z" />
    <glyph glyph-name="plus" unicode="+" horiz-adv-x="499" 
d="M221 98v213h-192v52h192v207h57v-207h192v-52h-192v-213h-57z" />
    <glyph glyph-name="comma" unicode="," horiz-adv-x="230" 
d="M58 -100q27 17 44 43q18 27 21 51q-6 -2 -15 -2q-21 0 -34 15q-13 14 -13 37q0 22 15 39q15 16 38 16q26 0 44 -21t18 -55q0 -43 -23 -84q-22 -40 -59 -66l-37 31z" />
    <glyph glyph-name="hyphen" unicode="-" horiz-adv-x="300" 
d="M270 275v-66h-240v66h240z" />
    <glyph glyph-name="period" unicode="." horiz-adv-x="230" 
d="M75 83q16 16 39 16t39 -16t16 -39t-16 -39t-39 -16q-22 0 -39 17q-16 16 -16 39q0 22 17 39z" />
    <glyph glyph-name="slash" unicode="/" horiz-adv-x="296" 
d="M296 687l-237 -707h-59l237 707h59z" />
    <glyph glyph-name="zero" unicode="0" horiz-adv-x="612" 
d="M77 498q27 79 84 128q58 50 144 50q85 0 143 -50q57 -49 84 -128q27 -78 27 -165t-27 -165t-84 -129t-143 -51t-143 51t-84 129t-27 165t27 165h-1zM434 524q-41 78 -129 78q-89 0 -129 -78q-41 -79 -41 -191q0 -113 41 -192q40 -78 129 -78q88 0 129 78q41 79 41 192
q0 112 -41 191z" />
    <glyph glyph-name="one" unicode="1" horiz-adv-x="339" 
d="M71 444l-50 51l167 172h73v-667h-83v557z" />
    <glyph glyph-name="two" unicode="2" horiz-adv-x="588" 
d="M55 68l122 99l91 77q75 66 116 125t41 114q0 59 -41 91q-40 31 -98 31q-60 0 -105 -22q-46 -22 -76 -61l-51 53q38 50 99 77t132 27q59 0 109 -22q52 -23 83 -67q32 -46 32 -108q0 -65 -40 -129q-41 -65 -108 -129q-34 -32 -78 -69.5l-98 -80.5h327v-74h-458v66z" />
    <glyph glyph-name="three" unicode="3" horiz-adv-x="557" 
d="M72 147q30 -40 79 -64t108 -24q73 0 115 33t42 92q0 60 -45 89q-46 29 -121 29h-46.5t-22.5 -1v76q5 -1 22.5 -1h46.5q67 0 111 27t44 83q0 53 -42 83t-106 30q-52 0 -95 -20t-80 -60l-46 52q39 47 97 75q57 28 132 28q99 0 162 -48t63 -130q0 -66 -44 -105
q-43 -38 -99 -49q35 -3 70 -22q37 -20 60 -55q24 -36 24 -86q0 -56 -28 -99q-29 -45 -82 -68q-54 -24 -126 -24q-80 0 -141 31q-63 32 -95 79l49 52z" />
    <glyph glyph-name="four" unicode="4" horiz-adv-x="558" 
d="M32 169v69l286 429h114v-425h94v-73h-94v-169h-83v169h-317zM349 242v348l-234 -348h234z" />
    <glyph glyph-name="five" unicode="5" horiz-adv-x="590" 
d="M117 151q69 -88 184 -88q67 0 111 41q43 40 43 102q0 65 -42 104t-110 39q-90 0 -154 -63l-61 21v360h408v-74h-325v-232q25 25 66 42q42 17 89 17q58 0 105 -25q49 -26 77 -73q29 -49 29 -114q0 -67 -31 -116q-32 -51 -85 -77q-54 -27 -121 -27q-81 0 -138 27
q-56 27 -96 80l51 55v1z" />
    <glyph glyph-name="six" unicode="6" horiz-adv-x="591" 
d="M76 503q30 79 91 125q62 47 151 47q115 0 186 -80l-42 -62q-29 34 -61 51q-33 18 -82 18q-63 0 -104 -37q-42 -38 -63 -97q-21 -60 -21 -129v-14.5t1 -11.5q25 40 78 72t111 32q61 0 111 -24q49 -24 78 -72q29 -49 29 -117q0 -59 -28 -108t-81 -79t-123 -30
q-131 0 -194 98q-63 97 -63 246q0 95 30 173zM409 304q-43 37 -111 37q-49 0 -94 -27q-44 -27 -73 -72q7 -74 48 -129q40 -55 120 -55q49 0 84 21q34 21 52 54t18 67q0 71 -43 108z" />
    <glyph glyph-name="seven" unicode="7" horiz-adv-x="515" 
d="M31 593v74h455v-57l-273 -610h-92l269 593h-359z" />
    <glyph glyph-name="eight" unicode="8" horiz-adv-x="581" 
d="M95 277q45 46 113 66q-63 18 -106 59q-42 40 -42 102q0 57 33 96t85 58q51 19 111 19t111 -19q54 -20 86 -58q33 -39 33 -96q0 -62 -42 -102q-41 -40 -107 -58q68 -20 113 -66q45 -47 45 -109q0 -55 -32 -96q-31 -40 -86 -63q-53 -22 -120 -22q-68 0 -121 22
q-55 23 -86 63t-31 96q0 62 45 109zM392 571q-42 30 -103 30q-64 0 -104 -30q-41 -30 -41 -80q0 -52 47 -79q46 -27 98 -36q52 9 98 36q47 27 47 80q0 50 -42 80v-1zM415 244q-28 28 -64 43t-63 18q-27 -3 -63 -18t-64 -43t-28 -69q0 -53 45 -84q46 -32 110 -32t110 32
q45 31 45 84q0 41 -28 69z" />
    <glyph glyph-name="nine" unicode="9" horiz-adv-x="591" 
d="M127 130q28 -32 62 -51q33 -18 81 -18q64 0 107 38t62 97q20 62 20 127v15.5t-1 11.5q-26 -41 -78 -72q-53 -32 -111 -32q-62 0 -111 24q-50 24 -78 72q-29 49 -29 117q0 58 29 108t81 80t123 30q132 0 195 -97q63 -98 63 -247q0 -94 -30 -172q-30 -79 -91 -125
q-62 -47 -151 -47q-115 0 -186 80l42 62zM407 549q-41 56 -120 56q-49 0 -83 -21t-52 -54t-18 -66q0 -71 43 -108t111 -37q50 0 95 27q46 27 71 72q-6 73 -47 129v2z" />
    <glyph glyph-name="colon" unicode=":" horiz-adv-x="230" 
d="M75 473q16 16 39 16t39 -16t16 -39t-16 -39t-39 -16q-22 0 -39 17q-16 16 -16 39q0 22 17 39zM74 82q16 16 39 16t39 -16t16 -39t-16 -39t-39 -16q-22 0 -39 17q-16 16 -16 39q0 22 17 39z" />
    <glyph glyph-name="semicolon" unicode=";" horiz-adv-x="230" 
d="M75 395q-16 16 -16 39q0 22 17 39q16 16 39 16t39 -16t16 -39t-16 -39t-39 -16q-22 0 -39 17zM56 -102q27 17 44 43q18 27 21 51q-6 -2 -15 -2q-21 0 -34 15q-13 14 -13 37q0 22 15 39q15 16 38 16q26 0 44 -21t18 -55q0 -43 -23 -84q-22 -40 -59 -66l-37 31z" />
    <glyph glyph-name="less" unicode="&#x3c;" horiz-adv-x="499" 
d="M470 580v-63l-377 -183l377 -182v-62l-441 218v53z" />
    <glyph glyph-name="equal" unicode="=" horiz-adv-x="499" 
d="M470 457v-53h-441v53h441zM470 263v-52h-441v52h441z" />
    <glyph glyph-name="greater" unicode="&#x3e;" horiz-adv-x="499" 
d="M405 334l-376 183v63l441 -219v-53l-441 -218v62z" />
    <glyph glyph-name="question" unicode="?" horiz-adv-x="462" 
d="M171 324q14 24 32 41q9 8 21.5 18t28.5 21q42 28 64 51q21 22 21 57q0 40 -30 67t-87 27q-53 0 -90 -21q-39 -22 -68 -61l-50 54q37 48 93 75q55 27 125 27q59 0 104 -21t69 -57t24 -79q0 -39 -15 -69q-14 -28 -38 -49q-11 -10 -25.5 -21l-32.5 -24q-44 -30 -63 -51
q-19 -20 -19 -49q0 -11 8 -25q7 -13 20 -24l-61 -26q-39 33 -39 81q0 30 14 55zM178 86q16 16 39 16t39 -16t16 -39t-16 -39t-39 -16q-22 0 -39 17q-16 16 -16 39q0 22 17 39z" />
    <glyph glyph-name="at" unicode="@" horiz-adv-x="783" 
d="M86 432q55 91 147 145q91 54 195 54q92 0 164 -42t111 -114t39 -159q0 -76 -25 -129q-26 -55 -64 -81q-39 -27 -83 -27q-40 0 -64 24q-25 25 -26 58l-1 6q-28 -38 -69 -62q-42 -24 -88 -24q-69 0 -111 45t-42 118q0 67 33 126q33 58 87 93q53 34 113 34q48 0 80 -22
q33 -23 48 -57l13 62h68l-57 -271q-1 -6 -1.5 -11t-0.5 -10q0 -25 14 -39q13 -13 33 -13q22 0 48 18q24 17 43 59q18 40 18 105q0 81 -36 146q-37 66 -100 101q-65 36 -148 36q-94 0 -177 -50t-132 -132t-49 -174q0 -80 37 -144q38 -65 103 -102t148 -37q97 0 186 56l18 -26
q-98 -63 -207 -63q-89 0 -161 42t-114 114t-42 159q0 104 56 196zM521 362q-11 29 -37 51q-28 23 -67 23q-49 0 -89 -27q-39 -26 -64 -71q-24 -44 -24 -92q0 -50 27 -81t74 -31q46 0 84 26q37 25 63 63l29 138z" />
    <glyph glyph-name="A" unicode="A" horiz-adv-x="658" 
d="M160 148l-59 -148h-92l268 667h103l269 -667h-92l-59 148h-338zM473 222l-144 371l-145 -371h289z" />
    <glyph glyph-name="B" unicode="B" horiz-adv-x="629" 
d="M373 667q85 0 137 -47q51 -47 51 -123q0 -61 -34 -102t-84 -52q34 -4 65 -29q30 -24 48 -60t18 -75q0 -81 -51 -130q-50 -49 -141 -49h-304v667h295zM358 379q55 0 85 30t30 77t-30 77t-84 30h-200v-215h200zM362 75q59 0 91 31q33 31 33 84q0 49 -33 82t-91 33h-204
v-230h204z" />
    <glyph glyph-name="C" unicode="C" horiz-adv-x="676" 
d="M219 25q-78 43 -123 123q-45 79 -45 180q0 100 45 180q45 79 123 123q79 44 172 44q86 0 149 -36q64 -37 107 -97l-70 -39q-28 43 -78 70t-108 27q-71 0 -129 -34t-91 -96t-33 -140t33 -139t92 -96t129 -35q58 0 108 27q49 27 78 71l71 -39q-98 -132 -258 -132
q-93 0 -172 44v-6z" />
    <glyph glyph-name="D" unicode="D" horiz-adv-x="700" 
d="M306 666q102 0 179 -43q78 -44 120 -120q42 -77 42 -171q0 -95 -42 -170q-42 -76 -120 -119q-77 -43 -179 -43h-228v667zM305 73q79 0 138 35t89 93t30 131t-30 132t-88 93q-59 35 -138 35h-145v-519h145h-1z" />
    <glyph glyph-name="E" unicode="E" horiz-adv-x="569" 
d="M515 667v-74h-354v-215h347v-74h-347v-230h354v-74h-437v667h437z" />
    <glyph glyph-name="F" unicode="F" horiz-adv-x="550" 
d="M515 667v-74h-354v-215h347v-74h-347v-304h-83v667h437z" />
    <glyph glyph-name="G" unicode="G" horiz-adv-x="713" 
d="M95 509q45 79 123 122q79 44 173 44q157 0 258 -125l-66 -41q-31 41 -83 67q-50 25 -109 25q-73 0 -131 -34q-59 -35 -92 -96q-33 -62 -33 -140q0 -79 33 -140t92 -96t131 -35q55 0 103 21t77 50v136h-229v74h312v-241q-48 -54 -115 -84q-68 -30 -147 -30q-94 0 -173 44
q-78 43 -123 123q-45 79 -45 180t45 179z" />
    <glyph glyph-name="H" unicode="H" horiz-adv-x="712" 
d="M161 306v-306h-83v667h83v-287h390v287h83v-667h-83v306h-390z" />
    <glyph glyph-name="I" unicode="I" horiz-adv-x="239" 
d="M161 667v-667h-83v667h83z" />
    <glyph glyph-name="J" unicode="J" horiz-adv-x="475" 
d="M55 126q55 -66 126 -66q62 0 98 39t36 102v465h83v-466q0 -104 -59 -158t-153 -54q-54 0 -97 18t-78 59l43 63z" />
    <glyph glyph-name="K" unicode="K" horiz-adv-x="601" 
d="M161 224v-224h-83v667h83v-345l295 345h104l-278 -317l302 -350h-103l-253 300z" />
    <glyph glyph-name="L" unicode="L" horiz-adv-x="510" 
d="M161 667v-593h310v-74h-393v667h83z" />
    <glyph glyph-name="M" unicode="M" horiz-adv-x="809" 
d="M421 0h-34l-226 555v-555h-83v667h119l207 -508l208 508h119v-667h-83v555z" />
    <glyph glyph-name="N" unicode="N" horiz-adv-x="708" 
d="M161 0h-83v667h85l384 -527v527h83v-667h-80l-389 538v-538z" />
    <glyph glyph-name="O" unicode="O" horiz-adv-x="765" 
d="M91 509q42 78 117 123t173 45q97 0 172 -45t117 -123t42 -176t-42 -176t-117 -123t-172 -45t-172 45t-117 123t-42 176t42 176h-1zM594 471q-30 61 -86 96t-129 35t-129 -35q-55 -34 -85 -96t-30 -139t30 -138t86 -96t129 -35t129 35t86 96t30 138q0 78 -30 140z" />
    <glyph glyph-name="P" unicode="P" horiz-adv-x="587" 
d="M347 669q65 0 113 -27t72 -73q24 -47 24 -102q0 -56 -25 -102t-73 -73t-112 -27h-185v-265h-83v667zM433 557q-38 36 -96 36h-175v-254h175q58 0 96 36q37 36 37 92t-37 92v-2z" />
    <glyph glyph-name="Q" unicode="Q" horiz-adv-x="765" 
d="M687 198q-25 -65 -67 -110l63 -68l-58 -50l-64 69q-80 -50 -180 -50q-97 0 -172 45t-117 123t-42 176t42 176t117 123t173 45q97 0 172 -45t117 -123t42 -176q0 -73 -24 -136zM411 196l58 49l94 -101q28 36 45 84q16 47 16 103q0 78 -30 140q-30 61 -86 96t-129 35
t-129 -35q-55 -34 -85 -96t-30 -139t30 -138t86 -96t129 -35q71 0 126 34z" />
    <glyph glyph-name="R" unicode="R" horiz-adv-x="608" 
d="M159 264v-265h-83v667h268q61 0 109 -24t75 -70q27 -47 27 -106q0 -58 -24 -100t-63 -66q-38 -23 -86 -28l180 -272h-98l-170 265zM430 555q-38 36 -96 36h-175v-255h175q58 0 96 36q37 36 37 92t-37 92v-1z" />
    <glyph glyph-name="S" unicode="S" horiz-adv-x="586" 
d="M86 153q39 -42 91 -68q54 -27 119 -27q81 0 119 35t38 81q0 38 -22 61q-22 24 -55 37q-34 14 -91 30q-37 10 -66 19t-52 18q-44 18 -76 54q-31 35 -31 98q0 54 30 96t82 66t117 24q148 0 237 -93l-50 -61q-36 40 -86 60q-51 20 -107 20q-60 0 -99 -30t-39 -76
q0 -31 21 -52t53 -33q33 -12 88 -27q73 -20 120 -39q47 -20 80 -59t33 -104q0 -53 -25 -97q-26 -45 -81 -72q-56 -27 -141 -27q-81 0 -147 29q-65 28 -108 78l49 63z" />
    <glyph glyph-name="T" unicode="T" horiz-adv-x="570" 
d="M32 593v74h506v-74h-212v-593h-83v593h-211z" />
    <glyph glyph-name="U" unicode="U" horiz-adv-x="700" 
d="M157 667v-406q0 -94 49 -146q50 -53 141 -53t141 53q49 52 49 146v406h83v-407q0 -127 -69 -199t-202 -72t-202 72t-69 198v408h79z" />
    <glyph glyph-name="V" unicode="V" horiz-adv-x="658" 
d="M104 667l225 -576l225 576h95l-269 -667h-103l-268 667h95z" />
    <glyph glyph-name="W" unicode="W" horiz-adv-x="883" 
d="M294 0h-90l-190 667h92l148 -556l153 556h69l153 -556l147 556h92l-190 -667h-90l-147 538z" />
    <glyph glyph-name="X" unicode="X" horiz-adv-x="652" 
d="M113 0h-101l260 342l-245 325h101l198 -267l197 267h101l-244 -324l259 -343h-100l-213 284z" />
    <glyph glyph-name="Y" unicode="Y" horiz-adv-x="626" 
d="M9 667h97l207 -310l207 310h97l-262 -385v-282h-83v282z" />
    <glyph glyph-name="Z" unicode="Z" horiz-adv-x="585" 
d="M423 593h-375v74h481v-69l-375 -524h382v-74h-488v69z" />
    <glyph glyph-name="bracketleft" unicode="[" horiz-adv-x="243" 
d="M226 678v-55h-128v-758h128v-55h-186v868h186z" />
    <glyph glyph-name="backslash" unicode="\" horiz-adv-x="296" 
d="M296 -20h-59l-237 707h59z" />
    <glyph glyph-name="bracketright" unicode="]" horiz-adv-x="243" 
d="M145 -135v758h-128v55h186v-868h-186v55h128z" />
    <glyph glyph-name="asciicircum" unicode="^" horiz-adv-x="432" 
d="M81 333h-62l169 334h57l168 -334h-62l-135 279z" />
    <glyph glyph-name="underscore" unicode="_" horiz-adv-x="564" 
d="M567 -40v-55h-570v55h570z" />
    <glyph glyph-name="grave" unicode="`" horiz-adv-x="226" 
d="M78 700l148 -144h-57l-169 144h78z" />
    <glyph glyph-name="a" unicode="a" horiz-adv-x="527" 
d="M376 57q-61 -67 -160 -67q-43 0 -82 18t-63 54t-24 86q0 51 24 87t63 54t82 18q103 0 160 -66v87q0 48 -34 75q-35 27 -88 27q-45 0 -80 -16q-37 -17 -68 -51l-35 52q39 40 87 60q49 20 107 20q83 0 135 -40t52 -123v-332h-75v55zM374 198q-22 29 -57 44q-36 15 -76 15
q-52 0 -85 -30t-33 -76t33 -76t86 -30q41 0 77 15q35 15 57 44v91z" />
    <glyph glyph-name="b" unicode="b" horiz-adv-x="575" 
d="M152 664v-257q30 40 72 63q43 23 91 23q64 0 111 -31q48 -31 75 -89q27 -57 27 -133q0 -77 -27 -134t-75 -87t-111 -30q-49 0 -93 23q-44 22 -72 60v-72h-75v667zM212 71q40 -22 84 -22q72 0 114 52t42 135q0 82 -42 135t-114 53q-44 0 -84 -22q-41 -23 -60 -55v-219
q19 -32 60 -54v-3z" />
    <glyph glyph-name="c" unicode="c" horiz-adv-x="495" 
d="M76 374q30 58 84 91t125 33q63 0 104 -22t73 -63l-50 -46q-47 63 -123 63t-121 -52q-45 -53 -45 -135q0 -83 45 -135t122 -52q76 0 123 63l50 -46q-32 -41 -73 -63t-104 -22q-71 0 -125 33t-84 91t-30 130q0 70 30 129z" />
    <glyph glyph-name="d" unicode="d" horiz-adv-x="575" 
d="M426 72q-29 -38 -72 -60q-44 -23 -93 -23q-63 0 -111 30t-75 87t-27 134t27 134q28 58 76 89q50 32 112 32q49 0 90 -22q42 -23 72 -63v257h75v-667h-75v72h1zM426 350q-22 34 -61 56q-41 23 -84 23q-71 0 -113 -52q-42 -53 -42 -135q0 -83 42 -135t113 -52q44 0 84 22
t61 54v219z" />
    <glyph glyph-name="e" unicode="e" horiz-adv-x="563" 
d="M77 368q32 59 85 93t122 34q71 0 123 -34q52 -35 81 -93q28 -57 28 -132v-19h-391q5 -71 51 -119t122 -48q43 0 81 16q40 17 68 45l36 -49q-74 -74 -192 -74q-70 0 -126 32q-56 31 -87 90q-31 58 -31 132q0 69 31 127zM200 408q-36 -25 -53 -61q-19 -39 -20 -76h317
q-2 40 -19 76q-18 37 -54 61t-88 24q-50 0 -84 -24h1z" />
    <glyph glyph-name="f" unicode="f" horiz-adv-x="283" 
d="M16 415v66h80v37q0 73 38 116q37 42 102 42q45 0 73 -17l-19 -56q-20 11 -43 11q-38 0 -57 -24q-19 -23 -19 -70v-37h98v-66h-98v-417h-75v417z" />
    <glyph glyph-name="g" unicode="g" horiz-adv-x="574" 
d="M112 -70q29 -35 66 -50t90 -15q67 0 111 36t44 110v69q-28 -39 -70 -62q-44 -24 -93 -24q-63 0 -111 30t-75 87t-27 134q0 76 27 133t76 87t112 30q49 0 90 -22q42 -23 72 -63v73h75v-469q0 -110 -65 -160q-64 -49 -165 -49q-64 0 -109 15t-86 56l38 56v-2zM425 346
q-20 34 -60 56q-41 23 -84 23q-72 0 -114 -51t-42 -133q0 -81 42 -132t113 -51q43 0 84 23q40 22 60 56v211z" />
    <glyph glyph-name="h" unicode="h" horiz-adv-x="552" 
d="M401 320q0 60 -28 85t-81 25q-42 0 -80 -22q-40 -23 -62 -54v-353h-75v667h75v-254q28 33 75 57q46 24 98 24q154 0 154 -154v-341h-75v318z" />
    <glyph glyph-name="i" unicode="i" horiz-adv-x="225" 
d="M77 575q-15 15 -15 36t15 36t35 15q21 0 36 -15t15 -36t-15 -36t-36 -15q-20 0 -35 15zM150 482v-483h-75v483h75z" />
    <glyph glyph-name="j" unicode="j" horiz-adv-x="225" 
d="M77 575q-15 15 -15 36t15 36t35 15q21 0 36 -15t15 -36t-15 -36t-36 -15q-20 0 -35 15zM150 -48q0 -72 -37 -110q-38 -39 -105 -39q-33 0 -54 7l10 63q13 -5 36 -5q75 0 75 84v530h75v-530z" />
    <glyph glyph-name="k" unicode="k" horiz-adv-x="514" 
d="M150 138v-138h-75v667h75v-441l254 257h95l-214 -219l215 -264h-96l-174 217z" />
    <glyph glyph-name="l" unicode="l" horiz-adv-x="225" 
d="M150 667v-667h-75v667h75z" />
    <glyph glyph-name="m" unicode="m" horiz-adv-x="808" 
d="M657 329q0 48 -22 74q-23 27 -67 27q-37 0 -72 -22q-37 -23 -56 -52v-354h-75v328q0 100 -89 100q-35 0 -70 -22q-36 -23 -57 -54v-353h-75v483h75v-70q17 28 63 55q45 27 93 27q54 0 86 -25q34 -26 44 -66q23 36 67 63q45 27 95 27q67 0 101 -37q35 -38 35 -109v-349
h-75v328z" />
    <glyph glyph-name="n" unicode="n" horiz-adv-x="551" 
d="M402 317q0 62 -28 87q-29 26 -81 26q-43 0 -81 -22t-61 -54v-353h-75v483h75v-70q28 33 75 57q46 24 96 24q154 0 154 -156v-339h-75v316z" />
    <glyph glyph-name="o" unicode="o" 
d="M160 21q-54 34 -84 93q-30 58 -30 129q0 70 30 129t84 92t126 33t126 -33t84 -91q30 -59 30 -129q0 -71 -30 -129q-30 -59 -84 -93q-53 -34 -126 -34t-126 34v-1zM371 77q35 25 55 69q19 42 19 93t-19 92q-20 43 -55 68q-37 26 -86 26q-51 0 -86 -25t-55 -68
q-19 -41 -19 -92t19 -93q19 -43 56 -69q35 -25 86 -25q49 0 86 26z" />
    <glyph glyph-name="p" unicode="p" horiz-adv-x="574" 
d="M74 481h75v-72q27 38 70 60q44 23 93 23q62 0 112 -30q49 -30 76 -87t27 -134t-27 -134t-76 -88t-112 -31q-50 0 -91 22q-43 23 -71 63v-257h-75zM406 370q-42 52 -113 52q-44 0 -84 -22q-41 -23 -60 -54v-218q19 -32 60 -55q40 -22 84 -22q71 0 113 53q42 52 42 135
q0 82 -42 135v-4z" />
    <glyph glyph-name="q" unicode="q" horiz-adv-x="574" 
d="M425 74q-28 -40 -71 -63q-41 -22 -91 -22q-63 0 -112 31q-48 31 -76 89q-27 57 -27 134t27 134t76 87t112 30q49 0 92 -23q42 -23 69 -60v72h75v-667h-75zM425 352q-19 32 -60 55q-40 22 -84 22q-71 0 -113 -52q-42 -53 -42 -135q0 -83 42 -135t113 -52q43 0 84 23
q40 22 60 56v218z" />
    <glyph glyph-name="r" unicode="r" horiz-adv-x="330" 
d="M150 483v-78q31 40 73 64t89 24v-77q-14 3 -30 3q-35 0 -75 -24t-57 -53v-342h-75v483h75z" />
    <glyph glyph-name="s" unicode="s" horiz-adv-x="465" 
d="M71 111q25 -29 69 -48q45 -20 90 -20q55 0 84 22q30 22 30 58t-31 54q-32 18 -93 33q-56 13 -90 27q-35 13 -60 42q-25 28 -25 75q0 37 21 69q21 31 62 51q39 19 96 19q110 0 180 -70l-35 -52q-23 28 -60 44q-39 17 -83 17q-49 0 -78 -20t-29 -53q0 -32 30 -47
q31 -16 89 -29q57 -14 92 -27q37 -14 62 -43q26 -31 26 -79q0 -64 -50 -105t-140 -41q-123 0 -195 76l39 54z" />
    <glyph glyph-name="t" unicode="t" horiz-adv-x="294" 
d="M119 16q-27 28 -27 84v316h-80v66h80v132h75v-132h98v-66h-98v-300q0 -29 12 -45q12 -17 36 -17q15 0 29 6q13 6 21 15l22 -56q-32 -31 -90 -31q-53 0 -80 29z" />
    <glyph glyph-name="u" unicode="u" horiz-adv-x="551" 
d="M401 68q-30 -35 -75 -57q-46 -23 -96 -23q-154 0 -154 154v341h75v-318q0 -60 27 -85q26 -25 80 -25q42 0 81 21q40 22 62 52v355h75v-483h-75v68v0z" />
    <glyph glyph-name="v" unicode="v" horiz-adv-x="490" 
d="M84 483l161 -396l160 396h82l-201 -483h-82l-201 483h81z" />
    <glyph glyph-name="w" unicode="w" horiz-adv-x="734" 
d="M241 0h-75l-154 483h78l118 -385l127 385h64l127 -385l118 385h78l-154 -483h-75l-126 388z" />
    <glyph glyph-name="x" unicode="x" horiz-adv-x="486" 
d="M98 0h-86l185 248l-175 235h87l134 -184l134 184h87l-175 -235l186 -248h-87l-145 198z" />
    <glyph glyph-name="y" unicode="y" horiz-adv-x="490" 
d="M102 -128q25 0 42 11t29 39l32 73l-202 488h81l161 -396l160 396h82l-242 -581q-21 -52 -57 -74q-36 -23 -85 -24q-31 0 -55 7l12 68q19 -8 41 -8z" />
    <glyph glyph-name="z" unicode="z" horiz-adv-x="472" 
d="M318 417h-266v66h364v-57l-268 -361h272v-65h-368v58z" />
    <glyph glyph-name="braceleft" unicode="{" horiz-adv-x="260" 
d="M117 -180q-28 16 -46 48q-18 31 -18 70v206q0 31 -13 50q-14 20 -39 20v50q25 0 39 20t14 50v205q0 41 18 71t47 47t60 17h61v-55h-61q-27 0 -46 -22t-19 -57v-211q0 -68 -46 -87q46 -19 46 -87v-211q0 -34 20 -57t47 -23h61v-55h-61q-31 0 -60 17z" />
    <glyph glyph-name="bar" unicode="|" horiz-adv-x="211" 
d="M133 687v-707h-55v707h55z" />
    <glyph glyph-name="braceright" unicode="}" horiz-adv-x="260" 
d="M74 -135q27 0 47 23t20 57v211q0 68 46 87q-46 19 -46 87v211q0 35 -19 57q-20 23 -46 23h-61v55h61q32 0 60 -16q29 -17 47 -48q18 -32 18 -72v-205q0 -29 14 -49q13 -19 39 -19v-50q-26 0 -39 -19t-13 -49v-206q0 -40 -18 -70q-19 -31 -46 -47q-28 -16 -60 -16h-61v55
h61h-4z" />
    <glyph glyph-name="asciitilde" unicode="~" horiz-adv-x="503" 
d="M435 485q-30 -64 -98 -64q-33 0 -53 16q-21 16 -33 39q-6 11 -12 26l-13 34q-15 42 -27 59q-12 18 -35 18q-34 0 -54 -50q-19 -48 -28 -141l-56 7q10 107 41 173q30 65 98 65q34 0 54 -16q21 -17 33 -39q11 -21 25 -58q13 -39 26 -60q12 -19 35 -19q34 0 54 50
q19 49 27 141l56 -7q-11 -109 -40 -172v-2z" />
    <glyph glyph-name="uni00A0" unicode="&#xa0;" horiz-adv-x="258" 
 />
    <glyph glyph-name="exclamdown" unicode="&#xa1;" horiz-adv-x="230" 
d="M151 474q17 -17 17 -39q0 -23 -16 -39t-39 -16q-22 0 -39 17q-16 16 -16 39q0 22 17 39t39 17q23 0 39 -16zM159 -187h-93l15 480h62z" />
    <glyph glyph-name="cent" unicode="&#xa2;" horiz-adv-x="495" 
d="M463 72q-27 -36 -64 -57q-36 -20 -90 -25v-89h-59v90q-62 7 -108 42q-46 34 -72 89q-25 53 -25 120q0 64 26 119t72 89t108 42v72h59v-71q54 -5 90 -25q37 -21 64 -57l-50 -46q-39 54 -104 62v-371q64 7 105 62zM157 125q34 -50 93 -63v363q-59 -14 -93 -63t-34 -120
t34 -120v3z" />
    <glyph glyph-name="sterling" unicode="&#xa3;" horiz-adv-x="518" 
d="M509 34q-50 -47 -135 -47q-31 0 -52 6q-20 6 -46 18l-22 9.5t-18 7.5q-17 6 -40 6q-26 0 -53 -10q-30 -11 -65 -30l-30 62q64 28 99 68t35 84q0 30 -15 60h-145v54h106l-7 8q-33 39 -52 72q-18 31 -18 77q0 54 30 99t81 72t111 27q67 0 120 -30t81 -82l-67 -40
q-13 34 -48 58t-78 24q-58 0 -101 -35q-42 -35 -42 -93q0 -39 15 -66t44 -62q23 -31 22 -28h150v-54h-121q6 -20 6 -43q0 -78 -76 -132q25 9 52 9q22 0 39 -6l18 -7t21 -9q22 -10 35 -14q17 -5 34 -5q31 0 57 12t38 27l36 -67h1z" />
    <glyph glyph-name="currency" unicode="&#xa4;" horiz-adv-x="598" 
d="M569 109l-46 -45l-76 76q-62 -47 -148 -47q-85 0 -149 47l-75 -76l-47 45l77 77q-45 64 -45 147q0 86 46 148l-79 78l47 46l78 -79q61 46 147 46q84 0 147 -45l77 77l46 -46l-77 -77q46 -62 46 -148t-46 -148zM385 182q37 24 56 63q19 38 19 86q0 47 -19 85
q-20 39 -55 63q-36 24 -87 24q-50 0 -87 -24q-38 -24 -57 -63q-19 -38 -19 -84q0 -47 19 -85q19 -39 57 -63q37 -24 87 -24q51 0 87 24z" />
    <glyph glyph-name="yen" unicode="&#xa5;" horiz-adv-x="626" 
d="M605 334v-52h-250v-107h250v-53h-250v-122h-83v122h-250v53h250v107h-250v52h215l-228 333h97l207 -310l207 310h97l-228 -333h216z" />
    <glyph glyph-name="brokenbar" unicode="&#xa6;" horiz-adv-x="211" 
d="M133 687v-316h-55v316h55zM133 296v-316h-55v316h55z" />
    <glyph glyph-name="section" unicode="&#xa7;" horiz-adv-x="468" 
d="M392 141q24 -29 24 -75q0 -69 -52 -108q-53 -39 -138 -39q-67 0 -112 21q-44 21 -82 57l38 49q25 -30 66 -51q40 -21 90 -21q52 0 84 23t32 63q0 25 -17 42t-42 26q-13 5 -30 10t-39 10l-50 14.5t-39 13.5q-34 14 -57 40q-24 27 -24 72q0 50 33 83q32 32 83 46
q-54 17 -85 47q-30 28 -30 75q0 37 21 69t62 50q40 18 96 18q62 0 107 -20q44 -20 71 -51l-34 -45q-24 30 -63 45t-79 15q-49 0 -78 -22q-30 -23 -30 -58q0 -22 16 -37q16 -14 40 -22t66 -18q57 -14 92 -27q36 -13 61 -43q26 -31 26 -79q0 -42 -24 -75q-25 -34 -69 -53
q44 -17 68 -45h-2zM140 357q-25 -24 -25 -59q0 -28 19 -44q18 -16 45 -25q13 -5 32.5 -10l45.5 -12q41 18 63 41q21 22 21 57q0 39 -30 59t-82 33q-62 -17 -87 -40h-2z" />
    <glyph glyph-name="dieresis" unicode="&#xa8;" horiz-adv-x="413" 
d="M68 578q-13 13 -13 33q0 19 14 33t33 14q20 0 33 -13q14 -14 14 -33q0 -20 -13 -33t-33 -13q-19 0 -33 14zM273 577q-14 14 -14 33t14 33t33 14q20 0 33 -13q14 -14 14 -33q0 -20 -13 -33q-14 -14 -33 -14t-33 14z" />
    <glyph glyph-name="copyright" unicode="&#xa9;" horiz-adv-x="778" 
d="M212 33q-80 46 -126 126q-46 79 -46 173t47 174q46 79 126 126t174 47q95 0 174 -46q79 -47 126 -126q47 -80 47 -174q0 -95 -46 -174q-47 -80 -126 -126t-174 -46q-92 0 -172 47zM227 603q-72 -42 -114 -114t-42 -157t42 -157t114 -114t157 -42t157 42t114 114t42 157
t-42 157t-114 114t-157 42t-157 -42zM384 120q-58 0 -105 28t-76 78q-28 49 -28 109q0 61 28 108q29 49 76 77t105 28q90 0 146 -66l-25 -24q-20 27 -52 41q-33 15 -68 15q-46 0 -84 -22q-39 -23 -63 -64q-24 -42 -24 -94q0 -51 24 -93t63 -66t84 -24q37 0 69 16
q34 17 53 42l26 -25q-57 -66 -147 -66z" />
    <glyph glyph-name="ordfeminine" unicode="&#xaa;" horiz-adv-x="378" 
d="M259 360q-40 -43 -108 -43q-44 0 -78 28t-34 76q0 49 33 76t78 27q67 0 108 -42v55q0 30 -23 48t-56 18q-28 0 -53 -12q-26 -12 -45 -34l-25 37q52 54 132 54q57 0 93 -27t36 -84v-211h-57v35zM259 448q-13 17 -36 28q-21 10 -48 10q-33 0 -54 -18t-21 -47q0 -30 21 -48
t54 -18q27 0 48 10q23 11 36 28v56v-1z" />
    <glyph glyph-name="guillemotleft" unicode="&#xab;" horiz-adv-x="439" 
d="M190 420h75l-160 -177l160 -180h-75l-160 180zM334 420h75l-160 -177l160 -180h-75l-160 180z" />
    <glyph glyph-name="logicalnot" unicode="&#xac;" horiz-adv-x="504" 
d="M415 404h-386v53h441v-246h-55v193z" />
    <glyph glyph-name="uni00AD" unicode="&#xad;" horiz-adv-x="300" 
d="M270 275v-66h-240v66h240z" />
    <glyph glyph-name="registered" unicode="&#xae;" horiz-adv-x="494" 
d="M136 277q-48 29 -77 77q-28 47 -28 107q0 58 29 107q29 48 77 77q49 29 107 29q60 0 107 -28q48 -29 77 -77q29 -49 29 -106q0 -59 -28 -106q-29 -48 -77 -77q-47 -28 -106 -28q-57 0 -106 29zM150 619q-42 -24 -66 -66t-24 -92t24 -92q24 -41 66 -67q41 -25 92 -25
t92 25q42 26 66 67q24 42 24 92t-24 92t-66 66t-92 24t-92 -24zM194 436v-96h-32v243h99q31 0 54 -21t23 -54q0 -26 -12 -42q-12 -17 -27 -24q-14 -7 -24 -7l65 -97h-40l-63 96zM193 465h67q20 0 32 12t12 32q0 19 -12 33q-12 13 -31 13h-67z" />
    <glyph glyph-name="macron" unicode="&#xaf;" horiz-adv-x="363" 
d="M335 620v-48h-307v48h307z" />
    <glyph glyph-name="degree" unicode="&#xb0;" horiz-adv-x="290" 
d="M57 468q-36 36 -36 87q0 50 36 86t86 36q51 0 87 -36t36 -86q0 -51 -36 -87t-87 -36q-49 0 -85 36h-1zM91 605q-21 -23 -21 -52q0 -31 21 -52t51 -21q31 0 54 21q22 21 22 53q0 30 -22 52t-54 22q-30 0 -51 -22v-1z" />
    <glyph glyph-name="plusminus" unicode="&#xb1;" horiz-adv-x="499" 
d="M221 110v214h-192v52h192v207h57v-207h192v-52h-192v-214h-57zM470 52v-52h-441v52h441z" />
    <glyph glyph-name="uni00B2" unicode="&#xb2;" horiz-adv-x="388" 
d="M48 463q124 88 177 141t53 99q0 36 -25 54q-26 18 -60 18q-36 0 -66 -15t-46 -37l-33 38q24 31 63 48q38 16 83 16q60 0 102 -30t42 -87q0 -55 -50 -111q-48 -54 -150 -127h203v-49h-291v45z" />
    <glyph glyph-name="uni00B3" unicode="&#xb3;" horiz-adv-x="388" 
d="M95 434q-38 18 -60 47l32 38q19 -25 51 -40q31 -15 66 -15q44 0 69 19t25 51q0 37 -28 53q-29 17 -75 17q-36 0 -40 -1v50q5 -1 39 -1q45 0 72 15t27 48q0 31 -25 47q-26 17 -63 17q-64 0 -109 -49l-31 36q25 28 62 45t83 17q64 0 105 -29q40 -28 40 -78q0 -40 -27 -64
t-62 -30q35 -3 66 -28t31 -69q0 -52 -41 -84t-110 -32q-51 0 -90 18z" />
    <glyph glyph-name="acute" unicode="&#xb4;" horiz-adv-x="226" 
d="M148 700h78l-169 -144h-57z" />
    <glyph glyph-name="uni00B5" unicode="&#xb5;" horiz-adv-x="565" 
d="M76 480h75v-318q0 -112 110 -112q42 0 80 22t61 54v355h75v-370q0 -27 12 -42t35 -15q8 0 18 2l6 -65q-20 -4 -40 -4q-88 0 -105 86q-26 -36 -68 -61q-41 -24 -84 -24q-76 0 -101 48v-220h-75z" />
    <glyph glyph-name="paragraph" unicode="&#xb6;" horiz-adv-x="449" 
d="M244 624v-722h-45v423q-46 0 -86 23q-39 23 -62 62q-23 40 -23 86t23 86q23 39 62 62q40 23 86 23h179v-767h-45v722z" />
    <glyph glyph-name="periodcentered" unicode="&#xb7;" horiz-adv-x="230" 
d="M75 206q-16 16 -16 39q0 22 17 39q16 16 39 16t39 -16t16 -39t-16 -39t-39 -16t-39 16h-1z" />
    <glyph glyph-name="cedilla" unicode="&#xb8;" horiz-adv-x="205" 
d="M19 -126q35 -29 80 -29q26 0 44 12t18 33q0 15 -9 24t-27 9q-12 0 -21 -4q-11 -5 -18 -12l-33 19l31 84h45l-26 -66q17 11 37 11q29 0 47 -18t18 -47q0 -38 -30 -60q-29 -22 -74 -22q-31 0 -58 9t-43 22l19 38v-3z" />
    <glyph glyph-name="uni00B9" unicode="&#xb9;" horiz-adv-x="235" 
d="M49 674l-35 37l108 110h53v-400h-60v322z" />
    <glyph glyph-name="ordmasculine" unicode="&#xba;" horiz-adv-x="405" 
d="M60 566q19 37 57 60q37 22 85 22q50 0 87 -22q37 -23 57 -60q20 -38 20 -84t-20 -84t-57 -60t-87 -22q-48 0 -85 22q-38 22 -57 60q-20 38 -20 84t20 84zM278 564q-29 33 -76 33t-74 -33t-27 -82q0 -51 27 -84t74 -33t76 33q28 32 28 84q0 51 -28 83v-1z" />
    <glyph glyph-name="guillemotright" unicode="&#xbb;" horiz-adv-x="439" 
d="M190 243l-160 177h75l160 -177l-160 -180h-75zM334 243l-160 177h75l160 -177l-160 -180h-75z" />
    <glyph glyph-name="onequarter" unicode="&#xbc;" horiz-adv-x="746" 
d="M49 520l-35 37l108 110h53v-400h-60v322zM524 667h56l-427 -667h-55zM593 0v100h-196v44l172 256h83v-251h58v-49h-58v-100h-59zM593 149v198l-136 -198h136z" />
    <glyph glyph-name="onehalf" unicode="&#xbd;" horiz-adv-x="796" 
d="M49 520l-35 37l108 110h53v-400h-60v322zM524 667h56l-427 -667h-55zM456 42q124 88 177 141t53 99q0 36 -25 54q-26 18 -60 18q-36 0 -66 -15t-46 -37l-33 38q24 31 63 48q38 16 83 16q60 0 102 -30t42 -87q0 -55 -50 -111q-48 -54 -150 -127h203v-49h-291v45z" />
    <glyph glyph-name="threequarters" unicode="&#xbe;" horiz-adv-x="864" 
d="M95 280q-38 18 -60 47l32 38q19 -25 51 -40q31 -15 66 -15q44 0 69 19t25 51q0 37 -28 53q-29 17 -75 17q-36 0 -40 -1v50q5 -1 39 -1q45 0 72 15t27 48q0 31 -25 47q-26 17 -63 17q-64 0 -109 -49l-31 36q25 28 62 45t83 17q64 0 105 -29q40 -28 40 -78q0 -40 -27 -64
t-62 -30q35 -3 66 -28t31 -69q0 -52 -41 -84t-110 -32q-51 0 -90 18zM635 669h56l-427 -667h-55zM704 2v100h-196v44l172 256h83v-251h58v-49h-58v-100h-59zM704 151v198l-136 -198h136z" />
    <glyph glyph-name="questiondown" unicode="&#xbf;" horiz-adv-x="394" 
d="M274 398q-16 -16 -39 -16t-39 16t-16 39q0 22 17 39t39 17q23 0 39 -16q17 -17 17 -39q0 -23 -16 -39zM283 156q-13 -23 -33 -40t-51 -39q-43 -29 -63 -52q-21 -24 -21 -58q0 -39 30 -66t86 -27q54 0 92 21t68 60l49 -53q-37 -49 -91 -76t-124 -27q-58 0 -103 21t-69 57
t-24 79q0 55 29 90t83 71q39 28 60 50q20 22 20 51q0 13 -7 26q-8 15 -19 23l60 27q39 -35 39 -81q0 -32 -13 -55z" />
    <glyph glyph-name="Agrave" unicode="&#xc0;" horiz-adv-x="658" 
d="M160 148l-59 -148h-92l268 667h103l269 -667h-92l-59 148h-338zM473 222l-144 371l-145 -371h289zM209 867l148 -144h-57l-169 144h78z" />
    <glyph glyph-name="Aacute" unicode="&#xc1;" horiz-adv-x="658" 
d="M160 148l-59 -148h-92l268 667h103l269 -667h-92l-59 148h-338zM473 222l-144 371l-145 -371h289zM446 867h78l-169 -144h-57z" />
    <glyph glyph-name="Acircumflex" unicode="&#xc2;" horiz-adv-x="658" 
d="M160 148l-59 -148h-92l268 667h103l269 -667h-92l-59 148h-338zM473 222l-144 371l-145 -371h289zM249 723h-51l95 144h72l98 -144h-51l-83 106z" />
    <glyph glyph-name="Atilde" unicode="&#xc3;" horiz-adv-x="658" 
d="M160 148l-59 -148h-92l268 667h103l269 -667h-92l-59 148h-338zM473 222l-144 371l-145 -371h289zM286 802q-9 9 -24 9q-21 0 -34 -21q-13 -20 -13 -64h-45q0 59 26 97q25 37 72 37q27 0 41 -13q15 -14 33 -39q15 -21 24 -30t24 -9q21 0 35 21q14 22 14 65h45
q0 -60 -25 -97t-72 -37q-26 0 -42 14q-15 13 -33 39l-12 17t-10 12z" />
    <glyph glyph-name="Adieresis" unicode="&#xc4;" horiz-adv-x="658" 
d="M160 148l-59 -148h-92l268 667h103l269 -667h-92l-59 148h-338zM473 222l-144 371l-145 -371h289zM191 745q-13 13 -13 33q0 19 14 33t33 14q20 0 33 -13q14 -14 14 -33q0 -20 -13 -33t-33 -13q-19 0 -33 14zM395 744q-13 13 -13 33q0 19 14 33t33 14q20 0 33 -13
q14 -14 14 -33q0 -20 -13 -33q-14 -14 -33 -14t-33 14z" />
    <glyph glyph-name="Aring" unicode="&#xc5;" horiz-adv-x="658" 
d="M160 148l-59 -148h-92l268 667h103l269 -667h-92l-59 148h-338zM473 222l-144 371l-145 -371h289zM259 878q29 29 69 29t69 -29t29 -69t-29 -69t-69 -29t-69 29q-28 28 -28 69q0 40 29 69h-1zM369 850q-17 17 -42 17q-24 0 -41 -17t-17 -42q0 -23 17 -42q16 -18 41 -18
q24 0 41 18q17 19 17 42q0 26 -16 42z" />
    <glyph glyph-name="AE" unicode="&#xc6;" horiz-adv-x="947" 
d="M190 148l-91 -148h-92l416 667h470v-74h-354v-215h347v-74h-347v-230h354v-74h-437v148h-266zM456 222v371l-225 -371h225z" />
    <glyph glyph-name="Ccedilla" unicode="&#xc7;" horiz-adv-x="676" 
d="M387 -61q17 11 37 11q29 0 47 -18t18 -47q0 -38 -30 -60q-29 -22 -74 -22q-31 0 -58 9t-43 22l19 38q35 -29 80 -29q26 0 44 12t18 33q0 15 -9 24t-27 9q-12 0 -21 -4q-11 -5 -18 -12l-33 19l23 62q-87 7 -158 53q-71 45 -111 120q-41 76 -41 170q0 100 45 180
q45 79 123 123q79 44 172 44q86 0 149 -36q64 -37 107 -97l-70 -39q-28 43 -78 70t-108 27q-71 0 -129 -34t-91 -96t-33 -140t33 -139t92 -96t129 -35q58 0 108 27q49 27 78 71l71 -39q-93 -124 -242 -132z" />
    <glyph glyph-name="Egrave" unicode="&#xc8;" horiz-adv-x="569" 
d="M515 667v-74h-354v-215h347v-74h-347v-230h354v-74h-437v667h437zM182 867l148 -144h-57l-169 144h78z" />
    <glyph glyph-name="Eacute" unicode="&#xc9;" horiz-adv-x="569" 
d="M515 667v-74h-354v-215h347v-74h-347v-230h354v-74h-437v667h437zM419 867h78l-169 -144h-57z" />
    <glyph glyph-name="Ecircumflex" unicode="&#xca;" horiz-adv-x="569" 
d="M515 667v-74h-354v-215h347v-74h-347v-230h354v-74h-437v667h437zM222 723h-51l95 144h72l98 -144h-51l-83 106z" />
    <glyph glyph-name="Edieresis" unicode="&#xcb;" horiz-adv-x="569" 
d="M515 667v-74h-354v-215h347v-74h-347v-230h354v-74h-437v667h437zM164 745q-13 13 -13 33q0 19 14 33t33 14q20 0 33 -13q14 -14 14 -33q0 -20 -13 -33t-33 -13q-19 0 -33 14zM368 744q-13 13 -13 33q0 19 14 33t33 14q20 0 33 -13q14 -14 14 -33q0 -20 -13 -33
q-14 -14 -33 -14t-33 14z" />
    <glyph glyph-name="Igrave" unicode="&#xcc;" horiz-adv-x="239" 
d="M161 667v-667h-83v667h83zM0 867l148 -144h-57l-169 144h78z" />
    <glyph glyph-name="Iacute" unicode="&#xcd;" horiz-adv-x="239" 
d="M161 667v-667h-83v667h83zM237 867h78l-169 -144h-57z" />
    <glyph glyph-name="Icircumflex" unicode="&#xce;" horiz-adv-x="239" 
d="M161 667v-667h-83v667h83zM40 723h-51l95 144h72l98 -144h-51l-83 106z" />
    <glyph glyph-name="Idieresis" unicode="&#xcf;" horiz-adv-x="239" 
d="M161 667v-667h-83v667h83zM-18 745q-13 13 -13 33q0 19 14 33t33 14q20 0 33 -13q14 -14 14 -33q0 -20 -13 -33t-33 -13q-19 0 -33 14zM186 744q-13 13 -13 33q0 19 14 33t33 14q20 0 33 -13q14 -14 14 -33q0 -20 -13 -33q-14 -14 -33 -14t-33 14z" />
    <glyph glyph-name="Eth" unicode="&#xd0;" horiz-adv-x="728" 
d="M513 622q78 -44 120 -120q42 -77 42 -171q0 -95 -42 -170q-42 -76 -120 -119q-77 -43 -179 -43h-228v298h-96v63h96v306h228q102 0 179 -43v-1zM470 107q59 35 89 93t30 131t-30 132t-88 93q-59 35 -138 35h-145v-232h170v-63h-170v-224h145q79 0 138 35h-1z" />
    <glyph glyph-name="Ntilde" unicode="&#xd1;" horiz-adv-x="708" 
d="M161 0h-83v667h85l384 -527v527h83v-667h-80l-389 538v-538zM311 802q-9 9 -24 9q-21 0 -34 -21q-13 -20 -13 -64h-45q0 59 26 97q25 37 72 37q27 0 41 -13q15 -14 33 -39q15 -21 24 -30t24 -9q21 0 35 21q14 22 14 65h45q0 -60 -25 -97t-72 -37q-26 0 -42 14
q-15 13 -33 39l-12 17t-10 12z" />
    <glyph glyph-name="Ograve" unicode="&#xd2;" horiz-adv-x="765" 
d="M91 509q42 78 117 123t173 45q97 0 172 -45t117 -123t42 -176t-42 -176t-117 -123t-172 -45t-172 45t-117 123t-42 176t42 176h-1zM594 471q-30 61 -86 96t-129 35t-129 -35q-55 -34 -85 -96t-30 -139t30 -138t86 -96t129 -35t129 35t86 96t30 138q0 78 -30 140zM258 865
l148 -144h-57l-169 144h78z" />
    <glyph glyph-name="Oacute" unicode="&#xd3;" horiz-adv-x="765" 
d="M91 509q42 78 117 123t173 45q97 0 172 -45t117 -123t42 -176t-42 -176t-117 -123t-172 -45t-172 45t-117 123t-42 176t42 176h-1zM594 471q-30 61 -86 96t-129 35t-129 -35q-55 -34 -85 -96t-30 -139t30 -138t86 -96t129 -35t129 35t86 96t30 138q0 78 -30 140zM495 865
h78l-169 -144h-57z" />
    <glyph glyph-name="Ocircumflex" unicode="&#xd4;" horiz-adv-x="765" 
d="M91 509q42 78 117 123t173 45q97 0 172 -45t117 -123t42 -176t-42 -176t-117 -123t-172 -45t-172 45t-117 123t-42 176t42 176h-1zM594 471q-30 61 -86 96t-129 35t-129 -35q-55 -34 -85 -96t-30 -139t30 -138t86 -96t129 -35t129 35t86 96t30 138q0 78 -30 140zM298 721
h-51l95 144h72l98 -144h-51l-83 106z" />
    <glyph glyph-name="Otilde" unicode="&#xd5;" horiz-adv-x="765" 
d="M91 509q42 78 117 123t173 45q97 0 172 -45t117 -123t42 -176t-42 -176t-117 -123t-172 -45t-172 45t-117 123t-42 176t42 176h-1zM594 471q-30 61 -86 96t-129 35t-129 -35q-55 -34 -85 -96t-30 -139t30 -138t86 -96t129 -35t129 35t86 96t30 138q0 78 -30 140zM336 801
q-9 9 -24 9q-21 0 -34 -21q-13 -20 -13 -64h-45q0 59 26 97q25 37 72 37q27 0 41 -13q15 -14 33 -39q15 -21 24 -30t24 -9q21 0 35 21q14 22 14 65h45q0 -60 -25 -97t-72 -37q-26 0 -42 14q-15 13 -33 39l-12 17t-10 12z" />
    <glyph glyph-name="Odieresis" unicode="&#xd6;" horiz-adv-x="765" 
d="M91 509q42 78 117 123t173 45q97 0 172 -45t117 -123t42 -176t-42 -176t-117 -123t-172 -45t-172 45t-117 123t-42 176t42 176h-1zM594 471q-30 61 -86 96t-129 35t-129 -35q-55 -34 -85 -96t-30 -139t30 -138t86 -96t129 -35t129 35t86 96t30 138q0 78 -30 140zM241 743
q-13 13 -13 33q0 19 14 33t33 14q20 0 33 -13q14 -14 14 -33q0 -20 -13 -33t-33 -13q-19 0 -33 14zM445 742q-13 13 -13 33q0 19 14 33t33 14q20 0 33 -13q14 -14 14 -33q0 -20 -13 -33q-14 -14 -33 -14t-33 14z" />
    <glyph glyph-name="multiply" unicode="&#xd7;" horiz-adv-x="499" 
d="M64 185l148 149l-148 148l37 38l148 -149l149 149l37 -38l-148 -148l148 -149l-37 -37l-149 149l-148 -149z" />
    <glyph glyph-name="Oslash" unicode="&#xd8;" horiz-adv-x="765" 
d="M682 486q31 -69 31 -154q0 -98 -42 -176t-117 -123t-172 -45q-98 0 -174 45l-22 -33h-66l44 65q-54 46 -84 116q-30 69 -30 152q0 98 42 176t117 123t173 45q92 0 167 -42l21 31h66l-42 -62q56 -46 88 -117v-1zM154 217q19 -50 54 -88l296 440q-53 32 -123 32
q-73 0 -129 -35q-55 -34 -85 -96t-30 -139q0 -62 19 -112zM507 95q56 35 86 96t30 138q0 62 -20 116q-20 53 -57 89l-296 -441q58 -35 129 -35q73 0 129 35z" />
    <glyph glyph-name="Ugrave" unicode="&#xd9;" horiz-adv-x="700" 
d="M157 667v-406q0 -94 49 -146q50 -53 141 -53t141 53q49 52 49 146v406h83v-407q0 -127 -69 -199t-202 -72t-202 72t-69 198v408h79zM226 867l148 -144h-57l-169 144h78z" />
    <glyph glyph-name="Uacute" unicode="&#xda;" horiz-adv-x="700" 
d="M157 667v-406q0 -94 49 -146q50 -53 141 -53t141 53q49 52 49 146v406h83v-407q0 -127 -69 -199t-202 -72t-202 72t-69 198v408h79zM463 867h78l-169 -144h-57z" />
    <glyph glyph-name="Ucircumflex" unicode="&#xdb;" horiz-adv-x="700" 
d="M157 667v-406q0 -94 49 -146q50 -53 141 -53t141 53q49 52 49 146v406h83v-407q0 -127 -69 -199t-202 -72t-202 72t-69 198v408h79zM266 723h-51l95 144h72l98 -144h-51l-83 106z" />
    <glyph glyph-name="Udieresis" unicode="&#xdc;" horiz-adv-x="700" 
d="M157 667v-406q0 -94 49 -146q50 -53 141 -53t141 53q49 52 49 146v406h83v-407q0 -127 -69 -199t-202 -72t-202 72t-69 198v408h79zM208 745q-13 13 -13 33q0 19 14 33t33 14q20 0 33 -13q14 -14 14 -33q0 -20 -13 -33t-33 -13q-19 0 -33 14zM412 744q-13 13 -13 33
q0 19 14 33t33 14q20 0 33 -13q14 -14 14 -33q0 -20 -13 -33q-14 -14 -33 -14t-33 14z" />
    <glyph glyph-name="Yacute" unicode="&#xdd;" horiz-adv-x="626" 
d="M9 667h97l207 -310l207 310h97l-262 -385v-282h-83v282zM430 867h78l-169 -144h-57z" />
    <glyph glyph-name="Thorn" unicode="&#xde;" horiz-adv-x="587" 
d="M162 666v-119h185q65 0 113 -27t72 -73q24 -47 24 -102q0 -56 -25 -100q-26 -45 -73 -72q-48 -27 -112 -27h-185v-146h-83v667zM433 438q-38 36 -96 36h-175v-254h175q58 0 96 35q37 34 37 90t-37 92v1z" />
    <glyph glyph-name="germandbls" unicode="&#xdf;" horiz-adv-x="597" 
d="M284 7q-41 19 -79 57l38 52q22 -29 62 -49q38 -19 87 -19q54 0 84 24t30 59q0 24 -15 39t-39 24q-12 5 -28.5 10t-37.5 10q-53 13 -87 27q-33 13 -58 41q-24 27 -24 72q0 40 23 66q22 25 63 51q30 20 45 35q14 14 14 33q0 32 -30 50t-69 18q-49 0 -82 -30t-33 -80v-499
h-75v499q0 49 24 90q25 42 67 65q43 24 101 24q73 0 123 -34q51 -35 51 -91q0 -39 -21 -63q-20 -23 -62 -51q-31 -21 -49 -39q-16 -16 -16 -42q0 -30 27 -45q25 -14 86 -28q55 -14 89 -27q35 -14 60 -43t25 -79q0 -40 -21 -73q-21 -34 -63 -53q-43 -20 -102 -20
q-65 0 -108 20v-1z" />
    <glyph glyph-name="agrave" unicode="&#xe0;" horiz-adv-x="527" 
d="M376 57q-61 -67 -160 -67q-43 0 -82 18t-63 54t-24 86q0 51 24 87t63 54t82 18q103 0 160 -66v87q0 48 -34 75q-35 27 -88 27q-45 0 -80 -16q-37 -17 -68 -51l-35 52q39 40 87 60q49 20 107 20q83 0 135 -40t52 -123v-332h-75v55zM374 198q-22 29 -57 44q-36 15 -76 15
q-52 0 -85 -30t-33 -76t33 -76t86 -30q41 0 77 15q35 15 57 44v91zM143 705l148 -144h-57l-169 144h78z" />
    <glyph glyph-name="aacute" unicode="&#xe1;" horiz-adv-x="527" 
d="M376 57q-61 -67 -160 -67q-43 0 -82 18t-63 54t-24 86q0 51 24 87t63 54t82 18q103 0 160 -66v87q0 48 -34 75q-35 27 -88 27q-45 0 -80 -16q-37 -17 -68 -51l-35 52q39 40 87 60q49 20 107 20q83 0 135 -40t52 -123v-332h-75v55zM374 198q-22 29 -57 44q-36 15 -76 15
q-52 0 -85 -30t-33 -76t33 -76t86 -30q41 0 77 15q35 15 57 44v91zM380 705h78l-169 -144h-57z" />
    <glyph glyph-name="acircumflex" unicode="&#xe2;" horiz-adv-x="527" 
d="M376 57q-61 -67 -160 -67q-43 0 -82 18t-63 54t-24 86q0 51 24 87t63 54t82 18q103 0 160 -66v87q0 48 -34 75q-35 27 -88 27q-45 0 -80 -16q-37 -17 -68 -51l-35 52q39 40 87 60q49 20 107 20q83 0 135 -40t52 -123v-332h-75v55zM374 198q-22 29 -57 44q-36 15 -76 15
q-52 0 -85 -30t-33 -76t33 -76t86 -30q41 0 77 15q35 15 57 44v91zM183 561h-51l95 144h72l98 -144h-51l-83 106z" />
    <glyph glyph-name="atilde" unicode="&#xe3;" horiz-adv-x="527" 
d="M376 57q-61 -67 -160 -67q-43 0 -82 18t-63 54t-24 86q0 51 24 87t63 54t82 18q103 0 160 -66v87q0 48 -34 75q-35 27 -88 27q-45 0 -80 -16q-37 -17 -68 -51l-35 52q39 40 87 60q49 20 107 20q83 0 135 -40t52 -123v-332h-75v55zM374 198q-22 29 -57 44q-36 15 -76 15
q-52 0 -85 -30t-33 -76t33 -76t86 -30q41 0 77 15q35 15 57 44v91zM220 640q-9 9 -24 9q-21 0 -34 -21q-13 -20 -13 -64h-45q0 59 26 97q25 37 72 37q27 0 41 -13q15 -14 33 -39q15 -21 24 -30t24 -9q21 0 35 21q14 22 14 65h45q0 -60 -25 -97t-72 -37q-26 0 -42 14
q-15 13 -33 39l-12 17t-10 12z" />
    <glyph glyph-name="adieresis" unicode="&#xe4;" horiz-adv-x="527" 
d="M376 57q-61 -67 -160 -67q-43 0 -82 18t-63 54t-24 86q0 51 24 87t63 54t82 18q103 0 160 -66v87q0 48 -34 75q-35 27 -88 27q-45 0 -80 -16q-37 -17 -68 -51l-35 52q39 40 87 60q49 20 107 20q83 0 135 -40t52 -123v-332h-75v55zM374 198q-22 29 -57 44q-36 15 -76 15
q-52 0 -85 -30t-33 -76t33 -76t86 -30q41 0 77 15q35 15 57 44v91zM125 583q-13 13 -13 33q0 19 14 33t33 14q20 0 33 -13q14 -14 14 -33q0 -20 -13 -33t-33 -13q-19 0 -33 14zM329 582q-13 13 -13 33q0 19 14 33t33 14q20 0 33 -13q14 -14 14 -33q0 -20 -13 -33
q-14 -14 -33 -14t-33 14z" />
    <glyph glyph-name="aring" unicode="&#xe5;" horiz-adv-x="527" 
d="M376 57q-61 -67 -160 -67q-43 0 -82 18t-63 54t-24 86q0 51 24 87t63 54t82 18q103 0 160 -66v87q0 48 -34 75q-35 27 -88 27q-45 0 -80 -16q-37 -17 -68 -51l-35 52q39 40 87 60q49 20 107 20q83 0 135 -40t52 -123v-332h-75v55zM374 198q-22 29 -57 44q-36 15 -76 15
q-52 0 -85 -30t-33 -76t33 -76t86 -30q41 0 77 15q35 15 57 44v91zM193 716q29 29 69 29t69 -29t29 -69t-29 -69t-69 -29t-69 29q-28 28 -28 69q0 40 29 69h-1zM303 688q-17 17 -42 17q-24 0 -41 -17t-17 -42q0 -23 17 -42q16 -18 41 -18q24 0 41 18q17 19 17 42
q0 26 -16 42z" />
    <glyph glyph-name="ae" unicode="&#xe6;" horiz-adv-x="889" 
d="M519 101q44 -47 114 -47q40 0 76 15t63 45l36 -51q-34 -35 -81 -55q-45 -19 -97 -19q-64 0 -114 29q-50 28 -78 87q-26 -53 -79 -84q-55 -32 -120 -32q-83 0 -138 42q-56 42 -56 117q0 50 24 86t65 54q40 18 89 18q112 0 175 -64v86q0 47 -36 74t-96 27q-49 0 -87 -16
q-40 -17 -74 -51l-35 52q80 80 205 80q64 0 111 -26q46 -26 60 -78q27 46 72 75q46 29 107 29q68 0 117 -34q49 -35 75 -93q26 -60 26 -132v-19h-367q4 -71 48 -117zM745 350q-15 37 -48 61t-82 24q-45 0 -78 -24t-49 -61q-17 -38 -18 -76h293q-2 40 -16 76h-2zM330 237
q-38 16 -82 16q-59 0 -95 -27t-36 -73q0 -45 36 -72t95 -27q41 0 74 18q32 18 52 48q19 29 19 62v12q-24 28 -63 45v-2z" />
    <glyph glyph-name="ccedilla" unicode="&#xe7;" horiz-adv-x="495" 
d="M467 69q-28 -37 -66 -58q-37 -21 -92 -24l-17 -44q17 11 37 11q29 0 47 -18t18 -47q0 -38 -30 -60q-29 -22 -74 -22q-31 0 -58 9t-43 22l19 38q35 -29 80 -29q26 0 44 12t18 33q0 15 -9 24t-27 9q-12 0 -21 -4q-11 -5 -18 -12l-33 19l23 62q-64 6 -114 41q-49 34 -76 90
q-27 55 -27 123q0 70 30 129q30 58 84 91t125 33q63 0 104 -22t73 -63l-50 -46q-47 63 -123 63t-121 -52q-45 -53 -45 -135q0 -83 45 -135t122 -52q76 0 123 63z" />
    <glyph glyph-name="egrave" unicode="&#xe8;" horiz-adv-x="563" 
d="M77 368q32 59 85 93t122 34q71 0 123 -34q52 -35 81 -93q28 -57 28 -132v-19h-391q5 -71 51 -119t122 -48q43 0 81 16q40 17 68 45l36 -49q-74 -74 -192 -74q-70 0 -126 32q-56 31 -87 90q-31 58 -31 132q0 69 31 127zM200 408q-36 -25 -53 -61q-19 -39 -20 -76h317
q-2 40 -19 76q-18 37 -54 61t-88 24q-50 0 -84 -24h1zM164 699l148 -144h-57l-169 144h78z" />
    <glyph glyph-name="eacute" unicode="&#xe9;" horiz-adv-x="563" 
d="M77 368q32 59 85 93t122 34q71 0 123 -34q52 -35 81 -93q28 -57 28 -132v-19h-391q5 -71 51 -119t122 -48q43 0 81 16q40 17 68 45l36 -49q-74 -74 -192 -74q-70 0 -126 32q-56 31 -87 90q-31 58 -31 132q0 69 31 127zM200 408q-36 -25 -53 -61q-19 -39 -20 -76h317
q-2 40 -19 76q-18 37 -54 61t-88 24q-50 0 -84 -24h1zM401 699h78l-169 -144h-57z" />
    <glyph glyph-name="ecircumflex" unicode="&#xea;" horiz-adv-x="563" 
d="M77 368q32 59 85 93t122 34q71 0 123 -34q52 -35 81 -93q28 -57 28 -132v-19h-391q5 -71 51 -119t122 -48q43 0 81 16q40 17 68 45l36 -49q-74 -74 -192 -74q-70 0 -126 32q-56 31 -87 90q-31 58 -31 132q0 69 31 127zM200 408q-36 -25 -53 -61q-19 -39 -20 -76h317
q-2 40 -19 76q-18 37 -54 61t-88 24q-50 0 -84 -24h1zM204 555h-51l95 144h72l98 -144h-51l-83 106z" />
    <glyph glyph-name="edieresis" unicode="&#xeb;" horiz-adv-x="563" 
d="M77 368q32 59 85 93t122 34q71 0 123 -34q52 -35 81 -93q28 -57 28 -132v-19h-391q5 -71 51 -119t122 -48q43 0 81 16q40 17 68 45l36 -49q-74 -74 -192 -74q-70 0 -126 32q-56 31 -87 90q-31 58 -31 132q0 69 31 127zM200 408q-36 -25 -53 -61q-19 -39 -20 -76h317
q-2 40 -19 76q-18 37 -54 61t-88 24q-50 0 -84 -24h1zM146 577q-13 13 -13 33q0 19 14 33t33 14q20 0 33 -13q14 -14 14 -33q0 -20 -13 -33t-33 -13q-19 0 -33 14zM350 576q-13 13 -13 33q0 19 14 33t33 14q20 0 33 -13q14 -14 14 -33q0 -20 -13 -33q-14 -14 -33 -14t-33 14
z" />
    <glyph glyph-name="igrave" unicode="&#xec;" horiz-adv-x="225" 
d="M150 483v-483h-75v483h75zM-8 700l148 -144h-57l-169 144h78z" />
    <glyph glyph-name="iacute" unicode="&#xed;" horiz-adv-x="225" 
d="M150 483v-483h-75v483h75zM229 700h78l-169 -144h-57z" />
    <glyph glyph-name="icircumflex" unicode="&#xee;" horiz-adv-x="225" 
d="M150 483v-483h-75v483h75zM32 556h-51l95 144h72l98 -144h-51l-83 106z" />
    <glyph glyph-name="idieresis" unicode="&#xef;" horiz-adv-x="225" 
d="M150 483v-483h-75v483h75zM-26 578q-13 13 -13 33q0 19 14 33t33 14q20 0 33 -13q14 -14 14 -33q0 -20 -13 -33t-33 -13q-19 0 -33 14zM178 577q-13 13 -13 33q0 19 14 33t33 14q20 0 33 -13q14 -14 14 -33q0 -20 -13 -33q-14 -14 -33 -14t-33 14z" />
    <glyph glyph-name="eth" unicode="&#xf0;" 
d="M525 246q0 -74 -30 -132q-30 -59 -84 -92t-126 -33q-70 0 -125 32q-54 31 -84 87q-30 55 -30 126q0 70 28 125q29 56 79 87q52 32 114 32q48 0 87 -21q40 -22 71 -67q-50 89 -160 171l-143 -64l-18 42l118 52l-75 48l41 62q61 -36 112 -75l108 47l17 -41l-85 -38
q185 -158 185 -347v-1zM371 77q35 23 55 65q19 39 19 89t-19 89q-20 42 -55 65q-36 24 -86 24t-86 -24q-35 -23 -55 -65q-19 -39 -19 -88q0 -50 19 -89q20 -41 56 -65t86 -24t86 24z" />
    <glyph glyph-name="ntilde" unicode="&#xf1;" horiz-adv-x="551" 
d="M402 317q0 62 -28 87q-29 26 -81 26q-43 0 -81 -22t-61 -54v-353h-75v483h75v-70q28 33 75 57q46 24 96 24q154 0 154 -156v-339h-75v316zM234 636q-9 9 -24 9q-21 0 -34 -21q-13 -20 -13 -64h-45q0 59 26 97q25 37 72 37q27 0 41 -13q15 -14 33 -39q15 -21 24 -30t24 -9
q21 0 35 21q14 22 14 65h45q0 -60 -25 -97t-72 -37q-26 0 -42 14q-15 13 -33 39l-12 17t-10 12z" />
    <glyph glyph-name="ograve" unicode="&#xf2;" 
d="M160 21q-54 34 -84 93q-30 58 -30 129q0 70 30 129t84 92t126 33t126 -33t84 -91q30 -59 30 -129q0 -71 -30 -129q-30 -59 -84 -93q-53 -34 -126 -34t-126 34v-1zM371 77q35 25 55 69q19 42 19 93t-19 92q-20 43 -55 68q-37 26 -86 26q-51 0 -86 -25t-55 -68
q-19 -41 -19 -92t19 -93q19 -43 56 -69q35 -25 86 -25q49 0 86 26zM165 696l148 -144h-57l-169 144h78z" />
    <glyph glyph-name="oacute" unicode="&#xf3;" 
d="M160 21q-54 34 -84 93q-30 58 -30 129q0 70 30 129t84 92t126 33t126 -33t84 -91q30 -59 30 -129q0 -71 -30 -129q-30 -59 -84 -93q-53 -34 -126 -34t-126 34v-1zM371 77q35 25 55 69q19 42 19 93t-19 92q-20 43 -55 68q-37 26 -86 26q-51 0 -86 -25t-55 -68
q-19 -41 -19 -92t19 -93q19 -43 56 -69q35 -25 86 -25q49 0 86 26zM402 696h78l-169 -144h-57z" />
    <glyph glyph-name="ocircumflex" unicode="&#xf4;" 
d="M160 21q-54 34 -84 93q-30 58 -30 129q0 70 30 129t84 92t126 33t126 -33t84 -91q30 -59 30 -129q0 -71 -30 -129q-30 -59 -84 -93q-53 -34 -126 -34t-126 34v-1zM371 77q35 25 55 69q19 42 19 93t-19 92q-20 43 -55 68q-37 26 -86 26q-51 0 -86 -25t-55 -68
q-19 -41 -19 -92t19 -93q19 -43 56 -69q35 -25 86 -25q49 0 86 26zM205 552h-51l95 144h72l98 -144h-51l-83 106z" />
    <glyph glyph-name="otilde" unicode="&#xf5;" 
d="M160 21q-54 34 -84 93q-30 58 -30 129q0 70 30 129t84 92t126 33t126 -33t84 -91q30 -59 30 -129q0 -71 -30 -129q-30 -59 -84 -93q-53 -34 -126 -34t-126 34v-1zM371 77q35 25 55 69q19 42 19 93t-19 92q-20 43 -55 68q-37 26 -86 26q-51 0 -86 -25t-55 -68
q-19 -41 -19 -92t19 -93q19 -43 56 -69q35 -25 86 -25q49 0 86 26zM242 632q-9 9 -24 9q-21 0 -34 -21q-13 -20 -13 -64h-45q0 59 26 97q25 37 72 37q27 0 41 -13q15 -14 33 -39q15 -21 24 -30t24 -9q21 0 35 21q14 22 14 65h45q0 -60 -25 -97t-72 -37q-26 0 -42 14
q-15 13 -33 39l-12 17t-10 12z" />
    <glyph glyph-name="odieresis" unicode="&#xf6;" 
d="M160 21q-54 34 -84 93q-30 58 -30 129q0 70 30 129t84 92t126 33t126 -33t84 -91q30 -59 30 -129q0 -71 -30 -129q-30 -59 -84 -93q-53 -34 -126 -34t-126 34v-1zM371 77q35 25 55 69q19 42 19 93t-19 92q-20 43 -55 68q-37 26 -86 26q-51 0 -86 -25t-55 -68
q-19 -41 -19 -92t19 -93q19 -43 56 -69q35 -25 86 -25q49 0 86 26zM147 574q-13 13 -13 33q0 19 14 33t33 14q20 0 33 -13q14 -14 14 -33q0 -20 -13 -33t-33 -13q-19 0 -33 14zM351 573q-13 13 -13 33q0 19 14 33t33 14q20 0 33 -13q14 -14 14 -33q0 -20 -13 -33
q-14 -14 -33 -14t-33 14z" />
    <glyph glyph-name="divide" unicode="&#xf7;" horiz-adv-x="511" 
d="M223 491q-13 13 -13 33t13 33q14 14 33 14q20 0 33 -13q14 -14 14 -33t-14 -33q-13 -13 -33 -13q-19 0 -33 14v-2zM482 360v-52h-453v52h453zM223 106q-13 13 -13 33t13 33q14 14 33 14q20 0 33 -13q14 -14 14 -33t-14 -33q-13 -13 -33 -13q-19 0 -33 14v-2z" />
    <glyph glyph-name="oslash" unicode="&#xf8;" 
d="M505 346q18 -48 18 -103q0 -71 -30 -129q-30 -59 -84 -93q-53 -34 -126 -34q-81 0 -142 45l-26 -33h-54l48 61q-32 34 -48 81q-16 45 -16 99q0 70 30 129t84 92t126 33q79 0 138 -41l23 29h54l-45 -56q34 -34 52 -82zM376 397q-39 30 -93 30q-51 0 -86 -25t-55 -68
q-19 -41 -19 -92q0 -70 35 -120zM369 77q35 25 55 69q19 42 19 93q0 73 -38 126l-220 -278q41 -34 98 -34q49 0 86 26v-2z" />
    <glyph glyph-name="ugrave" unicode="&#xf9;" horiz-adv-x="551" 
d="M401 68q-30 -35 -75 -57q-46 -23 -96 -23q-154 0 -154 154v341h75v-318q0 -60 27 -85q26 -25 80 -25q42 0 81 21q40 22 62 52v355h75v-483h-75v68zM155 700l148 -144h-57l-169 144h78z" />
    <glyph glyph-name="uacute" unicode="&#xfa;" horiz-adv-x="551" 
d="M401 68q-30 -35 -75 -57q-46 -23 -96 -23q-154 0 -154 154v341h75v-318q0 -60 27 -85q26 -25 80 -25q42 0 81 21q40 22 62 52v355h75v-483h-75v68zM392 700h78l-169 -144h-57z" />
    <glyph glyph-name="ucircumflex" unicode="&#xfb;" horiz-adv-x="551" 
d="M401 68q-30 -35 -75 -57q-46 -23 -96 -23q-154 0 -154 154v341h75v-318q0 -60 27 -85q26 -25 80 -25q42 0 81 21q40 22 62 52v355h75v-483h-75v68zM195 556h-51l95 144h72l98 -144h-51l-83 106z" />
    <glyph glyph-name="udieresis" unicode="&#xfc;" horiz-adv-x="551" 
d="M401 68q-30 -35 -75 -57q-46 -23 -96 -23q-154 0 -154 154v341h75v-318q0 -60 27 -85q26 -25 80 -25q42 0 81 21q40 22 62 52v355h75v-483h-75v68zM137 578q-13 13 -13 33q0 19 14 33t33 14q20 0 33 -13q14 -14 14 -33q0 -20 -13 -33t-33 -13q-19 0 -33 14zM341 577
q-13 13 -13 33q0 19 14 33t33 14q20 0 33 -13q14 -14 14 -33q0 -20 -13 -33q-14 -14 -33 -14t-33 14z" />
    <glyph glyph-name="yacute" unicode="&#xfd;" horiz-adv-x="490" 
d="M102 -128q25 0 42 11t29 39l32 73l-202 488h81l161 -396l160 396h82l-242 -581q-21 -52 -57 -74q-36 -23 -85 -24q-31 0 -55 7l12 68q19 -8 41 -8zM363 701h78l-169 -144h-57z" />
    <glyph glyph-name="thorn" unicode="&#xfe;" horiz-adv-x="574" 
d="M74 -186v851h75v-256q27 38 70 60q44 23 93 23q62 0 112 -30q49 -30 76 -87t27 -134t-27 -134t-76 -88t-112 -31q-50 0 -91 22q-43 23 -71 63v-257zM406 370q-42 52 -113 52q-44 0 -84 -22q-41 -23 -60 -54v-218q19 -32 60 -55q40 -22 84 -22q71 0 113 53q42 52 42 135
q0 82 -42 135v-4z" />
    <glyph glyph-name="ydieresis" unicode="&#xff;" horiz-adv-x="490" 
d="M102 -128q25 0 42 11t29 39l32 73l-202 488h81l161 -396l160 396h82l-242 -581q-21 -52 -57 -74q-36 -23 -85 -24q-31 0 -55 7l12 68q19 -8 41 -8zM108 579q-13 13 -13 33q0 19 14 33t33 14q20 0 33 -13q14 -14 14 -33q0 -20 -13 -33t-33 -13q-19 0 -33 14zM312 578
q-13 13 -13 33q0 19 14 33t33 14q20 0 33 -13q14 -14 14 -33q0 -20 -13 -33q-14 -14 -33 -14t-33 14z" />
    <glyph glyph-name="Amacron" unicode="&#x100;" horiz-adv-x="658" 
d="M160 148l-59 -148h-92l268 667h103l269 -667h-92l-59 148h-338zM473 222l-144 371l-145 -371h289zM482 787v-48h-307v48h307z" />
    <glyph glyph-name="amacron" unicode="&#x101;" horiz-adv-x="527" 
d="M376 57q-61 -67 -160 -67q-43 0 -82 18t-63 54t-24 86q0 51 24 87t63 54t82 18q103 0 160 -66v87q0 48 -34 75q-35 27 -88 27q-45 0 -80 -16q-37 -17 -68 -51l-35 52q39 40 87 60q49 20 107 20q83 0 135 -40t52 -123v-332h-75v55zM374 198q-22 29 -57 44q-36 15 -76 15
q-52 0 -85 -30t-33 -76t33 -76t86 -30q41 0 77 15q35 15 57 44v91zM416 625v-48h-307v48h307z" />
    <glyph glyph-name="Abreve" unicode="&#x102;" horiz-adv-x="658" 
d="M160 148l-59 -148h-92l268 667h103l269 -667h-92l-59 148h-338zM473 222l-144 371l-145 -371h289zM228 739q-46 24 -78 65l37 32q26 -35 61 -54t79 -19t79 19q36 19 60 54l37 -32q-31 -40 -76 -64t-98 -24t-99 24z" />
    <glyph glyph-name="abreve" unicode="&#x103;" horiz-adv-x="527" 
d="M376 57q-61 -67 -160 -67q-43 0 -82 18t-63 54t-24 86q0 51 24 87t63 54t82 18q103 0 160 -66v87q0 48 -34 75q-35 27 -88 27q-45 0 -80 -16q-37 -17 -68 -51l-35 52q39 40 87 60q49 20 107 20q83 0 135 -40t52 -123v-332h-75v55zM374 198q-22 29 -57 44q-36 15 -76 15
q-52 0 -85 -30t-33 -76t33 -76t86 -30q41 0 77 15q35 15 57 44v91zM162 577q-46 24 -78 65l37 32q26 -35 61 -54t79 -19t79 19q36 19 60 54l37 -32q-31 -40 -76 -64t-98 -24t-99 24z" />
    <glyph glyph-name="Aogonek" unicode="&#x104;" horiz-adv-x="658" 
d="M564 -44q-25 -24 -25 -51q0 -18 12 -28q11 -10 30 -10q17 0 32 9l20 -45q-28 -17 -68 -17t-69 20t-29 56q0 31 29 60t75 50h-14l-59 148h-338l-59 -148h-92l268 667h103l269 -667h-15q-45 -20 -69 -43zM328 592l-145 -371h289z" />
    <glyph glyph-name="aogonek" unicode="&#x105;" horiz-adv-x="527" 
d="M381 -42q-25 -24 -25 -51q0 -18 12 -28q11 -10 30 -10q17 0 32 9l20 -45q-28 -17 -68 -17t-69 20t-29 56q0 31 29 60t75 50h-12v55q-61 -67 -160 -67q-43 0 -82 18t-63 54t-24 86q0 51 24 87t63 54t82 18q103 0 160 -66v87q0 48 -34 75q-35 27 -88 27q-45 0 -80 -16
q-37 -17 -68 -51l-35 52q39 40 87 60q49 20 107 20q83 0 135 -40t52 -123v-332q-45 -20 -69 -43zM373 197q-22 29 -57 44q-36 15 -76 15q-52 0 -85 -30t-33 -76t33 -76t86 -30q41 0 77 15q35 15 57 44v91z" />
    <glyph glyph-name="Cacute" unicode="&#x106;" horiz-adv-x="676" 
d="M219 25q-78 43 -123 123q-45 79 -45 180q0 100 45 180q45 79 123 123q79 44 172 44q86 0 149 -36q64 -37 107 -97l-70 -39q-28 43 -78 70t-108 27q-71 0 -129 -34t-91 -96t-33 -140t33 -139t92 -96t129 -35q58 0 108 27q49 27 78 71l71 -39q-98 -132 -258 -132
q-93 0 -172 44v-6zM508 860h78l-169 -144h-57z" />
    <glyph glyph-name="cacute" unicode="&#x107;" horiz-adv-x="495" 
d="M76 374q30 58 84 91t125 33q63 0 104 -22t73 -63l-50 -46q-47 63 -123 63t-121 -52q-45 -53 -45 -135q0 -83 45 -135t122 -52q76 0 123 63l50 -46q-32 -41 -73 -63t-104 -22q-71 0 -125 33t-84 91t-30 130q0 70 30 129zM401 703h78l-169 -144h-57z" />
    <glyph glyph-name="Ccircumflex" unicode="&#x108;" horiz-adv-x="676" 
d="M219 25q-78 43 -123 123q-45 79 -45 180q0 100 45 180q45 79 123 123q79 44 172 44q86 0 149 -36q64 -37 107 -97l-70 -39q-28 43 -78 70t-108 27q-71 0 -129 -34t-91 -96t-33 -140t33 -139t92 -96t129 -35q58 0 108 27q49 27 78 71l71 -39q-98 -132 -258 -132
q-93 0 -172 44v-6zM311 716h-51l95 144h72l98 -144h-51l-83 106z" />
    <glyph glyph-name="ccircumflex" unicode="&#x109;" horiz-adv-x="495" 
d="M76 374q30 58 84 91t125 33q63 0 104 -22t73 -63l-50 -46q-47 63 -123 63t-121 -52q-45 -53 -45 -135q0 -83 45 -135t122 -52q76 0 123 63l50 -46q-32 -41 -73 -63t-104 -22q-71 0 -125 33t-84 91t-30 130q0 70 30 129zM204 559h-51l95 144h72l98 -144h-51l-83 106z" />
    <glyph glyph-name="Cdotaccent" unicode="&#x10a;" horiz-adv-x="676" 
d="M219 25q-78 43 -123 123q-45 79 -45 180q0 100 45 180q45 79 123 123q79 44 172 44q86 0 149 -36q64 -37 107 -97l-70 -39q-28 43 -78 70t-108 27q-71 0 -129 -34t-91 -96t-33 -140t33 -139t92 -96t129 -35q58 0 108 27q49 27 78 71l71 -39q-98 -132 -258 -132
q-93 0 -172 44v-6zM357 802q14 14 33 14q20 0 33 -13q14 -14 14 -33q0 -20 -13 -33t-33 -13q-19 0 -33 14t-14 33t14 33z" />
    <glyph glyph-name="cdotaccent" unicode="&#x10b;" horiz-adv-x="495" 
d="M76 374q30 58 84 91t125 33q63 0 104 -22t73 -63l-50 -46q-47 63 -123 63t-121 -52q-45 -53 -45 -135q0 -83 45 -135t122 -52q76 0 123 63l50 -46q-32 -41 -73 -63t-104 -22q-71 0 -125 33t-84 91t-30 130q0 70 30 129zM250 645q14 14 33 14q20 0 33 -13q14 -14 14 -33
q0 -20 -13 -33t-33 -13q-19 0 -33 14t-14 33t14 33z" />
    <glyph glyph-name="Ccaron" unicode="&#x10c;" horiz-adv-x="676" 
d="M219 25q-78 43 -123 123q-45 79 -45 180q0 100 45 180q45 79 123 123q79 44 172 44q86 0 149 -36q64 -37 107 -97l-70 -39q-28 43 -78 70t-108 27q-71 0 -129 -34t-91 -96t-33 -140t33 -139t92 -96t129 -35q58 0 108 27q49 27 78 71l71 -39q-98 -132 -258 -132
q-93 0 -172 44v-6zM308 860l83 -106l80 106h51l-95 -144h-72l-98 144h51z" />
    <glyph glyph-name="ccaron" unicode="&#x10d;" horiz-adv-x="495" 
d="M76 374q30 58 84 91t125 33q63 0 104 -22t73 -63l-50 -46q-47 63 -123 63t-121 -52q-45 -53 -45 -135q0 -83 45 -135t122 -52q76 0 123 63l50 -46q-32 -41 -73 -63t-104 -22q-71 0 -125 33t-84 91t-30 130q0 70 30 129zM201 703l83 -106l80 106h51l-95 -144h-72l-98 144
h51z" />
    <glyph glyph-name="Dcaron" unicode="&#x10e;" horiz-adv-x="700" 
d="M306 666q102 0 179 -43q78 -44 120 -120q42 -77 42 -171q0 -95 -42 -170q-42 -76 -120 -119q-77 -43 -179 -43h-228v667zM305 73q79 0 138 35t89 93t30 131t-30 132t-88 93q-59 35 -138 35h-145v-519h145h-1zM268 866l83 -106l80 106h51l-95 -144h-72l-98 144h51z" />
    <glyph glyph-name="dcaron" unicode="&#x10f;" horiz-adv-x="644" 
d="M426 72q-29 -38 -72 -60q-44 -23 -93 -23q-63 0 -111 30t-75 87t-27 134t27 134q28 58 76 89q50 32 112 32q49 0 90 -22q42 -23 72 -63v257h75v-667h-75v72h1zM426 350q-22 34 -61 56q-41 23 -84 23q-71 0 -113 -52q-42 -53 -42 -135q0 -83 42 -135t113 -52q44 0 84 22
t61 54v219zM545 505q22 15 39 39q16 24 18 47q-2 -2 -11 -2q-18 0 -30 12t-12 32q0 19 14 33t33 14q23 0 38 -18t15 -49q0 -38 -20 -75t-51 -59z" />
    <glyph glyph-name="Dcroat" unicode="&#x110;" horiz-adv-x="728" 
d="M513 622q78 -44 120 -120q42 -77 42 -171q0 -95 -42 -170q-42 -76 -120 -119q-77 -43 -179 -43h-228v298h-96v63h96v306h228q102 0 179 -43v-1zM470 107q59 35 89 93t30 131t-30 132t-88 93q-59 35 -138 35h-145v-232h170v-63h-170v-224h145q79 0 138 35h-1z" />
    <glyph glyph-name="dcroat" unicode="&#x111;" horiz-adv-x="577" 
d="M501 535v-535h-75v72q-29 -38 -72 -60q-44 -23 -93 -23q-63 0 -111 30t-75 87t-27 134t27 134q28 58 76 89q50 32 112 32q49 0 90 -22q42 -23 72 -63v125h-157v48h157v84h75v-84h68v-48h-67zM426 350q-22 34 -61 56q-41 23 -84 23q-71 0 -113 -52q-42 -53 -42 -135
q0 -83 42 -135t113 -52q44 0 84 22t61 54v219z" />
    <glyph glyph-name="Emacron" unicode="&#x112;" horiz-adv-x="569" 
d="M515 667v-74h-354v-215h347v-74h-347v-230h354v-74h-437v667h437zM455 787v-48h-307v48h307z" />
    <glyph glyph-name="emacron" unicode="&#x113;" horiz-adv-x="563" 
d="M77 368q32 59 85 93t122 34q71 0 123 -34q52 -35 81 -93q28 -57 28 -132v-19h-391q5 -71 51 -119t122 -48q43 0 81 16q40 17 68 45l36 -49q-74 -74 -192 -74q-70 0 -126 32q-56 31 -87 90q-31 58 -31 132q0 69 31 127zM200 408q-36 -25 -53 -61q-19 -39 -20 -76h317
q-2 40 -19 76q-18 37 -54 61t-88 24q-50 0 -84 -24h1zM437 619v-48h-307v48h307z" />
    <glyph glyph-name="Ebreve" unicode="&#x114;" horiz-adv-x="569" 
d="M515 667v-74h-354v-215h347v-74h-347v-230h354v-74h-437v667h437zM201 739q-46 24 -78 65l37 32q26 -35 61 -54t79 -19t79 19q36 19 60 54l37 -32q-31 -40 -76 -64t-98 -24t-99 24z" />
    <glyph glyph-name="ebreve" unicode="&#x115;" horiz-adv-x="563" 
d="M77 368q32 59 85 93t122 34q71 0 123 -34q52 -35 81 -93q28 -57 28 -132v-19h-391q5 -71 51 -119t122 -48q43 0 81 16q40 17 68 45l36 -49q-74 -74 -192 -74q-70 0 -126 32q-56 31 -87 90q-31 58 -31 132q0 69 31 127zM200 408q-36 -25 -53 -61q-19 -39 -20 -76h317
q-2 40 -19 76q-18 37 -54 61t-88 24q-50 0 -84 -24h1zM183 571q-46 24 -78 65l37 32q26 -35 61 -54t79 -19t79 19q36 19 60 54l37 -32q-31 -40 -76 -64t-98 -24t-99 24z" />
    <glyph glyph-name="Edotaccent" unicode="&#x116;" horiz-adv-x="569" 
d="M515 667v-74h-354v-215h347v-74h-347v-230h354v-74h-437v667h437zM268 809q14 14 33 14q20 0 33 -13q14 -14 14 -33q0 -20 -13 -33t-33 -13q-19 0 -33 14t-14 33t14 33z" />
    <glyph glyph-name="edotaccent" unicode="&#x117;" horiz-adv-x="563" 
d="M77 368q32 59 85 93t122 34q71 0 123 -34q52 -35 81 -93q28 -57 28 -132v-19h-391q5 -71 51 -119t122 -48q43 0 81 16q40 17 68 45l36 -49q-74 -74 -192 -74q-70 0 -126 32q-56 31 -87 90q-31 58 -31 132q0 69 31 127zM200 408q-36 -25 -53 -61q-19 -39 -20 -76h317
q-2 40 -19 76q-18 37 -54 61t-88 24q-50 0 -84 -24h1zM250 641q14 14 33 14q20 0 33 -13q14 -14 14 -33q0 -20 -13 -33t-33 -13q-19 0 -33 14t-14 33t14 33z" />
    <glyph glyph-name="Eogonek" unicode="&#x118;" horiz-adv-x="569" 
d="M160 377h347v-74h-347v-230h354v-74q-45 -20 -69 -43q-25 -24 -25 -51q0 -18 12 -28q11 -10 30 -10q17 0 32 9l20 -45q-28 -17 -68 -17t-69 20t-29 56q0 31 29 60t75 50h-374v667h437v-74h-354z" />
    <glyph glyph-name="eogonek" unicode="&#x119;" horiz-adv-x="563" 
d="M166 20q-56 31 -87 90q-31 58 -31 132q0 69 31 127q32 59 85 93t122 34q71 0 123 -34q52 -35 81 -93q28 -57 28 -132v-19h-391q5 -71 51 -119t122 -48q43 0 81 16q40 17 68 45l36 -49q-56 -47 -84 -84t-28 -67q0 -21 12 -33t31 -12q18 0 33 9l20 -45q-28 -17 -68 -17
t-69 20t-29 56q0 28 21 57q22 30 54 53q-39 -12 -86 -12q-70 0 -126 32zM201 409q-36 -25 -53 -61q-19 -39 -20 -76h317q-2 40 -19 76q-18 37 -54 61t-88 24q-50 0 -84 -24h1z" />
    <glyph glyph-name="Ecaron" unicode="&#x11a;" horiz-adv-x="569" 
d="M515 667v-74h-354v-215h347v-74h-347v-230h354v-74h-437v667h437zM219 867l83 -106l80 106h51l-95 -144h-72l-98 144h51z" />
    <glyph glyph-name="ecaron" unicode="&#x11b;" horiz-adv-x="563" 
d="M77 368q32 59 85 93t122 34q71 0 123 -34q52 -35 81 -93q28 -57 28 -132v-19h-391q5 -71 51 -119t122 -48q43 0 81 16q40 17 68 45l36 -49q-74 -74 -192 -74q-70 0 -126 32q-56 31 -87 90q-31 58 -31 132q0 69 31 127zM200 408q-36 -25 -53 -61q-19 -39 -20 -76h317
q-2 40 -19 76q-18 37 -54 61t-88 24q-50 0 -84 -24h1zM201 699l83 -106l80 106h51l-95 -144h-72l-98 144h51z" />
    <glyph glyph-name="Gcircumflex" unicode="&#x11c;" horiz-adv-x="713" 
d="M95 509q45 79 123 122q79 44 173 44q157 0 258 -125l-66 -41q-31 41 -83 67q-50 25 -109 25q-73 0 -131 -34q-59 -35 -92 -96q-33 -62 -33 -140q0 -79 33 -140t92 -96t131 -35q55 0 103 21t77 50v136h-229v74h312v-241q-48 -54 -115 -84q-68 -30 -147 -30q-94 0 -173 44
q-78 43 -123 123q-45 79 -45 180t45 179zM311 719h-51l95 144h72l98 -144h-51l-83 106z" />
    <glyph glyph-name="gcircumflex" unicode="&#x11d;" horiz-adv-x="574" 
d="M112 -70q29 -35 66 -50t90 -15q67 0 111 36t44 110v69q-28 -39 -70 -62q-44 -24 -93 -24q-63 0 -111 30t-75 87t-27 134q0 76 27 133t76 87t112 30q49 0 90 -22q42 -23 72 -63v73h75v-469q0 -110 -65 -160q-64 -49 -165 -49q-64 0 -109 15t-86 56l38 56v-2zM425 346
q-20 34 -60 56q-41 23 -84 23q-72 0 -114 -51t-42 -133q0 -81 42 -132t113 -51q43 0 84 23q40 22 60 56v211zM211 552h-51l95 144h72l98 -144h-51l-83 106z" />
    <glyph glyph-name="Gbreve" unicode="&#x11e;" horiz-adv-x="713" 
d="M95 509q45 79 123 122q79 44 173 44q157 0 258 -125l-66 -41q-31 41 -83 67q-50 25 -109 25q-73 0 -131 -34q-59 -35 -92 -96q-33 -62 -33 -140q0 -79 33 -140t92 -96t131 -35q55 0 103 21t77 50v136h-229v74h312v-241q-48 -54 -115 -84q-68 -30 -147 -30q-94 0 -173 44
q-78 43 -123 123q-45 79 -45 180t45 179zM290 736q-46 24 -78 65l37 32q26 -35 61 -54t79 -19t79 19q36 19 60 54l37 -32q-31 -40 -76 -64t-98 -24t-99 24z" />
    <glyph glyph-name="gbreve" unicode="&#x11f;" horiz-adv-x="574" 
d="M112 -70q29 -35 66 -50t90 -15q67 0 111 36t44 110v69q-28 -39 -70 -62q-44 -24 -93 -24q-63 0 -111 30t-75 87t-27 134q0 76 27 133t76 87t112 30q49 0 90 -22q42 -23 72 -63v73h75v-469q0 -110 -65 -160q-64 -49 -165 -49q-64 0 -109 15t-86 56l38 56v-2zM425 346
q-20 34 -60 56q-41 23 -84 23q-72 0 -114 -51t-42 -133q0 -81 42 -132t113 -51q43 0 84 23q40 22 60 56v211zM190 568q-46 24 -78 65l37 32q26 -35 61 -54t79 -19t79 19q36 19 60 54l37 -32q-31 -40 -76 -64t-98 -24t-99 24z" />
    <glyph glyph-name="Gdotaccent" unicode="&#x120;" horiz-adv-x="713" 
d="M95 509q45 79 123 122q79 44 173 44q157 0 258 -125l-66 -41q-31 41 -83 67q-50 25 -109 25q-73 0 -131 -34q-59 -35 -92 -96q-33 -62 -33 -140q0 -79 33 -140t92 -96t131 -35q55 0 103 21t77 50v136h-229v74h312v-241q-48 -54 -115 -84q-68 -30 -147 -30q-94 0 -173 44
q-78 43 -123 123q-45 79 -45 180t45 179zM357 805q14 14 33 14q20 0 33 -13q14 -14 14 -33q0 -20 -13 -33t-33 -13q-19 0 -33 14t-14 33t14 33z" />
    <glyph glyph-name="gdotaccent" unicode="&#x121;" horiz-adv-x="574" 
d="M112 -70q29 -35 66 -50t90 -15q67 0 111 36t44 110v69q-28 -39 -70 -62q-44 -24 -93 -24q-63 0 -111 30t-75 87t-27 134q0 76 27 133t76 87t112 30q49 0 90 -22q42 -23 72 -63v73h75v-469q0 -110 -65 -160q-64 -49 -165 -49q-64 0 -109 15t-86 56l38 56v-2zM425 346
q-20 34 -60 56q-41 23 -84 23q-72 0 -114 -51t-42 -133q0 -81 42 -132t113 -51q43 0 84 23q40 22 60 56v211zM257 638q14 14 33 14q20 0 33 -13q14 -14 14 -33q0 -20 -13 -33t-33 -13q-19 0 -33 14t-14 33t14 33z" />
    <glyph glyph-name="uni0122" unicode="&#x122;" horiz-adv-x="713" 
d="M95 509q45 79 123 122q79 44 173 44q157 0 258 -125l-66 -41q-31 41 -83 67q-50 25 -109 25q-73 0 -131 -34q-59 -35 -92 -96q-33 -62 -33 -140q0 -79 33 -140t92 -96t131 -35q55 0 103 21t77 50v136h-229v74h312v-241q-48 -54 -115 -84q-68 -30 -147 -30q-94 0 -173 44
q-78 43 -123 123q-45 79 -45 180t45 179zM341 -250q22 15 39 39q16 24 18 47q-2 -2 -11 -2q-18 0 -30 12t-12 32q0 19 14 33t33 14q23 0 38 -18t15 -49q0 -38 -20 -75t-51 -59z" />
    <glyph glyph-name="uni0123" unicode="&#x123;" horiz-adv-x="574" 
d="M338 734q-23 -15 -39 -39q-17 -24 -18 -46l2 1h3q18 0 32 -13q15 -14 15 -31q0 -18 -14 -32t-33 -14t-34 15t-15 44q0 42 20 82q19 38 50 60l33 -27h-2zM110 -70q29 -35 66 -50t90 -15q67 0 111 36t44 110v69q-28 -39 -70 -62q-44 -24 -93 -24q-63 0 -111 30t-75 87
t-27 134q0 76 27 133t76 87t112 30q49 0 90 -22q42 -23 72 -63v73h75v-469q0 -110 -65 -160q-64 -49 -165 -49q-64 0 -109 15t-86 56l38 56v-2zM423 346q-20 34 -60 56q-41 23 -84 23q-72 0 -114 -51t-42 -133q0 -81 42 -132t113 -51q43 0 84 23q40 22 60 56v211z" />
    <glyph glyph-name="Hcircumflex" unicode="&#x124;" horiz-adv-x="712" 
d="M161 306v-306h-83v667h83v-287h390v287h83v-667h-83v306h-390zM276 723h-51l95 144h72l98 -144h-51l-83 106z" />
    <glyph glyph-name="hcircumflex" unicode="&#x125;" horiz-adv-x="552" 
d="M401 320q0 60 -28 85t-81 25q-42 0 -80 -22q-40 -23 -62 -54v-353h-75v667h75v-254q28 33 75 57q46 24 98 24q154 0 154 -154v-341h-75v318zM195 725h-51l95 144h72l98 -144h-51l-83 106z" />
    <glyph glyph-name="Hbar" unicode="&#x126;" horiz-adv-x="731" 
d="M644 498v-498h-83v306h-390v-306h-83v498h-78v48h78v121h83v-121h390v121h83v-121h79v-48h-79zM171 498v-118h390v118h-390z" />
    <glyph glyph-name="hbar" unicode="&#x127;" horiz-adv-x="554" 
d="M478 2h-75v318q0 60 -28 85t-81 25q-42 0 -80 -22q-40 -23 -62 -54v-353h-75v535h-68v48h68v84h75v-84h157v-48h-157v-122q28 33 75 57q46 24 98 24q154 0 154 -154z" />
    <glyph glyph-name="Itilde" unicode="&#x128;" horiz-adv-x="239" 
d="M161 667v-667h-83v667h83zM77 802q-9 9 -24 9q-21 0 -34 -21q-13 -20 -13 -64h-45q0 59 26 97q25 37 72 37q27 0 41 -13q15 -14 33 -39q15 -21 24 -30t24 -9q21 0 35 21q14 22 14 65h45q0 -60 -25 -97t-72 -37q-26 0 -42 14q-15 13 -33 39l-12 17t-10 12z" />
    <glyph glyph-name="itilde" unicode="&#x129;" horiz-adv-x="225" 
d="M150 483v-483h-75v483h75zM69 635q-9 9 -24 9q-21 0 -34 -21q-13 -20 -13 -64h-45q0 59 26 97q25 37 72 37q27 0 41 -13q15 -14 33 -39q15 -21 24 -30t24 -9q21 0 35 21q14 22 14 65h45q0 -60 -25 -97t-72 -37q-26 0 -42 14q-15 13 -33 39l-12 17t-10 12z" />
    <glyph glyph-name="Imacron" unicode="&#x12a;" horiz-adv-x="239" 
d="M161 667v-667h-83v667h83zM273 787v-48h-307v48h307z" />
    <glyph glyph-name="imacron" unicode="&#x12b;" horiz-adv-x="225" 
d="M150 483v-483h-75v483h75zM265 620v-48h-307v48h307z" />
    <glyph glyph-name="Ibreve" unicode="&#x12c;" horiz-adv-x="239" 
d="M161 667v-667h-83v667h83zM19 739q-46 24 -78 65l37 32q26 -35 61 -54t79 -19t79 19q36 19 60 54l37 -32q-31 -40 -76 -64t-98 -24t-99 24z" />
    <glyph glyph-name="ibreve" unicode="&#x12d;" horiz-adv-x="225" 
d="M150 483v-483h-75v483h75zM11 572q-46 24 -78 65l37 32q26 -35 61 -54t79 -19t79 19q36 19 60 54l37 -32q-31 -40 -76 -64t-98 -24t-99 24z" />
    <glyph glyph-name="Iogonek" unicode="&#x12e;" horiz-adv-x="239" 
d="M91 -44q-25 -24 -25 -51q0 -18 12 -28q11 -10 30 -10q17 0 32 9l20 -45q-28 -17 -68 -17t-69 20t-29 56q0 31 29 60t75 50h-20v667h83v-667q-45 -20 -69 -43z" />
    <glyph glyph-name="iogonek" unicode="&#x12f;" horiz-adv-x="225" 
d="M77 575q-15 15 -15 36t15 36t35 15q21 0 36 -15t15 -36t-15 -36t-36 -15q-20 0 -35 15zM149 481v-483q-45 -20 -69 -43q-25 -24 -25 -51q0 -18 12 -28q11 -10 30 -10q17 0 32 9l20 -45q-28 -17 -68 -17t-69 20t-29 56q0 31 29 60t75 50h-12v483z" />
    <glyph glyph-name="Idotaccent" unicode="&#x130;" horiz-adv-x="239" 
d="M161 667v-667h-83v667h83zM86 809q14 14 33 14q20 0 33 -13q14 -14 14 -33q0 -20 -13 -33t-33 -13q-19 0 -33 14t-14 33t14 33z" />
    <glyph glyph-name="dotlessi" unicode="&#x131;" horiz-adv-x="225" 
d="M150 483v-483h-75v483h75z" />
    <glyph glyph-name="IJ" unicode="&#x132;" horiz-adv-x="714" 
d="M161 667v-667h-83v667h83zM294 126q55 -66 126 -66q62 0 98 39t36 102v465h83v-466q0 -104 -59 -158t-153 -54q-54 0 -97 18t-78 59l43 63z" />
    <glyph glyph-name="ij" unicode="&#x133;" horiz-adv-x="450" 
d="M77 575q-15 15 -15 36t15 36t35 15q21 0 36 -15t15 -36t-15 -36t-36 -15q-20 0 -35 15zM150 482v-483h-75v483h75zM302 574q-15 15 -15 36t15 36t35 15q21 0 36 -15t15 -36t-15 -36t-36 -15q-20 0 -35 15zM375 -49q0 -72 -37 -110q-38 -39 -105 -39q-33 0 -54 7l10 63
q13 -5 36 -5q75 0 75 84v530h75v-530z" />
    <glyph glyph-name="Jcircumflex" unicode="&#x134;" horiz-adv-x="475" 
d="M55 126q55 -66 126 -66q62 0 98 39t36 102v465h83v-466q0 -104 -59 -158t-153 -54q-54 0 -97 18t-78 59l43 63zM278 721h-51l95 144h72l98 -144h-51l-83 106z" />
    <glyph glyph-name="jcircumflex" unicode="&#x135;" horiz-adv-x="225" 
d="M-36 -126q13 -5 36 -5q75 0 75 84v530h75v-530q0 -72 -37 -110q-38 -39 -105 -39q-33 0 -54 7zM32 556h-51l95 144h72l98 -144h-51l-83 106z" />
    <glyph glyph-name="uni0136" unicode="&#x136;" horiz-adv-x="601" 
d="M161 224v-224h-83v667h83v-345l295 345h104l-278 -317l302 -350h-103l-253 300zM259 -246q22 15 39 39q16 24 18 47q-2 -2 -11 -2q-18 0 -30 12t-12 32q0 19 14 33t33 14q23 0 38 -18t15 -49q0 -38 -20 -75t-51 -59z" />
    <glyph glyph-name="uni0137" unicode="&#x137;" horiz-adv-x="514" 
d="M150 138v-138h-75v667h75v-441l254 257h95l-214 -219l215 -264h-96l-174 217zM210 -246q22 15 39 39q16 24 18 47q-2 -2 -11 -2q-18 0 -30 12t-12 32q0 19 14 33t33 14q23 0 38 -18t15 -49q0 -38 -20 -75t-51 -59z" />
    <glyph glyph-name="kgreenlandic" unicode="&#x138;" horiz-adv-x="514" 
d="M150 138v-138h-75v483h75v-257l254 257h95l-214 -219l215 -264h-96l-174 217z" />
    <glyph glyph-name="Lacute" unicode="&#x139;" horiz-adv-x="510" 
d="M161 667v-593h310v-74h-393v667h83zM392 867h78l-169 -144h-57z" />
    <glyph glyph-name="lacute" unicode="&#x13a;" horiz-adv-x="225" 
d="M150 667v-667h-75v667h75zM229 867h78l-169 -144h-57z" />
    <glyph glyph-name="uni013B" unicode="&#x13b;" horiz-adv-x="510" 
d="M161 667v-593h310v-74h-393v667h83zM224 -246q22 15 39 39q16 24 18 47q-2 -2 -11 -2q-18 0 -30 12t-12 32q0 19 14 33t33 14q23 0 38 -18t15 -49q0 -38 -20 -75t-51 -59z" />
    <glyph glyph-name="uni013C" unicode="&#x13c;" horiz-adv-x="225" 
d="M150 667v-667h-75v667h75zM61 -246q22 15 39 39q16 24 18 47q-2 -2 -11 -2q-18 0 -30 12t-12 32q0 19 14 33t33 14q23 0 38 -18t15 -49q0 -38 -20 -75t-51 -59z" />
    <glyph glyph-name="Lcaron" unicode="&#x13d;" horiz-adv-x="510" 
d="M161 667v-593h310v-74h-393v667h83zM250 505q22 15 39 39q16 24 18 47q-2 -2 -11 -2q-18 0 -30 12t-12 32q0 19 14 33t33 14q23 0 38 -18t15 -49q0 -38 -20 -75t-51 -59z" />
    <glyph glyph-name="lcaron" unicode="&#x13e;" horiz-adv-x="291" 
d="M150 667v-667h-75v667h75zM194 505q22 15 39 39q16 24 18 47q-2 -2 -11 -2q-18 0 -30 12t-12 32q0 19 14 33t33 14q23 0 38 -18t15 -49q0 -38 -20 -75t-51 -59z" />
    <glyph glyph-name="Ldot" unicode="&#x13f;" horiz-adv-x="510" 
d="M161 667v-593h310v-74h-393v667h83zM329 303q-16 16 -16 39q0 22 17 39q16 16 39 16t39 -16t16 -39t-16 -39t-39 -16t-39 16h-1z" />
    <glyph glyph-name="ldot" unicode="&#x140;" horiz-adv-x="307" 
d="M150 667v-667h-75v667h75zM226 206q-16 16 -16 39q0 22 17 39q16 16 39 16t39 -16t16 -39t-16 -39t-39 -16t-39 16h-1z" />
    <glyph glyph-name="Lslash" unicode="&#x141;" horiz-adv-x="529" 
d="M490 0h-393v271l-87 -50v72l87 50v324h83v-276l97 56v-72l-97 -56v-245h310v-74z" />
    <glyph glyph-name="lslash" unicode="&#x142;" horiz-adv-x="287" 
d="M181 326v-326h-75v283l-96 -55v60l96 55v324h75v-281l95 54v-60z" />
    <glyph glyph-name="Nacute" unicode="&#x143;" horiz-adv-x="708" 
d="M161 0h-83v667h85l384 -527v527h83v-667h-80l-389 538v-538zM471 867h78l-169 -144h-57z" />
    <glyph glyph-name="nacute" unicode="&#x144;" horiz-adv-x="551" 
d="M402 317q0 62 -28 87q-29 26 -81 26q-43 0 -81 -22t-61 -54v-353h-75v483h75v-70q28 33 75 57q46 24 96 24q154 0 154 -156v-339h-75v316zM394 701h78l-169 -144h-57z" />
    <glyph glyph-name="uni0145" unicode="&#x145;" horiz-adv-x="708" 
d="M161 0h-83v667h85l384 -527v527h83v-667h-80l-389 538v-538zM298 -246q22 15 39 39q16 24 18 47q-2 -2 -11 -2q-18 0 -30 12t-12 32q0 19 14 33t33 14q23 0 38 -18t15 -49q0 -38 -20 -75t-51 -59z" />
    <glyph glyph-name="uni0146" unicode="&#x146;" horiz-adv-x="551" 
d="M402 317q0 62 -28 87q-29 26 -81 26q-43 0 -81 -22t-61 -54v-353h-75v483h75v-70q28 33 75 57q46 24 96 24q154 0 154 -156v-339h-75v316zM226 -245q22 15 39 39q16 24 18 47q-2 -2 -11 -2q-18 0 -30 12t-12 32q0 19 14 33t33 14q23 0 38 -18t15 -49q0 -38 -20 -75
t-51 -59z" />
    <glyph glyph-name="Ncaron" unicode="&#x147;" horiz-adv-x="708" 
d="M161 0h-83v667h85l384 -527v527h83v-667h-80l-389 538v-538zM271 867l83 -106l80 106h51l-95 -144h-72l-98 144h51z" />
    <glyph glyph-name="ncaron" unicode="&#x148;" horiz-adv-x="551" 
d="M402 317q0 62 -28 87q-29 26 -81 26q-43 0 -81 -22t-61 -54v-353h-75v483h75v-70q28 33 75 57q46 24 96 24q154 0 154 -156v-339h-75v316zM194 701l83 -106l80 106h51l-95 -144h-72l-98 144h51z" />
    <glyph glyph-name="napostrophe" unicode="&#x149;" horiz-adv-x="551" 
d="M402 317q0 62 -28 87q-29 26 -81 26q-43 0 -81 -22t-61 -54v-353h-75v483h75v-70q28 33 75 57q46 24 96 24q154 0 154 -156v-339h-75v316zM58 569q22 15 39 39q16 24 18 47q-2 -2 -11 -2q-18 0 -30 12t-12 32q0 19 14 33t33 14q23 0 38 -18t15 -49q0 -38 -20 -75t-51 -59
z" />
    <glyph glyph-name="Eng" unicode="&#x14a;" horiz-adv-x="708" 
d="M630 14q0 -103 -59 -157t-153 -54q-108 0 -174 77l44 63q52 -66 125 -66q57 0 94 35q35 34 40 92l-386 534v-538h-83v667h85l384 -527v527h83v-653z" />
    <glyph glyph-name="eng" unicode="&#x14b;" horiz-adv-x="551" 
d="M440 -156q-38 -39 -105 -39q-33 0 -54 7l10 63q15 -5 36 -5q75 0 75 84v363q0 62 -28 87q-29 26 -81 26q-43 0 -81 -22t-61 -54v-353h-75v483h75v-70q28 33 75 57q46 24 96 24q154 0 154 -156v-386q0 -72 -37 -110z" />
    <glyph glyph-name="Omacron" unicode="&#x14c;" horiz-adv-x="765" 
d="M91 509q42 78 117 123t173 45q97 0 172 -45t117 -123t42 -176t-42 -176t-117 -123t-172 -45t-172 45t-117 123t-42 176t42 176h-1zM594 471q-30 61 -86 96t-129 35t-129 -35q-55 -34 -85 -96t-30 -139t30 -138t86 -96t129 -35t129 35t86 96t30 138q0 78 -30 140zM531 785
v-48h-307v48h307z" />
    <glyph glyph-name="omacron" unicode="&#x14d;" 
d="M160 21q-54 34 -84 93q-30 58 -30 129q0 70 30 129t84 92t126 33t126 -33t84 -91q30 -59 30 -129q0 -71 -30 -129q-30 -59 -84 -93q-53 -34 -126 -34t-126 34v-1zM371 77q35 25 55 69q19 42 19 93t-19 92q-20 43 -55 68q-37 26 -86 26q-51 0 -86 -25t-55 -68
q-19 -41 -19 -92t19 -93q19 -43 56 -69q35 -25 86 -25q49 0 86 26zM438 616v-48h-307v48h307z" />
    <glyph glyph-name="Obreve" unicode="&#x14e;" horiz-adv-x="765" 
d="M91 509q42 78 117 123t173 45q97 0 172 -45t117 -123t42 -176t-42 -176t-117 -123t-172 -45t-172 45t-117 123t-42 176t42 176h-1zM594 471q-30 61 -86 96t-129 35t-129 -35q-55 -34 -85 -96t-30 -139t30 -138t86 -96t129 -35t129 35t86 96t30 138q0 78 -30 140zM277 738
q-46 24 -78 65l37 32q26 -35 61 -54t79 -19t79 19q36 19 60 54l37 -32q-31 -40 -76 -64t-98 -24t-99 24z" />
    <glyph glyph-name="obreve" unicode="&#x14f;" 
d="M160 21q-54 34 -84 93q-30 58 -30 129q0 70 30 129t84 92t126 33t126 -33t84 -91q30 -59 30 -129q0 -71 -30 -129q-30 -59 -84 -93q-53 -34 -126 -34t-126 34v-1zM371 77q35 25 55 69q19 42 19 93t-19 92q-20 43 -55 68q-37 26 -86 26q-51 0 -86 -25t-55 -68
q-19 -41 -19 -92t19 -93q19 -43 56 -69q35 -25 86 -25q49 0 86 26zM184 569q-46 24 -78 65l37 32q26 -35 61 -54t79 -19t79 19q36 19 60 54l37 -32q-31 -40 -76 -64t-98 -24t-99 24z" />
    <glyph glyph-name="Ohungarumlaut" unicode="&#x150;" horiz-adv-x="765" 
d="M91 509q42 78 117 123t173 45q97 0 172 -45t117 -123t42 -176t-42 -176t-117 -123t-172 -45t-172 45t-117 123t-42 176t42 176h-1zM594 471q-30 61 -86 96t-129 35t-129 -35q-55 -34 -85 -96t-30 -139t30 -138t86 -96t129 -35t129 35t86 96t30 138q0 78 -30 140zM373 865
h69l-115 -144h-48zM515 865h69l-115 -144h-48z" />
    <glyph glyph-name="ohungarumlaut" unicode="&#x151;" 
d="M160 21q-54 34 -84 93q-30 58 -30 129q0 70 30 129t84 92t126 33t126 -33t84 -91q30 -59 30 -129q0 -71 -30 -129q-30 -59 -84 -93q-53 -34 -126 -34t-126 34v-1zM371 77q35 25 55 69q19 42 19 93t-19 92q-20 43 -55 68q-37 26 -86 26q-51 0 -86 -25t-55 -68
q-19 -41 -19 -92t19 -93q19 -43 56 -69q35 -25 86 -25q49 0 86 26zM280 696h69l-115 -144h-48zM422 696h69l-115 -144h-48z" />
    <glyph glyph-name="OE" unicode="&#x152;" horiz-adv-x="1105" 
d="M611 120q-36 -63 -100 -97t-138 -34q-95 0 -168 45q-74 45 -114 123q-40 77 -40 176q0 97 41 176q40 78 114 123q73 45 168 45q74 0 138 -34q66 -35 101 -97v121h438v-74h-355v-215h348v-74h-348v-230h355v-74h-438v120h-2zM520 559q-61 41 -139 41q-76 0 -131 -34
q-56 -35 -86 -96q-30 -62 -30 -139q0 -78 30 -139t86 -96t131 -35q80 0 140 42q61 42 89 120v220q-29 78 -89 119z" />
    <glyph glyph-name="oe" unicode="&#x153;" horiz-adv-x="962" 
d="M577 93q46 -48 122 -48q43 0 81 16q40 17 68 45l36 -49q-77 -74 -192 -74q-83 0 -132 42q-50 42 -75 97q-25 -55 -72 -97t-126 -42q-73 0 -126 34q-54 34 -84 93q-30 58 -30 129q0 70 30 129t84 92t126 33q80 0 128 -42t71 -95q22 52 72 96q49 43 126 43q71 0 123 -34
q52 -35 81 -93q28 -57 28 -132v-19h-390q5 -71 51 -119v-5zM823 343q-18 37 -54 61t-88 24q-50 0 -84 -24q-36 -25 -53 -61q-19 -39 -20 -76h318q-2 40 -19 76zM195 395q-37 -26 -56 -67t-19 -93q0 -51 20 -94q20 -42 56 -68q35 -25 86 -25q49 0 86 26q36 26 56 68
q19 41 19 95q0 52 -19 93q-20 43 -55 68t-85 25t-85 -25z" />
    <glyph glyph-name="Racute" unicode="&#x154;" horiz-adv-x="608" 
d="M159 264v-265h-83v667h268q61 0 109 -24t75 -70q27 -47 27 -106q0 -58 -24 -100t-63 -66q-38 -23 -86 -28l180 -272h-98l-170 265zM430 555q-38 36 -96 36h-175v-255h175q58 0 96 36q37 36 37 92t-37 92v-1zM421 864h78l-169 -144h-57z" />
    <glyph glyph-name="racute" unicode="&#x155;" horiz-adv-x="330" 
d="M150 483v-78q31 40 73 64t89 24v-77q-14 3 -30 3q-35 0 -75 -24t-57 -53v-342h-75v483h75zM308 700h78l-169 -144h-57z" />
    <glyph glyph-name="uni0156" unicode="&#x156;" horiz-adv-x="608" 
d="M159 264v-265h-83v667h268q61 0 109 -24t75 -70q27 -47 27 -106q0 -58 -24 -100t-63 -66q-38 -23 -86 -28l180 -272h-98l-170 265zM430 555q-38 36 -96 36h-175v-255h175q58 0 96 36q37 36 37 92t-37 92v-1zM253 -249q22 15 39 39q16 24 18 47q-2 -2 -11 -2q-18 0 -30 12
t-12 32q0 19 14 33t33 14q23 0 38 -18t15 -49q0 -38 -20 -75t-51 -59z" />
    <glyph glyph-name="uni0157" unicode="&#x157;" horiz-adv-x="330" 
d="M150 483v-78q31 40 73 64t89 24v-77q-14 3 -30 3q-35 0 -75 -24t-57 -53v-342h-75v483h75zM63 -246q22 15 39 39q16 24 18 47q-2 -2 -11 -2q-18 0 -30 12t-12 32q0 19 14 33t33 14q23 0 38 -18t15 -49q0 -38 -20 -75t-51 -59z" />
    <glyph glyph-name="Rcaron" unicode="&#x158;" horiz-adv-x="608" 
d="M159 264v-265h-83v667h268q61 0 109 -24t75 -70q27 -47 27 -106q0 -58 -24 -100t-63 -66q-38 -23 -86 -28l180 -272h-98l-170 265zM430 555q-38 36 -96 36h-175v-255h175q58 0 96 36q37 36 37 92t-37 92v-1zM221 864l83 -106l80 106h51l-95 -144h-72l-98 144h51z" />
    <glyph glyph-name="rcaron" unicode="&#x159;" horiz-adv-x="330" 
d="M150 483v-78q31 40 73 64t89 24v-77q-14 3 -30 3q-35 0 -75 -24t-57 -53v-342h-75v483h75zM108 700l83 -106l80 106h51l-95 -144h-72l-98 144h51z" />
    <glyph glyph-name="Sacute" unicode="&#x15a;" horiz-adv-x="586" 
d="M86 153q39 -42 91 -68q54 -27 119 -27q81 0 119 35t38 81q0 38 -22 61q-22 24 -55 37q-34 14 -91 30q-37 10 -66 19t-52 18q-44 18 -76 54q-31 35 -31 98q0 54 30 96t82 66t117 24q148 0 237 -93l-50 -61q-36 40 -86 60q-51 20 -107 20q-60 0 -99 -30t-39 -76
q0 -31 21 -52t53 -33q33 -12 88 -27q73 -20 120 -39q47 -20 80 -59t33 -104q0 -53 -25 -97q-26 -45 -81 -72q-56 -27 -141 -27q-81 0 -147 29q-65 28 -108 78l49 63zM404 863h78l-169 -144h-57z" />
    <glyph glyph-name="sacute" unicode="&#x15b;" horiz-adv-x="465" 
d="M71 111q25 -29 69 -48q45 -20 90 -20q55 0 84 22q30 22 30 58t-31 54q-32 18 -93 33q-56 13 -90 27q-35 13 -60 42q-25 28 -25 75q0 37 21 69q21 31 62 51q39 19 96 19q110 0 180 -70l-35 -52q-23 28 -60 44q-39 17 -83 17q-49 0 -78 -20t-29 -53q0 -32 30 -47
q31 -16 89 -29q57 -14 92 -27q37 -14 62 -43q26 -31 26 -79q0 -64 -50 -105t-140 -41q-123 0 -195 76l39 54zM342 693h78l-169 -144h-57z" />
    <glyph glyph-name="Scircumflex" unicode="&#x15c;" horiz-adv-x="586" 
d="M86 153q39 -42 91 -68q54 -27 119 -27q81 0 119 35t38 81q0 38 -22 61q-22 24 -55 37q-34 14 -91 30q-37 10 -66 19t-52 18q-44 18 -76 54q-31 35 -31 98q0 54 30 96t82 66t117 24q148 0 237 -93l-50 -61q-36 40 -86 60q-51 20 -107 20q-60 0 -99 -30t-39 -76
q0 -31 21 -52t53 -33q33 -12 88 -27q73 -20 120 -39q47 -20 80 -59t33 -104q0 -53 -25 -97q-26 -45 -81 -72q-56 -27 -141 -27q-81 0 -147 29q-65 28 -108 78l49 63zM207 719h-51l95 144h72l98 -144h-51l-83 106z" />
    <glyph glyph-name="scircumflex" unicode="&#x15d;" horiz-adv-x="465" 
d="M71 111q25 -29 69 -48q45 -20 90 -20q55 0 84 22q30 22 30 58t-31 54q-32 18 -93 33q-56 13 -90 27q-35 13 -60 42q-25 28 -25 75q0 37 21 69q21 31 62 51q39 19 96 19q110 0 180 -70l-35 -52q-23 28 -60 44q-39 17 -83 17q-49 0 -78 -20t-29 -53q0 -32 30 -47
q31 -16 89 -29q57 -14 92 -27q37 -14 62 -43q26 -31 26 -79q0 -64 -50 -105t-140 -41q-123 0 -195 76l39 54zM145 549h-51l95 144h72l98 -144h-51l-83 106z" />
    <glyph glyph-name="uni015E" unicode="&#x15e;" horiz-adv-x="586" 
d="M515 85q-24 -44 -76 -72t-132 -31l-17 -43q17 11 37 11q29 0 47 -18t18 -47q0 -38 -30 -60q-29 -22 -74 -22q-31 0 -58 9t-43 22l19 38q35 -29 80 -29q26 0 44 12t18 33q0 15 -9 24t-27 9q-12 0 -21 -4q-11 -5 -18 -12l-33 19l23 62q-72 4 -130 32q-57 27 -96 72l49 63
q39 -42 91 -68q54 -27 119 -27q81 0 119 35t38 81q0 38 -22 61q-22 24 -55 37q-34 14 -91 30q-37 10 -66 19t-52 18q-44 18 -76 54q-31 35 -31 98q0 54 30 96t82 66t117 24q148 0 237 -93l-50 -61q-36 40 -86 60q-51 20 -107 20q-60 0 -99 -30t-39 -76q0 -31 21 -52t53 -33
q33 -12 88 -27q73 -20 120 -39q47 -20 80 -59t33 -104q0 -50 -24 -93z" />
    <glyph glyph-name="uni015F" unicode="&#x15f;" horiz-adv-x="465" 
d="M374 23q-45 -41 -127 -45l-17 -44q17 11 37 11q29 0 47 -18t18 -47q0 -38 -30 -60q-29 -22 -74 -22q-31 0 -58 9t-43 22l19 38q35 -29 80 -29q26 0 44 12t18 33q0 15 -9 24t-27 9q-12 0 -21 -4q-11 -5 -18 -12l-33 19l23 62q-107 7 -171 75l39 54q25 -29 69 -48
q45 -20 90 -20q55 0 84 22q30 22 30 58t-31 54q-32 18 -93 33q-56 13 -90 27q-35 13 -60 42q-25 28 -25 75q0 37 21 69q21 31 62 51q39 19 96 19q110 0 180 -70l-35 -52q-23 28 -60 44q-39 17 -83 17q-49 0 -78 -20t-29 -53q0 -32 30 -47q31 -16 89 -29q57 -14 92 -27
q37 -14 62 -43q26 -31 26 -79q0 -60 -45 -100z" />
    <glyph glyph-name="Scaron" unicode="&#x160;" horiz-adv-x="586" 
d="M86 153q39 -42 91 -68q54 -27 119 -27q81 0 119 35t38 81q0 38 -22 61q-22 24 -55 37q-34 14 -91 30q-37 10 -66 19t-52 18q-44 18 -76 54q-31 35 -31 98q0 54 30 96t82 66t117 24q148 0 237 -93l-50 -61q-36 40 -86 60q-51 20 -107 20q-60 0 -99 -30t-39 -76
q0 -31 21 -52t53 -33q33 -12 88 -27q73 -20 120 -39q47 -20 80 -59t33 -104q0 -53 -25 -97q-26 -45 -81 -72q-56 -27 -141 -27q-81 0 -147 29q-65 28 -108 78l49 63zM204 863l83 -106l80 106h51l-95 -144h-72l-98 144h51z" />
    <glyph glyph-name="scaron" unicode="&#x161;" horiz-adv-x="465" 
d="M71 111q25 -29 69 -48q45 -20 90 -20q55 0 84 22q30 22 30 58t-31 54q-32 18 -93 33q-56 13 -90 27q-35 13 -60 42q-25 28 -25 75q0 37 21 69q21 31 62 51q39 19 96 19q110 0 180 -70l-35 -52q-23 28 -60 44q-39 17 -83 17q-49 0 -78 -20t-29 -53q0 -32 30 -47
q31 -16 89 -29q57 -14 92 -27q37 -14 62 -43q26 -31 26 -79q0 -64 -50 -105t-140 -41q-123 0 -195 76l39 54zM142 693l83 -106l80 106h51l-95 -144h-72l-98 144h51z" />
    <glyph glyph-name="uni0162" unicode="&#x162;" horiz-adv-x="570" 
d="M32 593v74h506v-74h-212v-593h-83v593h-211zM234 -246q22 15 39 39q16 24 18 47q-2 -2 -11 -2q-18 0 -30 12t-12 32q0 19 14 33t33 14q23 0 38 -18t15 -49q0 -38 -20 -75t-51 -59z" />
    <glyph glyph-name="uni0163" unicode="&#x163;" horiz-adv-x="294" 
d="M119 16q-27 28 -27 84v316h-80v66h80v132h75v-132h98v-66h-98v-300q0 -29 12 -45q12 -17 36 -17q15 0 29 6q13 6 21 15l22 -56q-32 -31 -90 -31q-53 0 -80 29zM101 -247q22 15 39 39q16 24 18 47q-2 -2 -11 -2q-18 0 -30 12t-12 32q0 19 14 33t33 14q23 0 38 -18t15 -49
q0 -38 -20 -75t-51 -59z" />
    <glyph glyph-name="Tcaron" unicode="&#x164;" horiz-adv-x="570" 
d="M32 593v74h506v-74h-212v-593h-83v593h-211zM202 867l83 -106l80 106h51l-95 -144h-72l-98 144h51z" />
    <glyph glyph-name="tcaron" unicode="&#x165;" horiz-adv-x="313" 
d="M119 16q-27 28 -27 84v316h-80v66h80v132h75v-132h98v-66h-98v-300q0 -29 12 -45q12 -17 36 -17q15 0 29 6q13 6 21 15l22 -56q-32 -31 -90 -31q-53 0 -80 29zM223 567q22 15 39 39q16 24 18 47q-2 -2 -11 -2q-18 0 -30 12t-12 32q0 19 14 33t33 14q23 0 38 -18t15 -49
q0 -38 -20 -75t-51 -59z" />
    <glyph glyph-name="Tbar" unicode="&#x166;" horiz-adv-x="570" 
d="M326 342h151v-48h-151v-294h-83v294h-150v48h150v251h-211v74h506v-74h-212v-251z" />
    <glyph glyph-name="tbar" unicode="&#x167;" horiz-adv-x="294" 
d="M289 18q-32 -31 -90 -31q-53 0 -80 29q-27 28 -27 84v125h-80v48h80v143h-80v66h80v132h75v-132h98v-66h-98v-143h70v-48h-70v-109q0 -29 12 -45q12 -17 36 -17q15 0 29 6q13 6 21 15l22 -56z" />
    <glyph glyph-name="Utilde" unicode="&#x168;" horiz-adv-x="700" 
d="M157 667v-406q0 -94 49 -146q50 -53 141 -53t141 53q49 52 49 146v406h83v-407q0 -127 -69 -199t-202 -72t-202 72t-69 198v408h79zM303 802q-9 9 -24 9q-21 0 -34 -21q-13 -20 -13 -64h-45q0 59 26 97q25 37 72 37q27 0 41 -13q15 -14 33 -39q15 -21 24 -30t24 -9
q21 0 35 21q14 22 14 65h45q0 -60 -25 -97t-72 -37q-26 0 -42 14q-15 13 -33 39l-12 17t-10 12z" />
    <glyph glyph-name="utilde" unicode="&#x169;" horiz-adv-x="551" 
d="M401 68q-30 -35 -75 -57q-46 -23 -96 -23q-154 0 -154 154v341h75v-318q0 -60 27 -85q26 -25 80 -25q42 0 81 21q40 22 62 52v355h75v-483h-75v68zM232 635q-9 9 -24 9q-21 0 -34 -21q-13 -20 -13 -64h-45q0 59 26 97q25 37 72 37q27 0 41 -13q15 -14 33 -39
q15 -21 24 -30t24 -9q21 0 35 21q14 22 14 65h45q0 -60 -25 -97t-72 -37q-26 0 -42 14q-15 13 -33 39l-12 17t-10 12z" />
    <glyph glyph-name="Umacron" unicode="&#x16a;" horiz-adv-x="700" 
d="M157 667v-406q0 -94 49 -146q50 -53 141 -53t141 53q49 52 49 146v406h83v-407q0 -127 -69 -199t-202 -72t-202 72t-69 198v408h79zM499 787v-48h-307v48h307z" />
    <glyph glyph-name="umacron" unicode="&#x16b;" horiz-adv-x="551" 
d="M401 68q-30 -35 -75 -57q-46 -23 -96 -23q-154 0 -154 154v341h75v-318q0 -60 27 -85q26 -25 80 -25q42 0 81 21q40 22 62 52v355h75v-483h-75v68zM428 620v-48h-307v48h307z" />
    <glyph glyph-name="Ubreve" unicode="&#x16c;" horiz-adv-x="700" 
d="M157 667v-406q0 -94 49 -146q50 -53 141 -53t141 53q49 52 49 146v406h83v-407q0 -127 -69 -199t-202 -72t-202 72t-69 198v408h79zM245 739q-46 24 -78 65l37 32q26 -35 61 -54t79 -19t79 19q36 19 60 54l37 -32q-31 -40 -76 -64t-98 -24t-99 24z" />
    <glyph glyph-name="ubreve" unicode="&#x16d;" horiz-adv-x="551" 
d="M401 68q-30 -35 -75 -57q-46 -23 -96 -23q-154 0 -154 154v341h75v-318q0 -60 27 -85q26 -25 80 -25q42 0 81 21q40 22 62 52v355h75v-483h-75v68zM174 572q-46 24 -78 65l37 32q26 -35 61 -54t79 -19t79 19q36 19 60 54l37 -32q-31 -40 -76 -64t-98 -24t-99 24z" />
    <glyph glyph-name="Uring" unicode="&#x16e;" horiz-adv-x="700" 
d="M157 667v-406q0 -94 49 -146q50 -53 141 -53t141 53q49 52 49 146v406h83v-407q0 -127 -69 -199t-202 -72t-202 72t-69 198v408h79zM276 878q29 29 69 29t69 -29t29 -69t-29 -69t-69 -29t-69 29q-28 28 -28 69q0 40 29 69h-1zM386 850q-17 17 -42 17q-24 0 -41 -17
t-17 -42q0 -23 17 -42q16 -18 41 -18q24 0 41 18q17 19 17 42q0 26 -16 42z" />
    <glyph glyph-name="uring" unicode="&#x16f;" horiz-adv-x="551" 
d="M401 68q-30 -35 -75 -57q-46 -23 -96 -23q-154 0 -154 154v341h75v-318q0 -60 27 -85q26 -25 80 -25q42 0 81 21q40 22 62 52v355h75v-483h-75v68zM205 711q29 29 69 29t69 -29t29 -69t-29 -69t-69 -29t-69 29q-28 28 -28 69q0 40 29 69h-1zM315 683q-17 17 -42 17
q-24 0 -41 -17t-17 -42q0 -23 17 -42q16 -18 41 -18q24 0 41 18q17 19 17 42q0 26 -16 42z" />
    <glyph glyph-name="Uhungarumlaut" unicode="&#x170;" horiz-adv-x="700" 
d="M157 667v-406q0 -94 49 -146q50 -53 141 -53t141 53q49 52 49 146v406h83v-407q0 -127 -69 -199t-202 -72t-202 72t-69 198v408h79zM341 867h69l-115 -144h-48zM483 867h69l-115 -144h-48z" />
    <glyph glyph-name="uhungarumlaut" unicode="&#x171;" horiz-adv-x="551" 
d="M401 68q-30 -35 -75 -57q-46 -23 -96 -23q-154 0 -154 154v341h75v-318q0 -60 27 -85q26 -25 80 -25q42 0 81 21q40 22 62 52v355h75v-483h-75v68zM270 700h69l-115 -144h-48zM412 700h69l-115 -144h-48z" />
    <glyph glyph-name="Uogonek" unicode="&#x172;" horiz-adv-x="700" 
d="M159 665v-406q0 -94 49 -146q50 -53 141 -53t141 53q49 52 49 146v406h83v-407q0 -98 -40 -162q-41 -65 -118 -93q-51 -17 -82 -44q-30 -26 -30 -54q0 -18 12 -28q11 -10 30 -10q16 0 33 9l19 -45q-26 -17 -69 -17q-40 0 -69 20t-29 56q0 28 23 54q22 25 60 45h-13
q-133 0 -202 72t-69 198v408z" />
    <glyph glyph-name="uogonek" unicode="&#x173;" horiz-adv-x="551" 
d="M406 -44q-25 -24 -25 -51q0 -18 12 -28q11 -10 30 -10q17 0 32 9l20 -45q-28 -17 -68 -17t-69 20t-29 56q0 31 29 60t75 50h-12v68q-30 -35 -75 -57q-46 -23 -96 -23q-154 0 -154 154v341h75v-318q0 -60 27 -85q26 -25 80 -25q42 0 81 21q40 22 62 52v355h75v-483
q-45 -20 -69 -43z" />
    <glyph glyph-name="Wcircumflex" unicode="&#x174;" horiz-adv-x="883" 
d="M294 0h-90l-190 667h92l148 -556l153 556h69l153 -556l147 556h92l-190 -667h-90l-147 538zM361 723h-51l95 144h72l98 -144h-51l-83 106z" />
    <glyph glyph-name="wcircumflex" unicode="&#x175;" horiz-adv-x="734" 
d="M241 0h-75l-154 483h78l118 -385l127 385h64l127 -385l118 385h78l-154 -483h-75l-126 388zM287 556h-51l95 144h72l98 -144h-51l-83 106z" />
    <glyph glyph-name="Ycircumflex" unicode="&#x176;" horiz-adv-x="626" 
d="M9 667h97l207 -310l207 310h97l-262 -385v-282h-83v282zM233 723h-51l95 144h72l98 -144h-51l-83 106z" />
    <glyph glyph-name="ycircumflex" unicode="&#x177;" horiz-adv-x="490" 
d="M102 -128q25 0 42 11t29 39l32 73l-202 488h81l161 -396l160 396h82l-242 -581q-21 -52 -57 -74q-36 -23 -85 -24q-31 0 -55 7l12 68q19 -8 41 -8zM166 557h-51l95 144h72l98 -144h-51l-83 106z" />
    <glyph glyph-name="Ydieresis" unicode="&#x178;" horiz-adv-x="626" 
d="M9 667h97l207 -310l207 310h97l-262 -385v-282h-83v282zM175 745q-13 13 -13 33q0 19 14 33t33 14q20 0 33 -13q14 -14 14 -33q0 -20 -13 -33t-33 -13q-19 0 -33 14zM379 744q-13 13 -13 33q0 19 14 33t33 14q20 0 33 -13q14 -14 14 -33q0 -20 -13 -33q-14 -14 -33 -14
t-33 14z" />
    <glyph glyph-name="Zacute" unicode="&#x179;" horiz-adv-x="585" 
d="M423 593h-375v74h481v-69l-375 -524h382v-74h-488v69zM410 867h78l-169 -144h-57z" />
    <glyph glyph-name="zacute" unicode="&#x17a;" horiz-adv-x="472" 
d="M318 417h-266v66h364v-57l-268 -361h272v-65h-368v58zM353 700h78l-169 -144h-57z" />
    <glyph glyph-name="Zdotaccent" unicode="&#x17b;" horiz-adv-x="585" 
d="M423 593h-375v74h481v-69l-375 -524h382v-74h-488v69zM259 809q14 14 33 14q20 0 33 -13q14 -14 14 -33q0 -20 -13 -33t-33 -13q-19 0 -33 14t-14 33t14 33z" />
    <glyph glyph-name="zdotaccent" unicode="&#x17c;" horiz-adv-x="472" 
d="M318 417h-266v66h364v-57l-268 -361h272v-65h-368v58zM202 642q14 14 33 14q20 0 33 -13q14 -14 14 -33q0 -20 -13 -33t-33 -13q-19 0 -33 14t-14 33t14 33z" />
    <glyph glyph-name="Zcaron" unicode="&#x17d;" horiz-adv-x="585" 
d="M423 593h-375v74h481v-69l-375 -524h382v-74h-488v69zM210 867l83 -106l80 106h51l-95 -144h-72l-98 144h51z" />
    <glyph glyph-name="zcaron" unicode="&#x17e;" horiz-adv-x="472" 
d="M318 417h-266v66h364v-57l-268 -361h272v-65h-368v58zM153 700l83 -106l80 106h51l-95 -144h-72l-98 144h51z" />
    <glyph glyph-name="longs" unicode="&#x17f;" horiz-adv-x="283" 
d="M16 415v66h80v37q0 73 38 116q37 42 102 42q45 0 73 -17l-19 -56q-20 11 -43 11q-38 0 -57 -24q-19 -23 -19 -70v-520h-75v417z" />
    <glyph glyph-name="uni04D8" unicode="&#x4d8;" horiz-adv-x="747" 
d="M525 633q78 -43 123 -122q45 -78 45 -179t-43 -180t-119 -123q-74 -43 -167 -43q-102 0 -175 45t-112 129t-39 195h570q-5 72 -39 129t-91 88q-56 31 -125 31q-59 0 -109 -25q-52 -26 -84 -67l-66 41q99 125 259 125q96 0 173 -43zM471 88q52 28 87 78q34 48 43 116h-476
q10 -97 72 -160q61 -63 160 -63q65 0 117 28z" />
    <glyph glyph-name="uni0192" unicode="&#x192;" horiz-adv-x="431" 
d="M49 251v68h82l46 204q15 70 62 111t111 41q29 0 53 -8q22 -8 42 -27l-37 -61q-18 23 -50 23q-36 0 -63 -24t-37 -67l-42 -189h139v-68h-154l-92 -415h-84l92 415z" />
    <glyph glyph-name="uni019D" unicode="&#x19d;" horiz-adv-x="708" 
d="M630 -2h-80l-389 538v-521q0 -104 -59 -158t-153 -54q-30 0 -53 5l6 75q18 -6 42 -6q62 0 98 39t36 102v649h85l384 -527v527h83v-669z" />
    <glyph glyph-name="Ohorn" unicode="&#x1a0;" horiz-adv-x="765" 
d="M699 591q-17 -31 -47 -55q59 -88 59 -205q0 -98 -42 -176t-117 -123t-172 -45t-172 45t-117 123t-42 176t42 176t117 123t173 45q78 0 141 -28q64 -29 108 -81q17 14 31 36q14 21 15 40q-6 -2 -12 -2q-17 0 -27 12q-11 13 -11 29q0 17 12 31q12 13 30 13q21 0 36 -17
t15 -45q0 -37 -18 -70zM507 93q56 35 86 96t30 138q0 78 -30 140q-30 61 -86 96t-129 35t-129 -35q-55 -34 -85 -96t-30 -139t30 -138t86 -96t129 -35t129 35z" />
    <glyph glyph-name="ohorn" unicode="&#x1a1;" 
d="M511 462q-17 -32 -42 -53q27 -35 42 -78q15 -44 15 -93q0 -71 -30 -129q-30 -59 -84 -93q-53 -34 -126 -34t-126 34q-54 34 -84 93q-30 58 -30 129q0 70 30 129t84 92t126 33q94 0 157 -57q17 15 29 35q11 18 13 38q-3 -1 -11 -1q-16 0 -28 12t-12 30q0 16 12 30
q12 13 30 13q21 0 36 -17t15 -45q0 -35 -16 -66v-2zM371 76q35 25 55 69q19 42 19 93t-19 92q-20 43 -55 68q-37 26 -86 26q-51 0 -86 -25t-55 -68q-19 -41 -19 -92t19 -93q19 -43 56 -69q35 -25 86 -25q49 0 86 26z" />
    <glyph glyph-name="Uhorn" unicode="&#x1af;" horiz-adv-x="700" 
d="M700 637q-32 -42 -84 -63v-315q0 -127 -69 -199t-202 -72t-202 72t-69 198v408h83v-406q0 -94 49 -146q50 -53 141 -53t141 53q49 52 49 146v406h83v-53q29 15 50 41q22 26 23 53l-11 -1q-17 0 -27 12q-11 13 -11 30q0 18 12 30t30 12q21 0 36 -17t15 -45q0 -50 -31 -91
h-6z" />
    <glyph glyph-name="uhorn" unicode="&#x1b0;" horiz-adv-x="551" 
d="M544 452q-25 -38 -69 -61v-393h-75v68q-30 -35 -75 -57q-46 -23 -96 -23q-154 0 -154 154v341h75v-318q0 -60 27 -85q26 -25 80 -25q42 0 81 21q40 22 62 52v355h75v-47q22 15 36 37t16 43l-11 -1q-16 0 -28 12t-12 30q0 16 12 30q12 13 30 13q21 0 36 -17t15 -45
q0 -44 -25 -82v-2z" />
    <glyph glyph-name="Gcaron" unicode="&#x1e6;" horiz-adv-x="713" 
d="M95 509q45 79 123 122q79 44 173 44q157 0 258 -125l-66 -41q-31 41 -83 67q-50 25 -109 25q-73 0 -131 -34q-59 -35 -92 -96q-33 -62 -33 -140q0 -79 33 -140t92 -96t131 -35q55 0 103 21t77 50v136h-229v74h312v-241q-48 -54 -115 -84q-68 -30 -147 -30q-94 0 -173 44
q-78 43 -123 123q-45 79 -45 180t45 179zM308 863l83 -106l80 106h51l-95 -144h-72l-98 144h51z" />
    <glyph glyph-name="gcaron" unicode="&#x1e7;" horiz-adv-x="574" 
d="M112 -70q29 -35 66 -50t90 -15q67 0 111 36t44 110v69q-28 -39 -70 -62q-44 -24 -93 -24q-63 0 -111 30t-75 87t-27 134q0 76 27 133t76 87t112 30q49 0 90 -22q42 -23 72 -63v73h75v-469q0 -110 -65 -160q-64 -49 -165 -49q-64 0 -109 15t-86 56l38 56v-2zM425 346
q-20 34 -60 56q-41 23 -84 23q-72 0 -114 -51t-42 -133q0 -81 42 -132t113 -51q43 0 84 23q40 22 60 56v211zM208 696l83 -106l80 106h51l-95 -144h-72l-98 144h51z" />
    <glyph glyph-name="uni01EA" unicode="&#x1ea;" horiz-adv-x="765" 
d="M395 -48q-22 -22 -22 -48q0 -18 12 -28q11 -10 30 -10q17 0 32 9l20 -45q-28 -17 -68 -17t-69 20t-29 56q0 28 21 54q21 25 58 46q-97 0 -172 45t-117 123t-42 176t42 176t117 123t173 45q97 0 172 -45t117 -123t42 -176q0 -86 -31 -155t-89 -118q-56 -47 -133 -64
q-40 -18 -63 -41zM164 190q30 -61 86 -96t129 -35t129 35t86 96t30 138q0 78 -30 140q-30 61 -86 96t-129 35t-129 -35q-55 -34 -85 -96t-30 -139t30 -138z" />
    <glyph glyph-name="uni01EB" unicode="&#x1eb;" 
d="M265 -99q0 -18 12 -28q11 -10 30 -10q17 0 32 9l20 -45q-28 -17 -68 -17t-69 20t-29 56q0 29 22 54q23 26 58 45q-68 3 -120 38q-50 34 -79 92q-28 56 -28 125q0 70 30 129t84 92t126 33t126 -33t84 -91q30 -59 30 -129q0 -89 -46 -156t-126 -88q-87 -41 -87 -91z
M141 142q19 -43 56 -69q35 -25 86 -25q49 0 86 26q35 25 55 69q19 42 19 93t-19 92q-20 43 -55 68q-37 26 -86 26q-51 0 -86 -25t-55 -68q-19 -41 -19 -92t19 -93z" />
    <glyph glyph-name="Aringacute" unicode="&#x1fa;" horiz-adv-x="658" 
d="M160 148l-59 -148h-92l268 667h103l269 -667h-92l-59 148h-338zM473 222l-144 371l-145 -371h289zM259 878q29 29 69 29t69 -29t29 -69t-29 -69t-69 -29t-69 29q-28 28 -28 69q0 40 29 69h-1zM369 850q-17 17 -42 17q-24 0 -41 -17t-17 -42q0 -23 17 -42q16 -18 41 -18
q24 0 41 18q17 19 17 42q0 26 -16 42zM443 1079h78l-169 -144h-57z" />
    <glyph glyph-name="aringacute" unicode="&#x1fb;" horiz-adv-x="527" 
d="M376 57q-61 -67 -160 -67q-43 0 -82 18t-63 54t-24 86q0 51 24 87t63 54t82 18q103 0 160 -66v87q0 48 -34 75q-35 27 -88 27q-45 0 -80 -16q-37 -17 -68 -51l-35 52q39 40 87 60q49 20 107 20q83 0 135 -40t52 -123v-332h-75v55zM374 198q-22 29 -57 44q-36 15 -76 15
q-52 0 -85 -30t-33 -76t33 -76t86 -30q41 0 77 15q35 15 57 44v91zM193 716q29 29 69 29t69 -29t29 -69t-29 -69t-69 -29t-69 29q-28 28 -28 69q0 40 29 69h-1zM303 688q-17 17 -42 17q-24 0 -41 -17t-17 -42q0 -23 17 -42q16 -18 41 -18q24 0 41 18q17 19 17 42
q0 26 -16 42zM377 917h78l-169 -144h-57z" />
    <glyph glyph-name="AEacute" unicode="&#x1fc;" horiz-adv-x="947" 
d="M190 148l-91 -148h-92l416 667h470v-74h-354v-215h347v-74h-347v-230h354v-74h-437v148h-266zM456 222v371l-225 -371h225zM613 867h78l-169 -144h-57z" />
    <glyph glyph-name="aeacute" unicode="&#x1fd;" horiz-adv-x="889" 
d="M519 101q44 -47 114 -47q40 0 76 15t63 45l36 -51q-34 -35 -81 -55q-45 -19 -97 -19q-64 0 -114 29q-50 28 -78 87q-26 -53 -79 -84q-55 -32 -120 -32q-83 0 -138 42q-56 42 -56 117q0 50 24 86t65 54q40 18 89 18q112 0 175 -64v86q0 47 -36 74t-96 27q-49 0 -87 -16
q-40 -17 -74 -51l-35 52q80 80 205 80q64 0 111 -26q46 -26 60 -78q27 46 72 75q46 29 107 29q68 0 117 -34q49 -35 75 -93q26 -60 26 -132v-19h-367q4 -71 48 -117zM745 350q-15 37 -48 61t-82 24q-45 0 -78 -24t-49 -61q-17 -38 -18 -76h293q-2 40 -16 76h-2zM330 237
q-38 16 -82 16q-59 0 -95 -27t-36 -73q0 -45 36 -72t95 -27q41 0 74 18q32 18 52 48q19 29 19 62v12q-24 28 -63 45v-2zM550 700h78l-169 -144h-57z" />
    <glyph glyph-name="Oslashacute" unicode="&#x1fe;" horiz-adv-x="765" 
d="M326 723l148 144h78l-169 -144h-57zM682 486q31 -69 31 -154q0 -98 -42 -176t-117 -123t-172 -45q-98 0 -174 45l-22 -33h-66l44 65q-54 46 -84 116q-30 69 -30 152q0 98 42 176t117 123t173 45q92 0 167 -42l21 31h66l-42 -62q56 -46 88 -117v-1zM154 217q19 -50 54 -88
l296 440q-53 32 -123 32q-73 0 -129 -35q-55 -34 -85 -96t-30 -139q0 -62 19 -112zM507 95q56 35 86 96t30 138q0 62 -20 116q-20 53 -57 89l-296 -441q58 -35 129 -35q73 0 129 35z" />
    <glyph glyph-name="oslashacute" unicode="&#x1ff;" 
d="M505 346q18 -48 18 -103q0 -71 -30 -129q-30 -59 -84 -93q-53 -34 -126 -34q-81 0 -142 45l-26 -33h-54l48 61q-32 34 -48 81q-16 45 -16 99q0 70 30 129t84 92t126 33q79 0 138 -41l23 29h54l-45 -56q34 -34 52 -82zM376 397q-39 30 -93 30q-51 0 -86 -25t-55 -68
q-19 -41 -19 -92q0 -70 35 -120zM369 77q35 25 55 69q19 42 19 93q0 73 -38 126l-220 -278q41 -34 98 -34q49 0 86 26v-2zM400 696h78l-169 -144h-57z" />
    <glyph glyph-name="uni0218" unicode="&#x218;" horiz-adv-x="586" 
d="M86 153q39 -42 91 -68q54 -27 119 -27q81 0 119 35t38 81q0 38 -22 61q-22 24 -55 37q-34 14 -91 30q-37 10 -66 19t-52 18q-44 18 -76 54q-31 35 -31 98q0 54 30 96t82 66t117 24q148 0 237 -93l-50 -61q-36 40 -86 60q-51 20 -107 20q-60 0 -99 -30t-39 -76
q0 -31 21 -52t53 -33q33 -12 88 -27q73 -20 120 -39q47 -20 80 -59t33 -104q0 -53 -25 -97q-26 -45 -81 -72q-56 -27 -141 -27q-81 0 -147 29q-65 28 -108 78l49 63zM236 -250q22 15 39 39q16 24 18 47q-2 -2 -11 -2q-18 0 -30 12t-12 32q0 19 14 33t33 14q23 0 38 -18
t15 -49q0 -38 -20 -75t-51 -59z" />
    <glyph glyph-name="uni0219" unicode="&#x219;" horiz-adv-x="465" 
d="M71 111q25 -29 69 -48q45 -20 90 -20q55 0 84 22q30 22 30 58t-31 54q-32 18 -93 33q-56 13 -90 27q-35 13 -60 42q-25 28 -25 75q0 37 21 69q21 31 62 51q39 19 96 19q110 0 180 -70l-35 -52q-23 28 -60 44q-39 17 -83 17q-49 0 -78 -20t-29 -53q0 -32 30 -47
q31 -16 89 -29q57 -14 92 -27q37 -14 62 -43q26 -31 26 -79q0 -64 -50 -105t-140 -41q-123 0 -195 76l39 54zM174 -253q22 15 39 39q16 24 18 47q-2 -2 -11 -2q-18 0 -30 12t-12 32q0 19 14 33t33 14q23 0 38 -18t15 -49q0 -38 -20 -75t-51 -59z" />
    <glyph glyph-name="uni021A" unicode="&#x21a;" horiz-adv-x="570" 
d="M32 593v74h506v-74h-212v-593h-83v593h-211zM234 -246q22 15 39 39q16 24 18 47q-2 -2 -11 -2q-18 0 -30 12t-12 32q0 19 14 33t33 14q23 0 38 -18t15 -49q0 -38 -20 -75t-51 -59z" />
    <glyph glyph-name="uni021B" unicode="&#x21b;" horiz-adv-x="294" 
d="M119 16q-27 28 -27 84v316h-80v66h80v132h75v-132h98v-66h-98v-300q0 -29 12 -45q12 -17 36 -17q15 0 29 6q13 6 21 15l22 -56q-32 -31 -90 -31q-53 0 -80 29zM101 -247q22 15 39 39q16 24 18 47q-2 -2 -11 -2q-18 0 -30 12t-12 32q0 19 14 33t33 14q23 0 38 -18t15 -49
q0 -38 -20 -75t-51 -59z" />
    <glyph glyph-name="uni0232" unicode="&#x232;" horiz-adv-x="626" 
d="M9 667h97l207 -310l207 310h97l-262 -385v-282h-83v282zM466 787v-48h-307v48h307z" />
    <glyph glyph-name="uni0233" unicode="&#x233;" horiz-adv-x="490" 
d="M102 -128q25 0 42 11t29 39l32 73l-202 488h81l161 -396l160 396h82l-242 -581q-21 -52 -57 -74q-36 -23 -85 -24q-31 0 -55 7l12 68q19 -8 41 -8zM399 621v-48h-307v48h307z" />
    <glyph glyph-name="uni0237" unicode="&#x237;" horiz-adv-x="225" 
d="M-36 -126q13 -5 36 -5q75 0 75 84v530h75v-530q0 -72 -37 -110q-38 -39 -105 -39q-33 0 -54 7l10 63v0z" />
    <glyph glyph-name="uni04D9" unicode="&#x4d9;" horiz-adv-x="563" 
d="M485 115q-32 -59 -85 -93t-122 -34q-71 0 -123 34q-53 34 -81 93q-28 57 -28 132v19h390q-5 71 -51 119q-47 48 -121 48q-43 0 -81 -16q-40 -17 -68 -45l-36 49q77 74 192 74q70 0 126 -32q55 -32 87 -90q32 -59 32 -132q0 -69 -31 -127v1zM360 75q36 24 54 61
q19 39 20 76h-317q2 -40 19 -76q18 -37 54 -61t87 -24q49 0 85 24h-2z" />
    <glyph glyph-name="uni0272" unicode="&#x272;" horiz-adv-x="551" 
d="M477 1h-75v316q0 62 -28 87q-29 26 -81 26q-43 0 -81 -22t-61 -54v-400q0 -72 -37 -110q-38 -39 -105 -39q-33 0 -54 7l10 63q13 -5 36 -5q75 0 75 84v530h75v-70q28 33 75 57q46 24 96 24q154 0 154 -156z" />
    <glyph glyph-name="uni02B0" unicode="&#x2b0;" horiz-adv-x="398" 
d="M278 527q0 39 -18 56q-19 17 -53 17q-28 0 -51 -13t-40 -33v-228h-57v434h57v-165q20 23 51 38t66 15q105 0 105 -107v-215h-58v202z" />
    <glyph glyph-name="uni02BC" unicode="&#x2bc;" horiz-adv-x="230" 
d="M58 477q24 16 43 43q19 26 22 51q-6 -2 -15 -2q-21 0 -34 15q-13 14 -13 37q0 22 15 39q15 16 38 16q26 0 44 -21t18 -55q0 -43 -23 -84q-22 -40 -59 -66l-37 31z" />
    <glyph glyph-name="circumflex" unicode="&#x2c6;" horiz-adv-x="265" 
d="M51 556h-51l95 144h72l98 -144h-51l-83 106z" />
    <glyph glyph-name="caron" unicode="&#x2c7;" horiz-adv-x="265" 
d="M51 700l83 -106l80 106h51l-95 -144h-72l-98 144h51z" />
    <glyph glyph-name="uni02C9" unicode="&#x2c9;" horiz-adv-x="363" 
d="M335 639v-48h-307v48h307z" />
    <glyph glyph-name="uni02CB" unicode="&#x2cb;" horiz-adv-x="226" 
d="M78 700l148 -144h-57l-169 144h78z" />
    <glyph glyph-name="breve" unicode="&#x2d8;" horiz-adv-x="351" 
d="M75 572q-46 24 -78 65l37 32q26 -35 61 -54t79 -19t79 19q36 19 60 54l37 -32q-31 -40 -76 -64t-98 -24t-99 24z" />
    <glyph glyph-name="dotaccent" unicode="&#x2d9;" horiz-adv-x="127" 
d="M30 642q14 14 33 14q20 0 33 -13q14 -14 14 -33q0 -20 -13 -33t-33 -13q-19 0 -33 14t-14 33t14 33z" />
    <glyph glyph-name="ring" unicode="&#x2da;" horiz-adv-x="236" 
d="M48 711q29 29 69 29t69 -29t29 -69q0 -41 -28 -69q-29 -29 -69 -29t-69 29t-29 69t29 69h-1zM158 683q-17 17 -42 17q-24 0 -41 -17t-17 -42q0 -23 17 -42q16 -18 41 -18q24 0 41 18q17 19 17 42q0 26 -16 42z" />
    <glyph glyph-name="ogonek" unicode="&#x2db;" horiz-adv-x="194" 
d="M111 -187q-40 0 -69 20t-29 56q0 35 33 65t85 51l49 -6q-45 -20 -69 -43q-25 -24 -25 -51q0 -18 12 -28q11 -10 30 -10q17 0 32 9l20 -45q-28 -17 -68 -17z" />
    <glyph glyph-name="tilde" unicode="&#x2dc;" horiz-adv-x="313" 
d="M113 635q-9 9 -24 9q-21 0 -34 -21q-13 -20 -13 -64h-45q0 59 26 97q25 37 72 37q27 0 41 -13q15 -14 33 -39q15 -21 24 -30t24 -9q21 0 35 21q14 22 14 65h45q0 -60 -25 -97t-72 -37q-26 0 -42 14q-15 13 -33 39l-12 17t-10 12z" />
    <glyph glyph-name="hungarumlaut" unicode="&#x2dd;" horiz-adv-x="305" 
d="M94 700h69l-115 -144h-48zM236 700h69l-115 -144h-48z" />
    <glyph glyph-name="gravecomb" unicode="&#x300;" horiz-adv-x="0" 
d="M-148 700l148 -144h-57l-169 144h78z" />
    <glyph glyph-name="acutecomb" unicode="&#x301;" horiz-adv-x="0" 
d="M-78 700h78l-169 -144h-57z" />
    <glyph glyph-name="uni0302" unicode="&#x302;" horiz-adv-x="0" 
d="M-214 556h-51l95 144h72l98 -144h-51l-83 106z" />
    <glyph glyph-name="tildecomb" unicode="&#x303;" horiz-adv-x="0" 
d="M-200 635q-9 9 -24 9q-21 0 -34 -21q-13 -20 -13 -64h-45q0 59 26 97q25 37 72 37q27 0 41 -13q15 -14 33 -39q15 -21 24 -30t24 -9q21 0 35 21q14 22 14 65h45q0 -60 -25 -97t-72 -37q-26 0 -42 14q-15 13 -33 39l-12 17t-10 12z" />
    <glyph glyph-name="uni0304" unicode="&#x304;" horiz-adv-x="0" 
d="M-28 620v-48h-307v48h307z" />
    <glyph glyph-name="uni0306" unicode="&#x306;" horiz-adv-x="0" 
d="M-276 572q-46 24 -78 65l37 32q26 -35 61 -54t79 -19t79 19q36 19 60 54l37 -32q-31 -40 -76 -64t-98 -24t-99 24z" />
    <glyph glyph-name="uni0307" unicode="&#x307;" horiz-adv-x="0" 
d="M-97 642q14 14 33 14q20 0 33 -13q14 -14 14 -33q0 -20 -13 -33t-33 -13q-19 0 -33 14t-14 33t14 33z" />
    <glyph glyph-name="uni0308" unicode="&#x308;" horiz-adv-x="0" 
d="M-345 578q-13 13 -13 33q0 19 14 33t33 14q20 0 33 -13q14 -14 14 -33q0 -20 -13 -33t-33 -13q-19 0 -33 14zM-141 577q-13 13 -13 33q0 19 14 33t33 14q20 0 33 -13q14 -14 14 -33q0 -20 -13 -33q-14 -14 -33 -14t-33 14z" />
    <glyph glyph-name="uni0309" unicode="&#x309;" horiz-adv-x="0" 
d="M-154 695q26 20 60 20q40 0 66 -22q27 -23 27 -67q0 -20 -6 -36q-6 -17 -19 -34h-51q29 32 29 68q0 26 -12 38t-33 12q-38 0 -53 -42l-42 13q10 31 36 51z" />
    <glyph glyph-name="uni030A" unicode="&#x30a;" horiz-adv-x="0" 
d="M-188 711q29 29 69 29t69 -29t29 -69t-29 -69t-69 -29t-69 29q-28 28 -28 69q0 40 29 69h-1zM-78 683q-17 17 -42 17q-24 0 -41 -17t-17 -42q0 -23 17 -42q16 -18 41 -18q24 0 41 18q17 19 17 42q0 26 -16 42z" />
    <glyph glyph-name="uni030B" unicode="&#x30b;" horiz-adv-x="0" 
d="M-211 700h69l-115 -144h-48zM-69 700h69l-115 -144h-48z" />
    <glyph glyph-name="uni030C" unicode="&#x30c;" horiz-adv-x="0" 
d="M-214 700l83 -106l80 106h51l-95 -144h-72l-98 144h51z" />
    <glyph glyph-name="dotbelowcomb" unicode="&#x323;" horiz-adv-x="0" 
d="M-97 -86q14 14 33 14t33 -14t14 -33q0 -20 -13 -33t-33 -13q-19 0 -33 14t-14 33t14 33z" />
    <glyph glyph-name="uni0326" unicode="&#x326;" horiz-adv-x="0" 
d="M-167 -246q22 15 39 39q16 24 18 47q-2 -2 -11 -2q-18 0 -30 12t-12 32q0 19 14 33t33 14q23 0 38 -18t15 -49q0 -38 -20 -75t-51 -59l-33 26v0z" />
    <glyph glyph-name="uni0327" unicode="&#x327;" horiz-adv-x="0" 
d="M-186 -126q35 -29 80 -29q26 0 44 12t18 33q0 15 -9 24t-27 9q-12 0 -21 -4q-11 -5 -18 -12l-33 19l31 84h45l-26 -66q17 11 37 11q29 0 47 -18t18 -47q0 -38 -30 -60q-29 -22 -74 -22q-31 0 -58 9t-43 22l19 38v-3z" />
    <glyph glyph-name="uni0328" unicode="&#x328;" horiz-adv-x="0" 
d="M-83 -187q-40 0 -69 20t-29 56q0 35 33 65t85 51l49 -6q-45 -20 -69 -43q-25 -24 -25 -51q0 -18 12 -28q11 -10 30 -10q17 0 32 9l20 -45q-28 -17 -68 -17z" />
    <glyph glyph-name="uni037E" unicode="&#x37e;" horiz-adv-x="230" 
d="M75 395q-16 16 -16 39q0 22 17 39q16 16 39 16t39 -16t16 -39t-16 -39t-39 -16q-22 0 -39 17zM56 -102q27 17 44 43q18 27 21 51q-6 -2 -15 -2q-21 0 -34 15q-13 14 -13 37q0 22 15 39q15 16 38 16q26 0 44 -21t18 -55q0 -43 -23 -84q-22 -40 -59 -66l-37 31z" />
    <glyph glyph-name="tonos" unicode="&#x384;" horiz-adv-x="123" 
d="M109 774l-57 -200h-38l19 200h76z" />
    <glyph glyph-name="dieresistonos" unicode="&#x385;" horiz-adv-x="390" 
d="M258 774l-57 -200h-39l19 200h77zM27 579q-14 14 -14 33t14 33t33 14q20 0 33 -13q14 -14 14 -33q0 -20 -13 -33q-14 -14 -33 -14t-33 14zM293 578q-13 13 -13 33q0 19 14 33t33 14q20 0 33 -13q14 -14 14 -33q0 -20 -13 -33q-14 -14 -33 -14t-33 14z" />
    <glyph glyph-name="Alphatonos" unicode="&#x386;" horiz-adv-x="658" 
d="M160 148l-59 -148h-92l268 667h103l269 -667h-92l-59 148h-338zM473 222l-144 371l-145 -371h289zM196 667l-57 -200h-38l19 200h76z" />
    <glyph glyph-name="Epsilontonos" unicode="&#x388;" horiz-adv-x="623" 
d="M569 667v-74h-354v-215h347v-74h-347v-230h354v-74h-437v667h437zM85 667l-57 -200h-38l19 200h76z" />
    <glyph glyph-name="Etatonos" unicode="&#x389;" horiz-adv-x="766" 
d="M215 306v-306h-83v667h83v-287h390v287h83v-667h-83v306h-390zM85 667l-57 -200h-38l19 200h76z" />
    <glyph glyph-name="Iotatonos" unicode="&#x38a;" horiz-adv-x="293" 
d="M215 667v-667h-83v667h83zM85 667l-57 -200h-38l19 200h76z" />
    <glyph glyph-name="Omicrontonos" unicode="&#x38c;" horiz-adv-x="785" 
d="M111 509q42 78 117 123t173 45q97 0 172 -45t117 -123t42 -176t-42 -176t-117 -123t-172 -45t-172 45t-117 123t-42 176t42 176h-1zM614 471q-30 61 -86 96t-129 35t-129 -35q-55 -34 -85 -96t-30 -139t30 -138t86 -96t129 -35t129 35t86 96t30 138q0 78 -30 140zM94 665
l-57 -200h-38l19 200h76z" />
    <glyph glyph-name="Upsilontonos" unicode="&#x38e;" horiz-adv-x="725" 
d="M108 667h97l207 -310l207 310h97l-262 -385v-282h-83v282zM85 667l-57 -200h-38l19 200h76z" />
    <glyph glyph-name="Omegatonos" unicode="&#x38f;" horiz-adv-x="779" 
d="M104 185q-42 69 -42 163q0 95 42 170t117 117t173 42t173 -42t117 -117t42 -170q0 -93 -41 -163q-40 -69 -110 -111h134v-74h-240v74q45 10 84 45q39 34 63 90q24 55 24 126q0 76 -28 136q-28 61 -84 97t-132 36q-77 0 -132 -36q-56 -36 -84 -97q-28 -60 -28 -136
q0 -71 24 -126q24 -56 63 -90q39 -35 84 -45v-74h-240v74h135q-70 42 -112 111h-2zM82 667l-57 -200h-38l19 200h76z" />
    <glyph glyph-name="iotadieresistonos" unicode="&#x390;" horiz-adv-x="239" 
d="M151 482v-370q0 -27 12 -42t35 -15q8 0 18 2l6 -65q-20 -4 -40 -4q-53 0 -80 29q-27 28 -27 84v382zM190 773l-57 -200h-39l19 200h77zM-41 578q-14 14 -14 33t14 33t33 14q20 0 33 -13q14 -14 14 -33q0 -20 -13 -33q-14 -14 -33 -14t-33 14zM225 577q-13 13 -13 33
q0 19 14 33t33 14q20 0 33 -13q14 -14 14 -33q0 -20 -13 -33q-14 -14 -33 -14t-33 14z" />
    <glyph glyph-name="Alpha" unicode="&#x391;" horiz-adv-x="658" 
d="M160 148l-59 -148h-92l268 667h103l269 -667h-92l-59 148h-338zM473 222l-144 371l-145 -371h289z" />
    <glyph glyph-name="Beta" unicode="&#x392;" horiz-adv-x="629" 
d="M373 667q85 0 137 -47q51 -47 51 -123q0 -61 -34 -102t-84 -52q34 -4 65 -29q30 -24 48 -60t18 -75q0 -81 -51 -130q-50 -49 -141 -49h-304v667h295zM358 379q55 0 85 30t30 77t-30 77t-84 30h-200v-215h200zM362 75q59 0 91 31q33 31 33 84q0 49 -33 82t-91 33h-204
v-230h204z" />
    <glyph glyph-name="Gamma" unicode="&#x393;" horiz-adv-x="550" 
d="M515 667v-74h-354v-593h-83v667h437z" />
    <glyph glyph-name="uni0394" unicode="&#x394;" horiz-adv-x="658" 
d="M380 667l269 -667h-640l268 667h103zM530 74l-201 507l-201 -507h402z" />
    <glyph glyph-name="Epsilon" unicode="&#x395;" horiz-adv-x="569" 
d="M515 667v-74h-354v-215h347v-74h-347v-230h354v-74h-437v667h437z" />
    <glyph glyph-name="Zeta" unicode="&#x396;" horiz-adv-x="585" 
d="M423 593h-375v74h481v-69l-375 -524h382v-74h-488v69z" />
    <glyph glyph-name="Eta" unicode="&#x397;" horiz-adv-x="712" 
d="M161 306v-306h-83v667h83v-287h390v287h83v-667h-83v306h-390z" />
    <glyph glyph-name="Theta" unicode="&#x398;" horiz-adv-x="765" 
d="M91 509q42 78 117 123t173 45q97 0 172 -45t117 -123t42 -176t-42 -176t-117 -123t-172 -45t-172 45t-117 123t-42 176t42 176h-1zM594 471q-30 61 -86 96t-129 35t-129 -35q-55 -34 -85 -96t-30 -139t30 -138t86 -96t129 -35t129 35t86 96t30 138q0 78 -30 140zM566 376
v-74h-373v74h373z" />
    <glyph glyph-name="Iota" unicode="&#x399;" horiz-adv-x="239" 
d="M161 667v-667h-83v667h83z" />
    <glyph glyph-name="Kappa" unicode="&#x39a;" horiz-adv-x="601" 
d="M161 224v-224h-83v667h83v-345l295 345h104l-278 -317l302 -350h-103l-253 300z" />
    <glyph glyph-name="Lambda" unicode="&#x39b;" horiz-adv-x="658" 
d="M104 0h-95l268 667h103l269 -667h-95l-225 581z" />
    <glyph glyph-name="Mu" unicode="&#x39c;" horiz-adv-x="809" 
d="M421 0h-34l-226 555v-555h-83v667h119l207 -508l208 508h119v-667h-83v555z" />
    <glyph glyph-name="Nu" unicode="&#x39d;" horiz-adv-x="708" 
d="M161 0h-83v667h85l384 -527v527h83v-667h-80l-389 538v-538z" />
    <glyph glyph-name="Xi" unicode="&#x39e;" horiz-adv-x="615" 
d="M560 667v-74h-505v74h505zM554 378v-74h-492v74h492zM560 74v-74h-506v74h506z" />
    <glyph glyph-name="Omicron" unicode="&#x39f;" horiz-adv-x="765" 
d="M91 509q42 78 117 123t173 45q97 0 172 -45t117 -123t42 -176t-42 -176t-117 -123t-172 -45t-172 45t-117 123t-42 176t42 176h-1zM594 471q-30 61 -86 96t-129 35t-129 -35q-55 -34 -85 -96t-30 -139t30 -138t86 -96t129 -35t129 35t86 96t30 138q0 78 -30 140z" />
    <glyph glyph-name="Pi" unicode="&#x3a0;" horiz-adv-x="712" 
d="M161 593v-593h-83v667h556v-667h-83v593h-390z" />
    <glyph glyph-name="Rho" unicode="&#x3a1;" horiz-adv-x="587" 
d="M347 669q65 0 113 -27t72 -73q24 -47 24 -102q0 -56 -25 -102t-73 -73t-112 -27h-185v-265h-83v667zM433 557q-38 36 -96 36h-175v-254h175q58 0 96 36q37 36 37 92t-37 92v-2z" />
    <glyph glyph-name="Sigma" unicode="&#x3a3;" horiz-adv-x="575" 
d="M521 0h-467v74l231 268l-230 251v74h466v-74h-364l229 -250l-232 -269h367v-74z" />
    <glyph glyph-name="Tau" unicode="&#x3a4;" horiz-adv-x="570" 
d="M32 593v74h506v-74h-212v-593h-83v593h-211z" />
    <glyph glyph-name="Upsilon" unicode="&#x3a5;" horiz-adv-x="626" 
d="M9 667h97l207 -310l207 310h97l-262 -385v-282h-83v282z" />
    <glyph glyph-name="Phi" unicode="&#x3a6;" horiz-adv-x="806" 
d="M716 198q-38 -59 -108 -93q-72 -35 -166 -41v-65h-83v65q-95 6 -165 42q-71 36 -108 94t-37 133q0 73 38 132q37 58 108 94q70 36 165 42v66h83v-66q94 -6 165 -42t108 -94q38 -59 38 -133q0 -75 -37 -133zM194 198q60 -53 165 -60v386q-107 -8 -165 -60
q-59 -53 -59 -133t60 -132zM606 199q60 52 60 132t-60 133q-60 52 -165 60v-386q105 7 165 60v1z" />
    <glyph glyph-name="Chi" unicode="&#x3a7;" horiz-adv-x="652" 
d="M113 0h-101l260 342l-245 325h101l198 -267l197 267h101l-244 -324l259 -343h-100l-213 284z" />
    <glyph glyph-name="Psi" unicode="&#x3a8;" horiz-adv-x="796" 
d="M716 395q0 -118 -71 -189t-207 -80v-126h-83v125q-137 10 -207 81q-71 71 -71 189v272h83v-270q0 -86 51 -137q51 -52 146 -59v466h83v-466q94 7 144 59t50 137v270h84z" />
    <glyph glyph-name="uni03A9" unicode="&#x3a9;" horiz-adv-x="765" 
d="M90 185q-42 69 -42 163q0 95 42 170t117 117t173 42t173 -42t117 -117t42 -170q0 -93 -41 -163q-40 -69 -110 -111h134v-74h-240v74q45 10 84 45q39 34 63 90q24 55 24 126q0 76 -28 136q-28 61 -84 97t-132 36q-77 0 -132 -36q-56 -36 -84 -97q-28 -60 -28 -136
q0 -71 24 -126q24 -56 63 -90q39 -35 84 -45v-74h-240v74h135q-70 42 -112 111h-2z" />
    <glyph glyph-name="Iotadieresis" unicode="&#x3aa;" horiz-adv-x="239" 
d="M161 667v-667h-83v667h83zM-18 745q-13 13 -13 33q0 19 14 33t33 14q20 0 33 -13q14 -14 14 -33q0 -20 -13 -33t-33 -13q-19 0 -33 14zM186 744q-13 13 -13 33q0 19 14 33t33 14q20 0 33 -13q14 -14 14 -33q0 -20 -13 -33q-14 -14 -33 -14t-33 14z" />
    <glyph glyph-name="Upsilondieresis" unicode="&#x3ab;" horiz-adv-x="626" 
d="M9 667h97l207 -310l207 310h97l-262 -385v-282h-83v282zM175 745q-13 13 -13 33q0 19 14 33t33 14q20 0 33 -13q14 -14 14 -33q0 -20 -13 -33t-33 -13q-19 0 -33 14zM379 744q-13 13 -13 33q0 19 14 33t33 14q20 0 33 -13q14 -14 14 -33q0 -20 -13 -33q-14 -14 -33 -14
t-33 14z" />
    <glyph glyph-name="alphatonos" unicode="&#x3ac;" horiz-adv-x="589" 
d="M530 -12q-46 0 -72 23t-32 66q-25 -39 -70 -64q-44 -25 -96 -25q-63 0 -111 30t-75 87t-27 134t27 134q28 58 76 89q50 32 112 32q49 0 90 -22q43 -23 71 -63v73h76v-370q0 -27 12 -42t34 -15q5 0 10.5 0.5t10.5 1.5l5 -65q-17 -4 -39 -4h-2zM423 350q-22 34 -61 56
q-41 23 -84 23q-71 0 -113 -52q-42 -53 -42 -135q0 -83 42 -135t113 -52q44 0 84 22t61 54v219zM364 774l-57 -200h-38l19 200h76z" />
    <glyph glyph-name="epsilontonos" unicode="&#x3ad;" horiz-adv-x="485" 
d="M95 27q-54 39 -54 101q0 54 41 84q40 29 89 34q-47 6 -82 37q-36 31 -36 81q0 60 54 95q55 35 144 35q120 0 192 -79l-40 -46q-28 33 -65 48q-36 15 -85 15q-53 0 -87 -21t-34 -55q0 -40 35 -61q34 -21 92 -21h83v-61h-83q-135 0 -135 -80q0 -38 34 -60q35 -23 93 -23
q93 0 161 68l42 -52q-75 -78 -203 -78q-97 0 -151 39h-5zM327 773l-57 -200h-38l19 200h76z" />
    <glyph glyph-name="etatonos" unicode="&#x3ae;" horiz-adv-x="551" 
d="M402 317q0 62 -28 87q-29 26 -81 26q-43 0 -81 -22t-61 -54v-353h-75v483h75v-70q28 33 75 57q46 24 96 24q154 0 154 -156v-523h-75v500zM353 775l-57 -200h-38l19 200h76z" />
    <glyph glyph-name="iotatonos" unicode="&#x3af;" horiz-adv-x="239" 
d="M151 482v-370q0 -27 12 -42t35 -15q8 0 18 2l6 -65q-20 -4 -40 -4q-53 0 -80 29q-27 28 -27 84v382zM189 773l-57 -200h-38l19 200h76z" />
    <glyph glyph-name="upsilondieresistonos" unicode="&#x3b0;" horiz-adv-x="562" 
d="M126 48q-51 60 -51 164v271h75v-270q0 -74 33 -116t92 -42q74 0 118 56q43 55 43 140q0 126 -73 211l67 34q40 -51 63 -114q22 -62 22 -131q0 -75 -30 -135q-30 -59 -84 -94q-53 -34 -126 -34q-98 0 -149 60zM352 774l-57 -200h-39l19 200h77zM121 579q-14 14 -14 33
t14 33t33 14q20 0 33 -13q14 -14 14 -33q0 -20 -13 -33q-14 -14 -33 -14t-33 14zM387 578q-13 13 -13 33q0 19 14 33t33 14q20 0 33 -13q14 -14 14 -33q0 -20 -13 -33q-14 -14 -33 -14t-33 14z" />
    <glyph glyph-name="alpha" unicode="&#x3b1;" horiz-adv-x="589" 
d="M530 -12q-46 0 -72 23t-32 66q-25 -39 -70 -64q-44 -25 -96 -25q-63 0 -111 30t-75 87t-27 134t27 134q28 58 76 89q50 32 112 32q49 0 90 -22q43 -23 71 -63v73h76v-370q0 -27 12 -42t34 -15q5 0 10.5 0.5t10.5 1.5l5 -65q-17 -4 -39 -4h-2zM423 350q-22 34 -61 56
q-41 23 -84 23q-71 0 -113 -52q-42 -53 -42 -135q0 -83 42 -135t113 -52q44 0 84 22t61 54v219z" />
    <glyph glyph-name="beta" unicode="&#x3b2;" horiz-adv-x="575" 
d="M74 453q0 73 33 123t84 74t111 24q91 0 150 -48t59 -130q0 -66 -42 -105q-41 -38 -96 -49q35 -3 70 -22q36 -20 60 -57q24 -38 24 -90q0 -54 -27 -96t-74 -66t-105 -24q-55 0 -99 23q-43 22 -72 62v-256h-75zM209 72q40 -21 87 -21q71 0 111 35q39 34 39 93q0 61 -44 93
t-113 32h-35v67h33q62 0 103 30q40 30 40 87q0 55 -37 86q-38 32 -93 32q-65 0 -108 -40q-44 -41 -44 -114v-324q22 -33 63 -54z" />
    <glyph glyph-name="gamma" unicode="&#x3b3;" horiz-adv-x="490" 
d="M207 -49q0 151 -60 295q-60 145 -154 237h88q66 -66 117 -179q52 -114 62 -210q55 75 91 183q36 106 36 206h75q0 -117 -49 -245q-50 -131 -130 -233v-189h-75v135h-1z" />
    <glyph glyph-name="delta" unicode="&#x3b4;" 
d="M408 421q46 -22 81 -71q34 -47 34 -128q0 -59 -29 -114q-29 -54 -82 -87q-54 -33 -124 -33q-72 0 -127 33t-85 87t-30 115q0 73 38 128q37 54 102 81q-39 19 -59 43q-21 25 -21 66q0 37 21 69t62 50q40 18 96 18q112 0 179 -70l-35 -52q-23 28 -60 44q-39 17 -84 17
q-50 0 -78 -21q-29 -21 -29 -54q0 -29 27 -44q28 -15 88 -33q70 -23 117 -45zM373 81q37 24 57 62t20 78q0 56 -25 90q-26 34 -63 54q-19 10 -43 19t-53 18q-70 -21 -108 -68q-37 -46 -37 -111q0 -40 20 -80q19 -39 57 -63q37 -24 87 -24q49 0 87 24z" />
    <glyph glyph-name="epsilon" unicode="&#x3b5;" horiz-adv-x="485" 
d="M95 27q-54 39 -54 101q0 54 41 84q40 29 89 34q-47 6 -82 37q-36 31 -36 81q0 60 54 95q55 35 144 35q120 0 192 -79l-40 -46q-28 33 -65 48q-36 15 -85 15q-53 0 -87 -21t-34 -55q0 -40 35 -61q34 -21 92 -21h83v-61h-83q-135 0 -135 -80q0 -38 34 -60q35 -23 93 -23
q93 0 161 68l42 -52q-75 -78 -203 -78q-97 0 -151 39h-5z" />
    <glyph glyph-name="zeta" unicode="&#x3b6;" horiz-adv-x="489" 
d="M115 54q-72 55 -72 156q0 117 79 215q80 100 222 176h-284v66h382v-57q-320 -185 -320 -394q0 -74 53 -112q52 -37 146 -37q127 0 127 -101q0 -46 -44 -123h-81q46 70 46 108q0 22 -14 36q-13 13 -42 13q-123 0 -194 55z" />
    <glyph glyph-name="eta" unicode="&#x3b7;" horiz-adv-x="551" 
d="M402 317q0 62 -28 87q-29 26 -81 26q-43 0 -81 -22t-61 -54v-353h-75v483h75v-70q28 33 75 57q46 24 96 24q154 0 154 -156v-523h-75v500z" />
    <glyph glyph-name="theta" unicode="&#x3b8;" 
d="M417 633q54 -45 81 -123t27 -176t-27 -176t-81 -123t-132 -45t-132 45t-81 123t-27 176t27 176t81 123t132 45t132 -45zM169 544q-40 -67 -44 -177h320q-5 113 -43 178q-39 66 -117 66q-77 0 -116 -66v-1zM399 120q40 68 44 180h-320q4 -112 44 -180q39 -67 117 -67
t117 67h-2z" />
    <glyph glyph-name="iota" unicode="&#x3b9;" horiz-adv-x="239" 
d="M151 482v-370q0 -27 12 -42t35 -15q8 0 18 2l6 -65q-20 -4 -40 -4q-53 0 -80 29q-27 28 -27 84v382z" />
    <glyph glyph-name="kappa" unicode="&#x3ba;" horiz-adv-x="514" 
d="M150 138v-138h-75v483h75v-257l254 257h95l-214 -219l215 -264h-96l-174 217z" />
    <glyph glyph-name="lambda" unicode="&#x3bb;" horiz-adv-x="490" 
d="M184 654q36 -22 57 -74l242 -581h-82l-160 396l-161 -396h-81l202 487l-32 73q-12 29 -29 41t-42 12q-22 0 -41 -8l-12 67q10 4 27 6q8 1 15.5 1.5t14.5 0.5q50 -2 86 -24z" />
    <glyph glyph-name="uni03BC" unicode="&#x3bc;" horiz-adv-x="565" 
d="M76 480h75v-318q0 -112 110 -112q42 0 80 22t61 54v355h75v-370q0 -27 12 -42t35 -15q8 0 18 2l6 -65q-20 -4 -40 -4q-88 0 -105 86q-26 -36 -68 -61q-41 -24 -84 -24q-76 0 -101 48v-220h-75z" />
    <glyph glyph-name="nu" unicode="&#x3bd;" horiz-adv-x="490" 
d="M82 482l164 -407q64 88 102 197t38 210h75q0 -116 -50 -248q-50 -131 -132 -234h-75l-201 483z" />
    <glyph glyph-name="xi" unicode="&#x3be;" horiz-adv-x="489" 
d="M87 277q42 40 95 51q-47 7 -87 41q-39 33 -39 89q0 45 31 83q32 40 78 56h-100v66h371v-66h-187q-50 -11 -81 -45q-32 -35 -32 -75q0 -51 44 -78q43 -27 108 -27h143v-65h-143q-73 0 -118 -30t-45 -93q0 -60 51 -90t147 -30q127 0 127 -100q0 -46 -44 -123h-81
q19 30 32 62q14 34 14 56q0 20 -13 30t-43 10q-129 0 -199 44q-69 43 -69 129q0 69 42 110z" />
    <glyph glyph-name="omicron" unicode="&#x3bf;" 
d="M160 21q-54 34 -84 93q-30 58 -30 129q0 70 30 129t84 92t126 33t126 -33t84 -91q30 -59 30 -129q0 -71 -30 -129q-30 -59 -84 -93q-53 -34 -126 -34t-126 34v-1zM371 77q35 25 55 69q19 42 19 93t-19 92q-20 43 -55 68q-37 26 -86 26q-51 0 -86 -25t-55 -68
q-19 -41 -19 -92t19 -93q19 -43 56 -69q35 -25 86 -25q49 0 86 26z" />
    <glyph glyph-name="pi" unicode="&#x3c0;" horiz-adv-x="582" 
d="M165 417v-417h-75v417h-80v66h562v-66h-80v-417h-75v417h-252z" />
    <glyph glyph-name="rho" unicode="&#x3c1;" 
d="M75 -186v426q0 70 27 129t78 92t119 33q69 0 120 -33q52 -34 80 -91t28 -129q0 -77 -27 -134t-76 -88t-112 -31q-50 0 -91 22q-43 23 -71 63v-257zM434 329q-19 43 -52 68q-35 26 -81 26q-47 0 -81 -25q-33 -25 -52 -68q-18 -42 -18 -92v-109q19 -32 60 -55
q40 -22 84 -22q71 0 113 53q42 52 42 135q0 50 -18 92z" />
    <glyph glyph-name="uni03C2" unicode="&#x3c2;" horiz-adv-x="483" 
d="M76 372q30 58 84 91t125 33q63 0 104 -22t73 -63l-50 -46q-47 63 -123 63t-121 -52q-45 -53 -45 -135q0 -90 53 -132q52 -42 143 -42q67 0 99 -21t32 -68q0 -26 -12 -62q-13 -38 -31 -72h-78q19 29 32 63q14 37 14 58q0 19 -15 27q-16 8 -45 8q-124 0 -196 63t-72 179
q0 70 30 129z" />
    <glyph glyph-name="sigma" unicode="&#x3c3;" 
d="M161 19q-54 34 -84 93q-30 58 -30 129q0 67 30 123q30 55 87 87q58 32 135 32h248v-67h-115q88 -69 88 -191q0 -66 -28 -119q-29 -55 -82 -86q-55 -32 -124 -32q-73 0 -126 34zM297 409q-55 0 -94 -24q-40 -24 -59 -63q-20 -40 -20 -85q0 -51 19 -93q19 -43 56 -69
q35 -25 86 -25t86 25q37 26 56 67t19 90q0 62 -27 110q-27 49 -72 71h-47z" />
    <glyph glyph-name="tau" unicode="&#x3c4;" horiz-adv-x="458" 
d="M28 416v66h406v-66h-171v-300q0 -29 12 -45q12 -17 36 -17q15 0 29 6q13 6 21 15l22 -56q-32 -31 -90 -31q-53 0 -80 29q-27 28 -27 84v316z" />
    <glyph glyph-name="upsilon" unicode="&#x3c5;" horiz-adv-x="562" 
d="M126 48q-51 60 -51 164v271h75v-270q0 -74 33 -116t92 -42q74 0 118 56q43 55 43 140q0 126 -73 211l67 34q40 -51 63 -114q22 -62 22 -131q0 -75 -30 -135q-30 -59 -84 -94q-53 -34 -126 -34q-98 0 -149 60z" />
    <glyph glyph-name="phi" unicode="&#x3c6;" horiz-adv-x="691" 
d="M576 59q-67 -65 -192 -70v-173h-75v173q-124 4 -193 75q-69 70 -69 187q0 84 47 146q46 61 122 93l35 -56q-60 -27 -93 -75t-33 -109q0 -90 48 -142q48 -53 135 -54v428h50q139 0 213 -66q73 -66 73 -180q0 -111 -68 -177zM518 104q48 48 48 131t-48 131q-48 47 -136 49
v-361q87 1 136 50z" />
    <glyph glyph-name="chi" unicode="&#x3c7;" horiz-adv-x="486" 
d="M95 -184h-83l185 343l-175 324h84l137 -254l137 254h84l-175 -324l186 -343h-84l-148 273z" />
    <glyph glyph-name="psi" unicode="&#x3c8;" horiz-adv-x="708" 
d="M633 222q0 -218 -242 -233v-173h-75v173q-241 15 -241 233v261h75v-261q0 -152 166 -165v611h75v-611q167 14 167 165v261h75v-261z" />
    <glyph glyph-name="omega" unicode="&#x3c9;" horiz-adv-x="771" 
d="M439 23q-37 41 -55 106q-44 -147 -159 -147q-56 0 -96 33t-63 89q-22 54 -22 122q0 90 25 156q26 68 73 108l65 -32q-47 -41 -66 -99q-19 -57 -19 -132q0 -72 30 -124t83 -52q55 0 84 54q28 53 28 134v123h75v-123q0 -80 28 -133q28 -54 84 -54q53 0 83 53q30 52 30 125
q0 75 -19 132q-20 58 -66 99l66 32q48 -39 72 -107t24 -156q0 -67 -22 -121q-23 -56 -63 -89q-41 -33 -96 -33q-65 0 -102 42z" />
    <glyph glyph-name="iotadieresis" unicode="&#x3ca;" horiz-adv-x="239" 
d="M151 482v-370q0 -27 12 -42t35 -15q8 0 18 2l6 -65q-20 -4 -40 -4q-53 0 -80 29q-27 28 -27 84v382zM-25 577q-13 13 -13 33q0 19 14 33t33 14q20 0 33 -13q14 -14 14 -33q0 -20 -13 -33t-33 -13q-19 0 -33 14zM179 576q-13 13 -13 33q0 19 14 33t33 14q20 0 33 -13
q14 -14 14 -33q0 -20 -13 -33q-14 -14 -33 -14t-33 14z" />
    <glyph glyph-name="upsilondieresis" unicode="&#x3cb;" horiz-adv-x="562" 
d="M126 48q-51 60 -51 164v271h75v-270q0 -74 33 -116t92 -42q74 0 118 56q43 55 43 140q0 126 -73 211l67 34q40 -51 63 -114q22 -62 22 -131q0 -75 -30 -135q-30 -59 -84 -94q-53 -34 -126 -34q-98 0 -149 60zM137 578q-13 13 -13 33q0 19 14 33t33 14q20 0 33 -13
q14 -14 14 -33q0 -20 -13 -33t-33 -13q-19 0 -33 14zM341 577q-13 13 -13 33q0 19 14 33t33 14q20 0 33 -13q14 -14 14 -33q0 -20 -13 -33q-14 -14 -33 -14t-33 14z" />
    <glyph glyph-name="omicrontonos" unicode="&#x3cc;" 
d="M160 21q-54 34 -84 93q-30 58 -30 129q0 70 30 129t84 92t126 33t126 -33t84 -91q30 -59 30 -129q0 -71 -30 -129q-30 -59 -84 -93q-53 -34 -126 -34t-126 34v-1zM371 77q35 25 55 69q19 42 19 93t-19 92q-20 43 -55 68q-37 26 -86 26q-51 0 -86 -25t-55 -68
q-19 -41 -19 -92t19 -93q19 -43 56 -69q35 -25 86 -25q49 0 86 26zM361 770l-57 -200h-38l19 200h76z" />
    <glyph glyph-name="upsilontonos" unicode="&#x3cd;" horiz-adv-x="562" 
d="M126 48q-51 60 -51 164v271h75v-270q0 -74 33 -116t92 -42q74 0 118 56q43 55 43 140q0 126 -73 211l67 34q40 -51 63 -114q22 -62 22 -131q0 -75 -30 -135q-30 -59 -84 -94q-53 -34 -126 -34q-98 0 -149 60zM351 774l-57 -200h-38l19 200h76z" />
    <glyph glyph-name="omegatonos" unicode="&#x3ce;" horiz-adv-x="771" 
d="M439 23q-37 41 -55 106q-44 -147 -159 -147q-56 0 -96 33t-63 89q-22 54 -22 122q0 90 25 156q26 68 73 108l65 -32q-47 -41 -66 -99q-19 -57 -19 -132q0 -72 30 -124t83 -52q55 0 84 54q28 53 28 134v123h75v-123q0 -80 28 -133q28 -54 84 -54q53 0 83 53q30 52 30 125
q0 75 -19 132q-20 58 -66 99l66 32q48 -39 72 -107t24 -156q0 -67 -22 -121q-23 -56 -63 -89q-41 -33 -96 -33q-65 0 -102 42zM459 767l-57 -200h-38l19 200h76z" />
    <glyph glyph-name="uni0401" unicode="&#x401;" horiz-adv-x="569" 
d="M515 667v-74h-354v-215h347v-74h-347v-230h354v-74h-437v667h437zM164 745q-13 13 -13 33q0 19 14 33t33 14q20 0 33 -13q14 -14 14 -33q0 -20 -13 -33t-33 -13q-19 0 -33 14zM368 744q-13 13 -13 33q0 19 14 33t33 14q20 0 33 -13q14 -14 14 -33q0 -20 -13 -33
q-14 -14 -33 -14t-33 14z" />
    <glyph glyph-name="uni0402" unicode="&#x402;" horiz-adv-x="769" 
d="M599 93q35 30 35 97v22q0 65 -34 96q-35 32 -112 32q-23 0 -45 -2t-43 -6q-41 -7 -74 -23v-309h-83v593h-211v74h506v-74h-212v-217q90 38 186 38q106 0 156 -50t50 -153v-22q0 -201 -217 -201v74q64 0 99 30z" />
    <glyph glyph-name="uni0403" unicode="&#x403;" horiz-adv-x="550" 
d="M515 667v-74h-354v-593h-83v667h437zM412 867h90l-169 -144h-69z" />
    <glyph glyph-name="uni0404" unicode="&#x404;" horiz-adv-x="676" 
d="M500 83q49 27 78 71l71 -39q-98 -132 -255 -132q-95 0 -174 44q-78 43 -123 123q-45 79 -45 180q0 100 45 180q45 79 123 123q79 44 174 44q84 0 147 -36t106 -97l-70 -39q-28 43 -78 70t-105 27q-66 0 -119 -28q-55 -29 -89 -79q-35 -52 -44 -118h380v-74h-382
q6 -70 41 -126t90 -86t123 -30q55 0 105 27z" />
    <glyph glyph-name="uni0405" unicode="&#x405;" horiz-adv-x="586" 
d="M86 153q39 -42 91 -68q54 -27 119 -27q81 0 119 35t38 81q0 38 -22 61q-22 24 -55 37q-34 14 -91 30q-37 10 -66 19t-52 18q-44 18 -76 54q-31 35 -31 98q0 54 30 96t82 66t117 24q148 0 237 -93l-50 -61q-36 40 -86 60q-51 20 -107 20q-60 0 -99 -30t-39 -76
q0 -31 21 -52t53 -33q33 -12 88 -27q73 -20 120 -39q47 -20 80 -59t33 -104q0 -53 -25 -97q-26 -45 -81 -72q-56 -27 -141 -27q-81 0 -147 29q-65 28 -108 78l49 63z" />
    <glyph glyph-name="uni0406" unicode="&#x406;" horiz-adv-x="239" 
d="M161 667v-667h-83v667h83z" />
    <glyph glyph-name="uni0407" unicode="&#x407;" horiz-adv-x="239" 
d="M161 667v-667h-83v667h83zM-18 745q-13 13 -13 33q0 19 14 33t33 14q20 0 33 -13q14 -14 14 -33q0 -20 -13 -33t-33 -13q-19 0 -33 14zM186 744q-13 13 -13 33q0 19 14 33t33 14q20 0 33 -13q14 -14 14 -33q0 -20 -13 -33q-14 -14 -33 -14t-33 14z" />
    <glyph glyph-name="uni0408" unicode="&#x408;" horiz-adv-x="475" 
d="M55 126q55 -66 126 -66q62 0 98 39t36 102v465h83v-466q0 -104 -59 -158t-153 -54q-54 0 -97 18t-78 59l43 63z" />
    <glyph glyph-name="uni0409" unicode="&#x409;" horiz-adv-x="1060" 
d="M106 101q32 29 58 119q25 88 42 257l17 192h408v-265h185q64 0 112 -27t73 -73t25 -102t-24 -102t-72 -73t-112 -27h-268v593h-254l-11 -121q-20 -210 -55 -313q-36 -105 -83 -138t-116 -33v81q45 0 78 30zM805 73q58 0 96 36q37 36 37 92t-37 92q-38 36 -96 36h-175
v-254z" />
    <glyph glyph-name="uni040A" unicode="&#x40a;" horiz-adv-x="1060" 
d="M161 380h390v287h83v-287h197q62 0 106 -25q45 -26 69 -69q24 -44 24 -96q0 -53 -24 -96q-24 -44 -69 -69q-44 -25 -106 -25h-280v306h-390v-306h-83v667h83v-287zM908 105q33 31 33 84q0 51 -33 84t-87 33h-187v-232h187q53 0 87 32v-1z" />
    <glyph glyph-name="uni040B" unicode="&#x40b;" horiz-adv-x="785" 
d="M601 304q-33 35 -113 35q-23 0 -45 -2t-43 -6q-41 -7 -74 -23v-309h-83v593h-211v74h506v-74h-212v-217q90 38 186 38q110 0 158 -54t48 -175v-185h-83v186q0 85 -33 120z" />
    <glyph glyph-name="uni040C" unicode="&#x40c;" horiz-adv-x="601" 
d="M161 224v-224h-83v667h83v-345l295 345h104l-278 -317l302 -350h-103l-253 300zM421 867h90l-169 -144h-69z" />
    <glyph glyph-name="uni040E" unicode="&#x40e;" horiz-adv-x="626" 
d="M349 116q-32 -67 -72 -98q-41 -32 -108 -32q-21 0 -40 4q-21 4 -36 12l22 71q24 -12 50 -12q38 0 62 21q23 20 52 75l11 20l-281 490h96l228 -413l190 413h94zM217 735q-43 21 -71 60l43 35q22 -28 53 -45q29 -16 68 -16q37 0 68 17q30 16 51 45l43 -35q-29 -39 -70 -60
q-42 -21 -92 -21q-49 0 -91 21z" />
    <glyph glyph-name="uni040F" unicode="&#x40f;" horiz-adv-x="696" 
d="M385 0v-127h-74v127h-233v667h83v-593h374v593h83v-667h-233z" />
    <glyph glyph-name="uni0410" unicode="&#x410;" horiz-adv-x="658" 
d="M160 148l-59 -148h-92l268 667h103l269 -667h-92l-59 148h-338zM473 222l-144 371l-145 -371h289z" />
    <glyph glyph-name="uni0411" unicode="&#x411;" horiz-adv-x="587" 
d="M159 595v-191h185q64 0 112 -27t73 -73t25 -102t-24 -102t-72 -73t-112 -27h-268v667h433v-74zM334 74q58 0 96 36q37 36 37 92t-37 92q-38 36 -96 36h-175v-254z" />
    <glyph glyph-name="uni0412" unicode="&#x412;" horiz-adv-x="629" 
d="M373 667q85 0 137 -47q51 -47 51 -123q0 -61 -34 -102t-84 -52q34 -4 65 -29q30 -24 48 -60t18 -75q0 -81 -51 -130q-50 -49 -141 -49h-304v667h295zM358 379q55 0 85 30t30 77t-30 77t-84 30h-200v-215h200zM362 75q59 0 91 31q33 31 33 84q0 49 -33 82t-91 33h-204
v-230h204z" />
    <glyph glyph-name="uni0413" unicode="&#x413;" horiz-adv-x="550" 
d="M515 667v-74h-354v-593h-83v667h437z" />
    <glyph glyph-name="uni0414" unicode="&#x414;" horiz-adv-x="717" 
d="M78 73q82 82 120 426l18 168h396v-593h77v-197h-74v123h-515v-123h-74v197h52v-1zM226 205q-27 -94 -59 -133h362v519h-246l-10 -99q-10 -96 -21.5 -167t-25.5 -119v-1z" />
    <glyph glyph-name="uni0415" unicode="&#x415;" horiz-adv-x="569" 
d="M515 667v-74h-354v-215h347v-74h-347v-230h354v-74h-437v667h437z" />
    <glyph glyph-name="uni0416" unicode="&#x416;" horiz-adv-x="909" 
d="M496 310v-310h-83v310h-40l-255 -310h-101l289 346l-265 321h101l233 -291h38v291h83v-291h39l233 291h101l-265 -321l289 -346h-102l-254 310h-41z" />
    <glyph glyph-name="uni0417" unicode="&#x417;" horiz-adv-x="584" 
d="M77 146q29 -40 84 -64q54 -24 116 -24q78 0 123 33t45 92q0 61 -46 89q-47 29 -126 29h-116v74h116q71 0 116 27t45 83q0 54 -45 84t-114 30q-113 0 -189 -81l-46 52q41 47 103 75q64 29 139 29q66 0 120 -21q55 -21 86 -61q32 -41 32 -96q0 -66 -45 -105
q-44 -38 -100 -49q35 -3 70 -22q37 -20 60 -55q24 -36 24 -86q0 -56 -31 -99q-32 -45 -88 -68q-57 -24 -130 -24q-85 0 -151 31q-67 31 -100 79l49 53z" />
    <glyph glyph-name="uni0418" unicode="&#x418;" horiz-adv-x="708" 
d="M161 128l384 539h85v-667h-83v549l-389 -549h-80v667h83v-539z" />
    <glyph glyph-name="uni0419" unicode="&#x419;" horiz-adv-x="708" 
d="M161 128l384 539h85v-667h-83v549l-389 -549h-80v667h83v-539zM260 737q-43 21 -71 60l43 35q22 -28 53 -45q29 -16 68 -16q37 0 68 17q30 16 51 45l43 -35q-29 -39 -70 -60q-42 -21 -92 -21q-49 0 -91 21z" />
    <glyph glyph-name="uni041A" unicode="&#x41a;" horiz-adv-x="601" 
d="M161 224v-224h-83v667h83v-345l295 345h104l-278 -317l302 -350h-103l-253 300z" />
    <glyph glyph-name="uni041B" unicode="&#x41b;" horiz-adv-x="712" 
d="M108 99q32 29 58 119q25 88 42 257l17 192h408v-667h-83v593h-254l-11 -121q-20 -210 -55 -313q-36 -105 -83 -138t-116 -33v81q45 0 78 30h-1z" />
    <glyph glyph-name="uni041C" unicode="&#x41c;" horiz-adv-x="809" 
d="M421 0h-34l-226 555v-555h-83v667h119l207 -508l208 508h119v-667h-83v555z" />
    <glyph glyph-name="uni041D" unicode="&#x41d;" horiz-adv-x="712" 
d="M161 306v-306h-83v667h83v-287h390v287h83v-667h-83v306h-390z" />
    <glyph glyph-name="uni041E" unicode="&#x41e;" horiz-adv-x="765" 
d="M91 509q42 78 117 123t173 45q97 0 172 -45t117 -123t42 -176t-42 -176t-117 -123t-172 -45t-172 45t-117 123t-42 176t42 176h-1zM594 471q-30 61 -86 96t-129 35t-129 -35q-55 -34 -85 -96t-30 -139t30 -138t86 -96t129 -35t129 35t86 96t30 138q0 78 -30 140z" />
    <glyph glyph-name="uni041F" unicode="&#x41f;" horiz-adv-x="712" 
d="M161 593v-593h-83v667h556v-667h-83v593h-390z" />
    <glyph glyph-name="uni0420" unicode="&#x420;" horiz-adv-x="587" 
d="M347 669q65 0 113 -27t72 -73q24 -47 24 -102q0 -56 -25 -102t-73 -73t-112 -27h-185v-265h-83v667zM433 557q-38 36 -96 36h-175v-254h175q58 0 96 36q37 36 37 92t-37 92v-2z" />
    <glyph glyph-name="uni0421" unicode="&#x421;" horiz-adv-x="676" 
d="M219 25q-78 43 -123 123q-45 79 -45 180q0 100 45 180q45 79 123 123q79 44 172 44q86 0 149 -36q64 -37 107 -97l-70 -39q-28 43 -78 70t-108 27q-71 0 -129 -34t-91 -96t-33 -140t33 -139t92 -96t129 -35q58 0 108 27q49 27 78 71l71 -39q-98 -132 -258 -132
q-93 0 -172 44v-6z" />
    <glyph glyph-name="uni0422" unicode="&#x422;" horiz-adv-x="570" 
d="M32 593v74h506v-74h-212v-593h-83v593h-211z" />
    <glyph glyph-name="uni0423" unicode="&#x423;" horiz-adv-x="626" 
d="M349 116q-32 -67 -72 -98q-41 -32 -108 -32q-21 0 -40 4q-21 4 -36 12l22 71q24 -12 50 -12q38 0 62 21q23 20 52 75l11 20l-281 490h96l228 -413l190 413h94z" />
    <glyph glyph-name="uni0424" unicode="&#x424;" horiz-adv-x="806" 
d="M716 198q-38 -59 -108 -93q-72 -35 -166 -41v-65h-83v65q-95 6 -165 42q-71 36 -108 94t-37 133q0 73 38 132q37 58 108 94q70 36 165 42v66h83v-66q94 -6 165 -42t108 -94q38 -59 38 -133q0 -75 -37 -133zM194 198q60 -53 165 -60v386q-107 -8 -165 -60
q-59 -53 -59 -133t60 -132zM606 199q60 52 60 132t-60 133q-60 52 -165 60v-386q105 7 165 60v1z" />
    <glyph glyph-name="uni0425" unicode="&#x425;" horiz-adv-x="652" 
d="M113 0h-101l260 342l-245 325h101l198 -267l197 267h101l-244 -324l259 -343h-100l-213 284z" />
    <glyph glyph-name="uni0426" unicode="&#x426;" horiz-adv-x="723" 
d="M78 667h83v-593h374v593h83v-593h77v-197h-74v123h-543v667z" />
    <glyph glyph-name="uni0427" unicode="&#x427;" horiz-adv-x="611" 
d="M173 360q33 -34 113 -34q23 0 45.5 2t43.5 6q41 7 74 23v309h83v-667h-83v291q-90 -38 -186 -38q-109 0 -157 54t-48 176v185h83v-186q0 -86 33 -120z" />
    <glyph glyph-name="uni0428" unicode="&#x428;" horiz-adv-x="958" 
d="M78 0v667h83v-593h277v593h83v-593h276v593h83v-667h-802z" />
    <glyph glyph-name="uni0429" unicode="&#x429;" horiz-adv-x="986" 
d="M957 74v-197h-74v123h-805v667h83v-593h277v593h83v-593h276v593h83v-593h77z" />
    <glyph glyph-name="uni042A" unicode="&#x42a;" horiz-adv-x="752" 
d="M30 595v74h294v-265h185q64 0 112 -27t73 -73t25 -102t-24 -102t-72 -73t-112 -27h-268v593zM499 74q58 0 96 36q37 36 37 92t-37 92q-38 36 -96 36h-175v-254z" />
    <glyph glyph-name="uni042B" unicode="&#x42b;" horiz-adv-x="788" 
d="M344 404q64 0 112 -27t73 -73t25 -102t-24 -102t-72 -73t-112 -27h-268v667h83v-265zM708 669v-667h-83v667h83zM334 74q58 0 96 36q37 36 37 92t-37 92q-38 36 -96 36h-175v-254z" />
    <glyph glyph-name="uni042C" unicode="&#x42c;" horiz-adv-x="587" 
d="M344 404q64 0 112 -27t73 -73t25 -102t-24 -102t-72 -73t-112 -27h-268v667h83v-265zM334 74q58 0 96 36q37 36 37 92t-37 92q-38 36 -96 36h-175v-254z" />
    <glyph glyph-name="uni042D" unicode="&#x42d;" horiz-adv-x="676" 
d="M457 634q78 -44 123 -123q45 -80 45 -180q0 -101 -45 -180q-45 -80 -123 -123q-77 -43 -174 -43q-158 0 -255 132l71 39q28 -43 78 -70q49 -27 105 -27q67 0 123 30q55 30 90 86t41 126h-382v74h380q-9 66 -44 118q-35 51 -89 80q-55 29 -119 29q-56 0 -105 -27
q-50 -27 -78 -70l-70 39q43 61 106 97t147 36q97 0 174 -43h1z" />
    <glyph glyph-name="uni042E" unicode="&#x42e;" horiz-adv-x="992" 
d="M783 631q75 -45 117 -123t42 -176t-42 -176t-117 -123t-172 -45q-91 0 -165 41q-73 40 -117 113q-43 71 -49 164h-118v-306h-83v667h83v-287h120q9 85 53 153q43 67 114 106q70 39 159 39q98 0 173 -45zM738 94q56 35 86 96t30 138q0 78 -30 140q-30 61 -86 96t-129 35
t-129 -35q-55 -34 -85 -96t-30 -139t30 -138t86 -96t129 -35t129 35z" />
    <glyph glyph-name="uni042F" unicode="&#x42f;" horiz-adv-x="608" 
d="M225 272q-48 5 -86 28q-39 24 -63 66t-24 100q0 59 27 106t75 71t109 24h268v-667h-83v265h-134l-170 -265h-97l180 272h-2zM269 593q-59 0 -96 -36t-37 -91q0 -56 38 -92q37 -36 96 -36h176v255h-177z" />
    <glyph glyph-name="uni0430" unicode="&#x430;" horiz-adv-x="527" 
d="M376 57q-61 -67 -160 -67q-43 0 -82 18t-63 54t-24 86q0 51 24 87t63 54t82 18q103 0 160 -66v87q0 48 -34 75q-35 27 -88 27q-45 0 -80 -16q-37 -17 -68 -51l-35 52q39 40 87 60q49 20 107 20q83 0 135 -40t52 -123v-332h-75v55zM374 198q-22 29 -57 44q-36 15 -76 15
q-52 0 -85 -30t-33 -76t33 -76t86 -30q41 0 77 15q35 15 57 44v91z" />
    <glyph glyph-name="uni0431" unicode="&#x431;" horiz-adv-x="574" 
d="M119 541q70 91 234 117l126 20v-67l-124 -21q-118 -21 -175 -75t-72 -140q28 49 78 79q49 30 111 30q68 0 119 -33q52 -33 80 -87q28 -53 28 -120q0 -69 -29 -129q-28 -58 -83 -93q-53 -34 -126 -34t-127 36q-55 36 -83 102q-29 67 -29 154q0 168 71 260zM427 333
q-20 43 -55 68q-37 26 -86 26q-51 0 -86 -25t-55 -68q-19 -41 -19 -91q0 -52 19 -94q19 -43 56 -69q35 -25 86 -25q49 0 86 26q35 25 55 69q19 42 19 94q0 51 -19 92z" />
    <glyph glyph-name="uni0432" unicode="&#x432;" horiz-adv-x="540" 
d="M323 484q74 0 114 -34q41 -35 41 -90q0 -39 -23 -70q-22 -29 -57 -40q38 -9 63 -43q26 -35 26 -75q0 -60 -42 -96t-121 -36h-249v483zM380 401q-21 18 -58 18h-172v-136h172q37 0 58 18t21 48q0 32 -21 50v2zM386 194q-22 22 -63 22h-174v-149h174q40 0 63 20t23 54
q0 32 -22 54z" />
    <glyph glyph-name="uni0433" unicode="&#x433;" horiz-adv-x="436" 
d="M150 0h-75v483h338v-66h-263v-417z" />
    <glyph glyph-name="uni0434" unicode="&#x434;" horiz-adv-x="561" 
d="M60 65q22 34 42 104q19 69 33 203l10 111h332v-417h56v-189h-66v123h-383v-123h-66v189h43zM401 66v351h-195l-6 -64q-20 -221 -67 -288z" />
    <glyph glyph-name="uni0435" unicode="&#x435;" horiz-adv-x="563" 
d="M77 368q32 59 85 93t122 34q71 0 123 -34q52 -35 81 -93q28 -57 28 -132v-19h-391q5 -71 51 -119t122 -48q43 0 81 16q40 17 68 45l36 -49q-74 -74 -192 -74q-70 0 -126 32q-56 31 -87 90q-31 58 -31 132q0 69 31 127zM200 408q-36 -25 -53 -61q-19 -39 -20 -76h317
q-2 40 -19 76q-18 37 -54 61t-88 24q-50 0 -84 -24h1z" />
    <glyph glyph-name="uni0436" unicode="&#x436;" horiz-adv-x="708" 
d="M392 217v-217h-75v217h-32l-179 -217h-94l206 247l-204 236h91l180 -211h32v211h75v-211h31l180 211h92l-205 -236l206 -247h-93l-180 217h-31z" />
    <glyph glyph-name="uni0437" unicode="&#x437;" horiz-adv-x="485" 
d="M68 114q66 -68 160 -68q58 0 93 23q34 22 34 60q0 80 -135 80h-83v61h83q58 0 93 21q34 21 34 61q0 35 -34 56q-35 21 -87 21q-49 0 -85 -15q-37 -15 -65 -48l-40 46q72 79 192 79q91 0 144 -34q54 -35 54 -94q0 -50 -36 -81q-35 -31 -81 -37q29 -2 59 -15q31 -14 50 -39
q20 -26 20 -63q0 -62 -54 -101t-151 -39q-128 0 -203 78l43 52z" />
    <glyph glyph-name="uni0438" unicode="&#x438;" horiz-adv-x="552" 
d="M150 483v-369l253 369h74v-483h-75v376l-255 -376h-72v483h75z" />
    <glyph glyph-name="uni0439" unicode="&#x439;" horiz-adv-x="552" 
d="M150 483v-369l253 369h74v-483h-75v376l-255 -376h-72v483h75zM182 570q-43 21 -71 60l43 35q22 -28 53 -45q29 -16 68 -16q37 0 68 17q30 16 51 45l43 -35q-29 -39 -70 -60q-42 -21 -92 -21q-49 0 -91 21z" />
    <glyph glyph-name="uni043A" unicode="&#x43a;" horiz-adv-x="514" 
d="M150 138v-138h-75v483h75v-257l254 257h95l-214 -219l215 -264h-96l-174 217z" />
    <glyph glyph-name="uni043B" unicode="&#x43b;" horiz-adv-x="552" 
d="M87 127q29 69 44 241l10 114h335v-483h-75v417h-195l-5 -52q-12 -151 -37 -231q-26 -83 -61 -114t-86 -31v73q43 0 71 67z" />
    <glyph glyph-name="uni043C" unicode="&#x43c;" horiz-adv-x="671" 
d="M350 0h-28l-172 385v-385h-75v483h99l162 -365l160 365h100v-483h-75v385z" />
    <glyph glyph-name="uni043D" unicode="&#x43d;" horiz-adv-x="552" 
d="M150 483v-201h252v201h75v-483h-75v216h-252v-216h-75v483h75z" />
    <glyph glyph-name="uni043E" unicode="&#x43e;" 
d="M160 21q-54 34 -84 93q-30 58 -30 129q0 70 30 129t84 92t126 33t126 -33t84 -91q30 -59 30 -129q0 -71 -30 -129q-30 -59 -84 -93q-53 -34 -126 -34t-126 34v-1zM371 77q35 25 55 69q19 42 19 93t-19 92q-20 43 -55 68q-37 26 -86 26q-51 0 -86 -25t-55 -68
q-19 -41 -19 -92t19 -93q19 -43 56 -69q35 -25 86 -25q49 0 86 26z" />
    <glyph glyph-name="uni043F" unicode="&#x43f;" horiz-adv-x="552" 
d="M150 417v-417h-75v483h402v-483h-75v417h-252z" />
    <glyph glyph-name="uni0440" unicode="&#x440;" horiz-adv-x="574" 
d="M74 481h75v-72q27 38 70 60q44 23 93 23q62 0 112 -30q49 -30 76 -87t27 -134t-27 -134t-76 -88t-112 -31q-50 0 -91 22q-43 23 -71 63v-257h-75zM406 370q-42 52 -113 52q-44 0 -84 -22q-41 -23 -60 -54v-218q19 -32 60 -55q40 -22 84 -22q71 0 113 53q42 52 42 135
q0 82 -42 135v-4z" />
    <glyph glyph-name="uni0441" unicode="&#x441;" horiz-adv-x="495" 
d="M76 374q30 58 84 91t125 33q63 0 104 -22t73 -63l-50 -46q-47 63 -123 63t-121 -52q-45 -53 -45 -135q0 -83 45 -135t122 -52q76 0 123 63l50 -46q-32 -41 -73 -63t-104 -22q-71 0 -125 33t-84 91t-30 130q0 70 30 129z" />
    <glyph glyph-name="uni0442" unicode="&#x442;" horiz-adv-x="402" 
d="M23 417v66h356v-66h-141v-417h-75v417h-140z" />
    <glyph glyph-name="uni0443" unicode="&#x443;" horiz-adv-x="490" 
d="M102 -128q25 0 42 11t29 39l32 73l-202 488h81l161 -396l160 396h82l-242 -581q-21 -52 -57 -74q-36 -23 -85 -24q-31 0 -55 7l12 68q19 -8 41 -8z" />
    <glyph glyph-name="uni0444" unicode="&#x444;" horiz-adv-x="683" 
d="M568 420q68 -68 68 -180q0 -110 -68 -180q-68 -69 -189 -75v-172h-75v172q-122 6 -189 75q-68 70 -68 180q0 112 68 180t189 74v172h75v-172q122 -6 189 -73v-1zM172 106q48 -50 132 -52v373q-84 -2 -132 -52q-48 -51 -48 -135t48 -135v1zM510 105q48 51 48 135t-48 135
q-48 50 -132 52v-373q84 2 132 52v-1z" />
    <glyph glyph-name="uni0445" unicode="&#x445;" horiz-adv-x="486" 
d="M98 0h-86l185 248l-175 235h87l134 -184l134 184h87l-175 -235l186 -248h-87l-145 198z" />
    <glyph glyph-name="uni0446" unicode="&#x446;" horiz-adv-x="552" 
d="M75 483h75v-417h243v417h75v-417h56v-189h-66v123h-383v483z" />
    <glyph glyph-name="uni0447" unicode="&#x447;" horiz-adv-x="541" 
d="M138 346q0 -65 30 -90q29 -25 93 -25q34 0 71 8q33 7 57 20v225h75v-483h-75v197q-14 -7 -30.5 -12.5t-36.5 -10.5q-39 -9 -79 -9q-93 0 -136 38q-42 37 -42 120v159h75v-137h-2z" />
    <glyph glyph-name="uni0448" unicode="&#x448;" horiz-adv-x="783" 
d="M75 0v483h75v-417h204v417h75v-417h204v417h75v-483h-633z" />
    <glyph glyph-name="uni0449" unicode="&#x449;" horiz-adv-x="798" 
d="M770 66v-189h-66v123h-629v483h75v-417h204v417h75v-417h204v417h75v-417h62z" />
    <glyph glyph-name="uni044A" unicode="&#x44a;" horiz-adv-x="610" 
d="M22 419v66h215v-173h174q53 0 88 -22q36 -23 54 -58q18 -36 18 -76t-18 -76q-18 -35 -54 -58q-35 -22 -87 -22h-249v417zM404 68q44 0 66 25q23 26 23 64q0 39 -22 64t-66 25h-168v-178h167z" />
    <glyph glyph-name="uni044B" unicode="&#x44b;" horiz-adv-x="712" 
d="M323 312q53 0 88 -22q36 -23 54 -58q18 -36 18 -76t-18 -76q-18 -35 -54 -58q-35 -22 -87 -22h-249v483h75v-173zM636 485v-483h-75v483h75zM316 68q44 0 66 25q23 26 23 64q0 39 -22 64t-66 25h-168v-178h167z" />
    <glyph glyph-name="uni044C" unicode="&#x44c;" horiz-adv-x="522" 
d="M323 312q53 0 88 -22q36 -23 54 -58q18 -36 18 -76t-18 -76q-18 -35 -54 -58q-35 -22 -87 -22h-249v483h75v-173zM316 68q44 0 66 25q23 26 23 64q0 39 -22 64t-66 25h-168v-178h167z" />
    <glyph glyph-name="uni044D" unicode="&#x44d;" horiz-adv-x="516" 
d="M352 459q55 -33 87 -90q32 -58 32 -130q0 -73 -32 -132t-87 -90q-56 -32 -126 -32q-115 0 -192 74l36 49q28 -28 68 -45q38 -16 81 -16q50 0 87 22q38 23 59 60t24 81h-266v65h267q-3 39 -24 75q-21 37 -60 59q-40 23 -90 23q-40 0 -76 -15q-37 -15 -65 -45l-36 49
q72 74 183 74q72 0 128 -33z" />
    <glyph glyph-name="uni044E" unicode="&#x44e;" horiz-adv-x="767" 
d="M604 463q54 -33 84 -91q30 -59 30 -129q0 -71 -30 -129q-30 -59 -84 -93q-53 -34 -126 -34q-66 0 -118 30t-82 82t-36 117h-93v-216h-75v483h75v-201h94q9 63 40 110q32 48 82 75q51 27 115 27q72 0 126 -33zM561 81q36 26 56 68q19 41 19 93q0 51 -19 92q-20 43 -55 68
q-37 26 -86 26q-50 0 -85 -25t-55 -68q-19 -41 -19 -92t19 -93q19 -43 56 -69q35 -25 86 -25q49 0 86 26z" />
    <glyph glyph-name="uni044F" unicode="&#x44f;" horiz-adv-x="547" 
d="M189 190q-56 8 -90 46t-34 99q0 63 41 106q40 42 111 42h255v-483h-75v187h-132l-118 -187h-88l129 190h1zM224 417q-39 0 -61 -22t-22 -60t22 -60t63 -22h172v164h-174z" />
    <glyph glyph-name="uni0451" unicode="&#x451;" horiz-adv-x="563" 
d="M77 368q32 59 85 93t122 34q71 0 123 -34q52 -35 81 -93q28 -57 28 -132v-19h-391q5 -71 51 -119t122 -48q43 0 81 16q40 17 68 45l36 -49q-74 -74 -192 -74q-70 0 -126 32q-56 31 -87 90q-31 58 -31 132q0 69 31 127zM200 408q-36 -25 -53 -61q-19 -39 -20 -76h317
q-2 40 -19 76q-18 37 -54 61t-88 24q-50 0 -84 -24h1zM146 577q-13 13 -13 33q0 19 14 33t33 14q20 0 33 -13q14 -14 14 -33q0 -20 -13 -33t-33 -13q-19 0 -33 14zM350 576q-13 13 -13 33q0 19 14 33t33 14q20 0 33 -13q14 -14 14 -33q0 -20 -13 -33q-14 -14 -33 -14t-33 14
z" />
    <glyph glyph-name="uni0452" unicode="&#x452;" horiz-adv-x="554" 
d="M290 -126q15 -5 36 -5q35 0 56 21t21 64v363q0 62 -28 87q-29 26 -81 26q-43 0 -81 -22t-61 -54v-353h-75v535h-68v48h68v84h75v-84h157v-48h-157v-122q28 33 75 57q46 24 96 24q155 0 155 -156v-386q0 -72 -37 -110q-38 -39 -105 -39q-34 0 -54 7l10 63h-2z" />
    <glyph glyph-name="uni0453" unicode="&#x453;" horiz-adv-x="436" 
d="M150 0h-75v483h338v-66h-263v-417zM355 700h90l-169 -144h-69z" />
    <glyph glyph-name="uni0454" unicode="&#x454;" horiz-adv-x="516" 
d="M381 66q40 17 68 45l36 -49q-74 -74 -192 -74q-70 0 -126 32q-56 31 -87 90q-31 58 -31 132q0 73 32 131q31 57 87 90q55 33 126 33q112 0 183 -74l-36 -49q-29 29 -64 45t-76 16q-50 0 -90 -23q-39 -23 -60 -58q-21 -36 -24 -75h267v-65h-266q1 -43 23 -81
q21 -38 60 -60q38 -22 89 -22q43 0 81 16z" />
    <glyph glyph-name="uni0455" unicode="&#x455;" horiz-adv-x="465" 
d="M71 111q25 -29 69 -48q45 -20 90 -20q55 0 84 22q30 22 30 58t-31 54q-32 18 -93 33q-56 13 -90 27q-35 13 -60 42q-25 28 -25 75q0 37 21 69q21 31 62 51q39 19 96 19q110 0 180 -70l-35 -52q-23 28 -60 44q-39 17 -83 17q-49 0 -78 -20t-29 -53q0 -32 30 -47
q31 -16 89 -29q57 -14 92 -27q37 -14 62 -43q26 -31 26 -79q0 -64 -50 -105t-140 -41q-123 0 -195 76l39 54z" />
    <glyph glyph-name="uni0456" unicode="&#x456;" horiz-adv-x="225" 
d="M77 575q-15 15 -15 36t15 36t35 15q21 0 36 -15t15 -36t-15 -36t-36 -15q-20 0 -35 15zM150 482v-483h-75v483h75z" />
    <glyph glyph-name="uni0457" unicode="&#x457;" horiz-adv-x="225" 
d="M150 483v-483h-75v483h75zM-26 578q-13 13 -13 33q0 19 14 33t33 14q20 0 33 -13q14 -14 14 -33q0 -20 -13 -33t-33 -13q-19 0 -33 14zM178 577q-13 13 -13 33q0 19 14 33t33 14q20 0 33 -13q14 -14 14 -33q0 -20 -13 -33q-14 -14 -33 -14t-33 14z" />
    <glyph glyph-name="uni0458" unicode="&#x458;" horiz-adv-x="225" 
d="M77 575q-15 15 -15 36t15 36t35 15q21 0 36 -15t15 -36t-15 -36t-36 -15q-20 0 -35 15zM150 -48q0 -72 -37 -110q-38 -39 -105 -39q-33 0 -54 7l10 63q13 -5 36 -5q75 0 75 84v530h75v-530z" />
    <glyph glyph-name="uni0459" unicode="&#x459;" horiz-adv-x="849" 
d="M87 129q29 69 44 241l10 114h335v-173h173q53 0 88 -22q36 -23 54 -58q18 -36 18 -76t-18 -76q-18 -35 -54 -58q-35 -22 -88 -22h-248v417h-195l-5 -52q-12 -151 -37 -231q-26 -83 -61 -114t-86 -31v73q43 0 71 67zM641 67q43 0 66 26t23 63q0 39 -22 64t-66 25h-167
v-178h166z" />
    <glyph glyph-name="uni045A" unicode="&#x45a;" horiz-adv-x="849" 
d="M150 482v-201h252v201h75v-181h176q51 0 87 -21t54 -56t18 -75q0 -39 -18 -73t-54 -55t-87 -21h-251v216h-252v-216h-75v483zM646 64q41 0 64 24q22 23 22 61t-21 62t-64 24h-170v-170z" />
    <glyph glyph-name="uni045B" unicode="&#x45b;" horiz-adv-x="554" 
d="M478 2h-75v318q0 60 -28 85t-81 25q-42 0 -80 -22q-40 -23 -62 -54v-353h-75v535h-68v48h68v84h75v-84h157v-48h-157v-122q28 33 75 57q46 24 98 24q154 0 154 -154z" />
    <glyph glyph-name="uni045C" unicode="&#x45c;" horiz-adv-x="514" 
d="M150 138v-138h-75v483h75v-257l254 257h95l-214 -219l215 -264h-96l-174 217zM378 700h90l-169 -144h-69z" />
    <glyph glyph-name="uni045E" unicode="&#x45e;" horiz-adv-x="490" 
d="M102 -128q25 0 42 11t29 39l32 73l-202 488h81l161 -396l160 396h82l-242 -581q-21 -52 -57 -74q-36 -23 -85 -24q-31 0 -55 7l12 68q19 -8 41 -8zM152 571q-43 21 -71 60l43 35q22 -28 53 -45q29 -16 68 -16q37 0 68 17q30 16 51 45l43 -35q-29 -39 -70 -60
q-42 -21 -92 -21q-49 0 -91 21z" />
    <glyph glyph-name="uni045F" unicode="&#x45f;" horiz-adv-x="544" 
d="M305 0v-126h-66v126h-164v483h75v-417h243v417h75v-483h-163z" />
    <glyph glyph-name="uni0490" unicode="&#x490;" horiz-adv-x="550" 
d="M78 667h363v123h74v-197h-354v-593h-83v667z" />
    <glyph glyph-name="uni0491" unicode="&#x491;" horiz-adv-x="436" 
d="M75 483h272v126h66v-192h-263v-417h-75v483z" />
    <glyph glyph-name="uni0492" unicode="&#x492;" horiz-adv-x="550" 
d="M161 362h198v-64h-198v-298h-83v298h-68v64h68v305h437v-74h-354v-231z" />
    <glyph glyph-name="uni0493" unicode="&#x493;" horiz-adv-x="436" 
d="M150 272h135v-53h-135v-219h-75v219h-65v53h65v211h338v-66h-263v-145z" />
    <glyph glyph-name="uni049A" unicode="&#x49a;" horiz-adv-x="614" 
d="M598 -123h-74v123h-43l-253 300l-67 -76v-224h-83v667h83v-345l295 345h104l-278 -317l240 -276h76v-197z" />
    <glyph glyph-name="uni049B" unicode="&#x49b;" horiz-adv-x="537" 
d="M523 -123h-66v123h-53l-174 217l-80 -79v-138h-75v483h75v-257l254 257h95l-214 -219l163 -198h75v-189z" />
    <glyph glyph-name="uni04B0" unicode="&#x4b0;" horiz-adv-x="626" 
d="M573 314v-64h-218v-250h-83v250h-219v64h197l-241 353h97l207 -310l207 310h97l-240 -353h196z" />
    <glyph glyph-name="uni04B1" unicode="&#x4b1;" horiz-adv-x="490" 
d="M448 53v-53h-166v-184h-75v184h-165v53h142l-181 430h81l161 -413l160 413h82l-181 -430h142z" />
    <glyph glyph-name="uni04B2" unicode="&#x4b2;" horiz-adv-x="674" 
d="M660 -123h-74v123h-47l-213 284l-213 -284h-101l260 342l-245 325h101l198 -267l197 267h101l-244 -324l204 -269h76v-197z" />
    <glyph glyph-name="uni04B3" unicode="&#x4b3;" horiz-adv-x="515" 
d="M501 -123h-66v123h-47l-145 198l-145 -198h-86l185 248l-175 235h87l134 -184l134 184h87l-175 -235l138 -182h74v-189z" />
    <glyph glyph-name="uni04A2" unicode="&#x4a2;" horiz-adv-x="739" 
d="M551 0v306h-390v-306h-83v667h83v-287h390v287h83v-593h77v-197h-74v123h-86z" />
    <glyph glyph-name="uni04A3" unicode="&#x4a3;" horiz-adv-x="561" 
d="M402 0v216h-252v-216h-75v483h75v-201h252v201h75v-417h56v-189h-66v123h-65z" />
    <glyph glyph-name="uni04E8" unicode="&#x4e8;" horiz-adv-x="765" 
d="M553 633q75 -45 117 -123t42 -176t-42 -176t-117 -123t-172 -45t-172 45t-117 123t-42 176t42 176t117 123t173 45q97 0 172 -45h-1zM217 540q-65 -64 -77 -163h484q-12 101 -78 164t-165 63q-101 0 -165 -63zM503 91q55 32 86 87t36 126h-488q6 -69 38 -126
q31 -56 84 -87q52 -31 122 -31q69 0 122 31z" />
    <glyph glyph-name="uni04E9" unicode="&#x4e9;" 
d="M412 460q54 -33 84 -91q30 -59 30 -129q0 -71 -30 -129q-30 -59 -84 -93q-53 -34 -126 -34t-126 34q-54 34 -84 93q-30 58 -30 129q0 70 30 129t84 92t126 33t126 -33v-1zM179 382q-43 -46 -50 -112h316q-9 67 -51 112t-108 45t-108 -45h1zM397 99q41 46 49 117h-318
q8 -71 49 -117q42 -46 110 -46t110 46z" />
    <glyph glyph-name="uni1E02" unicode="&#x1e02;" horiz-adv-x="629" 
d="M373 667q85 0 137 -47q51 -47 51 -123q0 -61 -34 -102t-84 -52q34 -4 65 -29q30 -24 48 -60t18 -75q0 -81 -51 -130q-50 -49 -141 -49h-304v667h295zM358 379q55 0 85 30t30 77t-30 77t-84 30h-200v-215h200zM362 75q59 0 91 31q33 31 33 84q0 49 -33 82t-91 33h-204
v-230h204zM274 810q14 14 33 14q20 0 33 -13q14 -14 14 -33q0 -20 -13 -33t-33 -13q-19 0 -33 14t-14 33t14 33z" />
    <glyph glyph-name="uni1E03" unicode="&#x1e03;" horiz-adv-x="575" 
d="M152 664v-257q30 40 72 63q43 23 91 23q64 0 111 -31q48 -31 75 -89q27 -57 27 -133q0 -77 -27 -134t-75 -87t-111 -30q-49 0 -93 23q-44 22 -72 60v-72h-75v667zM212 71q40 -22 84 -22q72 0 114 52t42 135q0 82 -42 135t-114 53q-44 0 -84 -22q-41 -23 -60 -55v-219
q19 -32 60 -54v-3zM261 803q14 14 33 14q20 0 33 -13q14 -14 14 -33q0 -20 -13 -33t-33 -13q-19 0 -33 14t-14 33t14 33z" />
    <glyph glyph-name="uni1E0A" unicode="&#x1e0a;" horiz-adv-x="700" 
d="M306 666q102 0 179 -43q78 -44 120 -120q42 -77 42 -171q0 -95 -42 -170q-42 -76 -120 -119q-77 -43 -179 -43h-228v667zM305 73q79 0 138 35t89 93t30 131t-30 132t-88 93q-59 35 -138 35h-145v-519h145h-1zM317 808q14 14 33 14q20 0 33 -13q14 -14 14 -33
q0 -20 -13 -33t-33 -13q-19 0 -33 14t-14 33t14 33z" />
    <glyph glyph-name="uni1E0B" unicode="&#x1e0b;" horiz-adv-x="575" 
d="M426 72q-29 -38 -72 -60q-44 -23 -93 -23q-63 0 -111 30t-75 87t-27 134t27 134q28 58 76 89q50 32 112 32q49 0 90 -22q42 -23 72 -63v257h75v-667h-75v72h1zM426 350q-22 34 -61 56q-41 23 -84 23q-71 0 -113 -52q-42 -53 -42 -135q0 -83 42 -135t113 -52q44 0 84 22
t61 54v219zM257 809q14 14 33 14q20 0 33 -13q14 -14 14 -33q0 -20 -13 -33t-33 -13q-19 0 -33 14t-14 33t14 33z" />
    <glyph glyph-name="uni1E1E" unicode="&#x1e1e;" horiz-adv-x="550" 
d="M515 667v-74h-354v-215h347v-74h-347v-304h-83v667h437zM267 809q14 14 33 14q20 0 33 -13q14 -14 14 -33q0 -20 -13 -33t-33 -13q-19 0 -33 14t-14 33t14 33z" />
    <glyph glyph-name="uni1E1F" unicode="&#x1e1f;" horiz-adv-x="283" 
d="M16 415v66h80v37q0 73 38 116q37 42 102 42q45 0 73 -17l-19 -56q-20 11 -43 11q-38 0 -57 -24q-19 -23 -19 -70v-37h98v-66h-98v-417h-75v417zM179 807q14 14 33 14q20 0 33 -13q14 -14 14 -33q0 -20 -13 -33t-33 -13q-19 0 -33 14t-14 33t14 33z" />
    <glyph glyph-name="uni1E22" unicode="&#x1e22;" horiz-adv-x="712" 
d="M161 306v-306h-83v667h83v-287h390v287h83v-667h-83v306h-390zM322 809q14 14 33 14q20 0 33 -13q14 -14 14 -33q0 -20 -13 -33t-33 -13q-19 0 -33 14t-14 33t14 33z" />
    <glyph glyph-name="uni1E23" unicode="&#x1e23;" horiz-adv-x="552" 
d="M401 320q0 60 -28 85t-81 25q-42 0 -80 -22q-40 -23 -62 -54v-353h-75v667h75v-254q28 33 75 57q46 24 98 24q154 0 154 -154v-341h-75v318zM241 811q14 14 33 14q20 0 33 -13q14 -14 14 -33q0 -20 -13 -33t-33 -13q-19 0 -33 14t-14 33t14 33z" />
    <glyph glyph-name="uni1E56" unicode="&#x1e56;" horiz-adv-x="587" 
d="M347 669q65 0 113 -27t72 -73q24 -47 24 -102q0 -56 -25 -102t-73 -73t-112 -27h-185v-265h-83v667zM433 557q-38 36 -96 36h-175v-254h175q58 0 96 36q37 36 37 92t-37 92v-2zM273 808q14 14 33 14q20 0 33 -13q14 -14 14 -33q0 -20 -13 -33t-33 -13q-19 0 -33 14
t-14 33t14 33z" />
    <glyph glyph-name="uni1E57" unicode="&#x1e57;" horiz-adv-x="574" 
d="M74 481h75v-72q27 38 70 60q44 23 93 23q62 0 112 -30q49 -30 76 -87t27 -134t-27 -134t-76 -88t-112 -31q-50 0 -91 22q-43 23 -71 63v-257h-75zM406 370q-42 52 -113 52q-44 0 -84 -22q-41 -23 -60 -54v-218q19 -32 60 -55q40 -22 84 -22q71 0 113 53q42 52 42 135
q0 82 -42 135v-4zM272 636q14 14 33 14q20 0 33 -13q14 -14 14 -33q0 -20 -13 -33t-33 -13q-19 0 -33 14t-14 33t14 33z" />
    <glyph glyph-name="uni1E60" unicode="&#x1e60;" horiz-adv-x="586" 
d="M86 153q39 -42 91 -68q54 -27 119 -27q81 0 119 35t38 81q0 38 -22 61q-22 24 -55 37q-34 14 -91 30q-37 10 -66 19t-52 18q-44 18 -76 54q-31 35 -31 98q0 54 30 96t82 66t117 24q148 0 237 -93l-50 -61q-36 40 -86 60q-51 20 -107 20q-60 0 -99 -30t-39 -76
q0 -31 21 -52t53 -33q33 -12 88 -27q73 -20 120 -39q47 -20 80 -59t33 -104q0 -53 -25 -97q-26 -45 -81 -72q-56 -27 -141 -27q-81 0 -147 29q-65 28 -108 78l49 63zM253 805q14 14 33 14q20 0 33 -13q14 -14 14 -33q0 -20 -13 -33t-33 -13q-19 0 -33 14t-14 33t14 33z" />
    <glyph glyph-name="uni1E61" unicode="&#x1e61;" horiz-adv-x="465" 
d="M71 111q25 -29 69 -48q45 -20 90 -20q55 0 84 22q30 22 30 58t-31 54q-32 18 -93 33q-56 13 -90 27q-35 13 -60 42q-25 28 -25 75q0 37 21 69q21 31 62 51q39 19 96 19q110 0 180 -70l-35 -52q-23 28 -60 44q-39 17 -83 17q-49 0 -78 -20t-29 -53q0 -32 30 -47
q31 -16 89 -29q57 -14 92 -27q37 -14 62 -43q26 -31 26 -79q0 -64 -50 -105t-140 -41q-123 0 -195 76l39 54zM191 635q14 14 33 14q20 0 33 -13q14 -14 14 -33q0 -20 -13 -33t-33 -13q-19 0 -33 14t-14 33t14 33z" />
    <glyph glyph-name="uni1E6A" unicode="&#x1e6a;" horiz-adv-x="570" 
d="M32 593v74h506v-74h-212v-593h-83v593h-211zM251 809q14 14 33 14q20 0 33 -13q14 -14 14 -33q0 -20 -13 -33t-33 -13q-19 0 -33 14t-14 33t14 33z" />
    <glyph glyph-name="uni1E6B" unicode="&#x1e6b;" horiz-adv-x="294" 
d="M119 16q-27 28 -27 84v316h-80v66h80v132h75v-132h98v-66h-98v-300q0 -29 12 -45q12 -17 36 -17q15 0 29 6q13 6 21 15l22 -56q-32 -31 -90 -31q-53 0 -80 29zM96 808q14 14 33 14q20 0 33 -13q14 -14 14 -33q0 -20 -13 -33t-33 -13q-19 0 -33 14t-14 33t14 33z" />
    <glyph glyph-name="Wgrave" unicode="&#x1e80;" horiz-adv-x="883" 
d="M294 0h-90l-190 667h92l148 -556l153 556h69l153 -556l147 556h92l-190 -667h-90l-147 538zM321 867l148 -144h-57l-169 144h78z" />
    <glyph glyph-name="wgrave" unicode="&#x1e81;" horiz-adv-x="734" 
d="M241 0h-75l-154 483h78l118 -385l127 385h64l127 -385l118 385h78l-154 -483h-75l-126 388zM247 700l148 -144h-57l-169 144h78z" />
    <glyph glyph-name="Wacute" unicode="&#x1e82;" horiz-adv-x="883" 
d="M294 0h-90l-190 667h92l148 -556l153 556h69l153 -556l147 556h92l-190 -667h-90l-147 538zM558 867h78l-169 -144h-57z" />
    <glyph glyph-name="wacute" unicode="&#x1e83;" horiz-adv-x="734" 
d="M241 0h-75l-154 483h78l118 -385l127 385h64l127 -385l118 385h78l-154 -483h-75l-126 388zM484 700h78l-169 -144h-57z" />
    <glyph glyph-name="Wdieresis" unicode="&#x1e84;" horiz-adv-x="883" 
d="M294 0h-90l-190 667h92l148 -556l153 556h69l153 -556l147 556h92l-190 -667h-90l-147 538zM303 745q-13 13 -13 33q0 19 14 33t33 14q20 0 33 -13q14 -14 14 -33q0 -20 -13 -33t-33 -13q-19 0 -33 14zM507 744q-13 13 -13 33q0 19 14 33t33 14q20 0 33 -13
q14 -14 14 -33q0 -20 -13 -33q-14 -14 -33 -14t-33 14z" />
    <glyph glyph-name="wdieresis" unicode="&#x1e85;" horiz-adv-x="734" 
d="M241 0h-75l-154 483h78l118 -385l127 385h64l127 -385l118 385h78l-154 -483h-75l-126 388zM229 578q-13 13 -13 33q0 19 14 33t33 14q20 0 33 -13q14 -14 14 -33q0 -20 -13 -33t-33 -13q-19 0 -33 14zM433 577q-13 13 -13 33q0 19 14 33t33 14q20 0 33 -13
q14 -14 14 -33q0 -20 -13 -33q-14 -14 -33 -14t-33 14z" />
    <glyph glyph-name="uni1E9E" unicode="&#x1e9e;" horiz-adv-x="672" 
d="M573 339q65 -50 65 -147q0 -59 -30 -105q-30 -47 -81 -72q-52 -26 -116 -26q-121 0 -192 74l51 58q28 -28 63 -43q34 -15 79 -15q63 0 103 35q39 34 39 95q0 71 -55 101q-56 30 -157 30h-37v71l163 176q-47 33 -117 33q-91 0 -141 -53q-49 -52 -49 -146v-405h-83v407
q0 126 69 198t203 72q75 0 132 -24t92 -74l-172 -187q109 -5 173 -54z" />
    <glyph glyph-name="uni1EA0" unicode="&#x1ea0;" horiz-adv-x="658" 
d="M160 148l-59 -148h-92l268 667h103l269 -667h-92l-59 148h-338zM473 222l-144 371l-145 -371h289zM295 -86q14 14 33 14t33 -14t14 -33q0 -20 -13 -33t-33 -13q-19 0 -33 14t-14 33t14 33z" />
    <glyph glyph-name="uni1EA1" unicode="&#x1ea1;" horiz-adv-x="527" 
d="M376 57q-61 -67 -160 -67q-43 0 -82 18t-63 54t-24 86q0 51 24 87t63 54t82 18q103 0 160 -66v87q0 48 -34 75q-35 27 -88 27q-45 0 -80 -16q-37 -17 -68 -51l-35 52q39 40 87 60q49 20 107 20q83 0 135 -40t52 -123v-332h-75v55zM374 198q-22 29 -57 44q-36 15 -76 15
q-52 0 -85 -30t-33 -76t33 -76t86 -30q41 0 77 15q35 15 57 44v91zM229 -81q14 14 33 14t33 -14t14 -33q0 -20 -13 -33t-33 -13q-19 0 -33 14t-14 33t14 33z" />
    <glyph glyph-name="uni1EA2" unicode="&#x1ea2;" horiz-adv-x="658" 
d="M160 148l-59 -148h-92l268 667h103l269 -667h-92l-59 148h-338zM473 222l-144 371l-145 -371h289zM261 862q26 20 60 20q40 0 66 -22q27 -23 27 -67q0 -20 -6 -36q-6 -17 -19 -34h-51q29 32 29 68q0 26 -12 38t-33 12q-38 0 -53 -42l-42 13q10 31 36 51z" />
    <glyph glyph-name="uni1EA3" unicode="&#x1ea3;" horiz-adv-x="527" 
d="M376 57q-61 -67 -160 -67q-43 0 -82 18t-63 54t-24 86q0 51 24 87t63 54t82 18q103 0 160 -66v87q0 48 -34 75q-35 27 -88 27q-45 0 -80 -16q-37 -17 -68 -51l-35 52q39 40 87 60q49 20 107 20q83 0 135 -40t52 -123v-332h-75v55zM374 198q-22 29 -57 44q-36 15 -76 15
q-52 0 -85 -30t-33 -76t33 -76t86 -30q41 0 77 15q35 15 57 44v91zM195 700q26 20 60 20q40 0 66 -22q27 -23 27 -67q0 -20 -6 -36q-6 -17 -19 -34h-51q29 32 29 68q0 26 -12 38t-33 12q-38 0 -53 -42l-42 13q10 31 36 51z" />
    <glyph glyph-name="uni1EA4" unicode="&#x1ea4;" horiz-adv-x="658" 
d="M579 888h78l-169 -108h-57zM249 705h-51l95 108h72l98 -108h-51l-83 80zM160 148l-59 -148h-92l268 667h103l269 -667h-92l-59 148h-338zM473 222l-144 371l-145 -371h289z" />
    <glyph glyph-name="uni1EA5" unicode="&#x1ea5;" horiz-adv-x="527" 
d="M376 57q-61 -67 -160 -67q-43 0 -82 18t-63 54t-24 86q0 51 24 87t63 54t82 18q103 0 160 -66v87q0 48 -34 75q-35 27 -88 27q-45 0 -80 -16q-37 -17 -68 -51l-35 52q39 40 87 60q49 20 107 20q83 0 135 -40t52 -123v-332h-75v55zM374 198q-22 29 -57 44q-36 15 -76 15
q-52 0 -85 -30t-33 -76t33 -76t86 -30q41 0 77 15q35 15 57 44v91zM183 561h-51l95 144h72l98 -144h-51l-83 106zM513 805h78l-169 -144h-57z" />
    <glyph glyph-name="uni1EA6" unicode="&#x1ea6;" horiz-adv-x="658" 
d="M83 888l148 -108h-57l-169 108h78zM249 705h-51l95 108h72l98 -108h-51l-83 80zM160 148l-59 -148h-92l268 667h103l269 -667h-92l-59 148h-338zM473 222l-144 371l-145 -371h289z" />
    <glyph glyph-name="uni1EA7" unicode="&#x1ea7;" horiz-adv-x="527" 
d="M376 57q-61 -67 -160 -67q-43 0 -82 18t-63 54t-24 86q0 51 24 87t63 54t82 18q103 0 160 -66v87q0 48 -34 75q-35 27 -88 27q-45 0 -80 -16q-37 -17 -68 -51l-35 52q39 40 87 60q49 20 107 20q83 0 135 -40t52 -123v-332h-75v55zM374 198q-22 29 -57 44q-36 15 -76 15
q-52 0 -85 -30t-33 -76t33 -76t86 -30q41 0 77 15q35 15 57 44v91zM183 561h-51l95 144h72l98 -144h-51l-83 106zM17 805l148 -144h-57l-169 144h78z" />
    <glyph glyph-name="uni1EA8" unicode="&#x1ea8;" horiz-adv-x="658" 
d="M352 884q25 15 60 15q38 0 66 -17q27 -17 27 -50q0 -15 -6 -27t-19 -25h-51q29 23 29 51q0 18 -12 27t-33 9q-38 0 -53 -31l-42 10q11 23 36 38h-2zM247 704h-51l95 108h72l98 -108h-51l-83 80zM158 147l-59 -148h-92l268 667h103l269 -667h-92l-59 148h-338zM471 221
l-144 371l-145 -371h289z" />
    <glyph glyph-name="uni1EA9" unicode="&#x1ea9;" horiz-adv-x="527" 
d="M376 57q-61 -67 -160 -67q-43 0 -82 18t-63 54t-24 86q0 51 24 87t63 54t82 18q103 0 160 -66v87q0 48 -34 75q-35 27 -88 27q-45 0 -80 -16q-37 -17 -68 -51l-35 52q39 40 87 60q49 20 107 20q83 0 135 -40t52 -123v-332h-75v55zM374 198q-22 29 -57 44q-36 15 -76 15
q-52 0 -85 -30t-33 -76t33 -76t86 -30q41 0 77 15q35 15 57 44v91zM183 561h-51l95 144h72l98 -144h-51l-83 106zM286 799q26 20 60 20q40 0 66 -22q27 -23 27 -67q0 -20 -6 -36q-6 -17 -19 -34h-51q29 32 29 68q0 26 -12 38t-33 12q-38 0 -53 -42l-42 13q10 31 36 51z" />
    <glyph glyph-name="uni1EAA" unicode="&#x1eaa;" horiz-adv-x="658" 
d="M288 883q-8 7 -24 7q-21 0 -34 -16t-13 -48h-45q0 44 26 73q25 28 72 28q27 0 41 -10q15 -11 33 -30q7 -8 12.5 -13t10.5 -9q8 -7 24 -7q23 0 36 16t13 48h45q0 -46 -25 -72q-26 -27 -72 -27q-26 0 -42 10q-15 10 -34 30q-15 18 -22 24zM246 701h-51l95 108h72l98 -108
h-51l-83 80zM157 144l-59 -148h-92l268 667h103l269 -667h-92l-59 148h-338zM470 218l-144 371l-145 -371h289z" />
    <glyph glyph-name="uni1EAB" unicode="&#x1eab;" horiz-adv-x="527" 
d="M376 57q-61 -67 -160 -67q-43 0 -82 18t-63 54t-24 86q0 51 24 87t63 54t82 18q103 0 160 -66v87q0 48 -34 75q-35 27 -88 27q-45 0 -80 -16q-37 -17 -68 -51l-35 52q39 40 87 60q49 20 107 20q83 0 135 -40t52 -123v-332h-75v55zM374 198q-22 29 -57 44q-36 15 -76 15
q-52 0 -85 -30t-33 -76t33 -76t86 -30q41 0 77 15q35 15 57 44v91zM183 561h-51l95 144h72l98 -144h-51l-83 106zM220 802q-9 9 -24 9q-21 0 -34 -21q-13 -20 -13 -64h-45q0 59 26 97q25 37 72 37q27 0 41 -13q15 -14 33 -39q15 -21 24 -30t24 -9q21 0 35 21q14 22 14 65h45
q0 -60 -25 -97t-72 -37q-26 0 -42 14q-15 13 -33 39l-12 17t-10 12z" />
    <glyph glyph-name="uni1EAC" unicode="&#x1eac;" horiz-adv-x="658" 
d="M160 148l-59 -148h-92l268 667h103l269 -667h-92l-59 148h-338zM473 222l-144 371l-145 -371h289zM249 723h-51l95 144h72l98 -144h-51l-83 106zM295 -86q14 14 33 14t33 -14t14 -33q0 -20 -13 -33t-33 -13q-19 0 -33 14t-14 33t14 33z" />
    <glyph glyph-name="uni1EAD" unicode="&#x1ead;" horiz-adv-x="527" 
d="M376 57q-61 -67 -160 -67q-43 0 -82 18t-63 54t-24 86q0 51 24 87t63 54t82 18q103 0 160 -66v87q0 48 -34 75q-35 27 -88 27q-45 0 -80 -16q-37 -17 -68 -51l-35 52q39 40 87 60q49 20 107 20q83 0 135 -40t52 -123v-332h-75v55zM374 198q-22 29 -57 44q-36 15 -76 15
q-52 0 -85 -30t-33 -76t33 -76t86 -30q41 0 77 15q35 15 57 44v91zM183 561h-51l95 144h72l98 -144h-51l-83 106zM229 -81q14 14 33 14t33 -14t14 -33q0 -20 -13 -33t-33 -13q-19 0 -33 14t-14 33t14 33z" />
    <glyph glyph-name="uni1EAE" unicode="&#x1eae;" horiz-adv-x="658" 
d="M446 915h78l-169 -108h-57zM230 724q-47 19 -78 54l37 28q26 -29 61 -45t79 -16t79 16q37 17 59 46l37 -28q-30 -35 -76 -54q-45 -19 -99 -19q-51 0 -99 20v-2zM160 145l-59 -148h-92l268 667h103l269 -667h-92l-59 148h-338zM473 219l-144 371l-145 -371h289z" />
    <glyph glyph-name="uni1EAF" unicode="&#x1eaf;" horiz-adv-x="527" 
d="M376 57q-61 -67 -160 -67q-43 0 -82 18t-63 54t-24 86q0 51 24 87t63 54t82 18q103 0 160 -66v87q0 48 -34 75q-35 27 -88 27q-45 0 -80 -16q-37 -17 -68 -51l-35 52q39 40 87 60q49 20 107 20q83 0 135 -40t52 -123v-332h-75v55zM374 198q-22 29 -57 44q-36 15 -76 15
q-52 0 -85 -30t-33 -76t33 -76t86 -30q41 0 77 15q35 15 57 44v91zM162 577q-46 24 -78 65l37 32q26 -35 61 -54t79 -19t79 19q36 19 60 54l37 -32q-31 -40 -76 -64t-98 -24t-99 24zM378 823h78l-169 -144h-57z" />
    <glyph glyph-name="uni1EB0" unicode="&#x1eb0;" horiz-adv-x="658" 
d="M209 915l148 -108h-57l-169 108h78zM230 724q-47 19 -78 54l37 28q26 -29 61 -45t79 -16t79 16q37 17 59 46l37 -28q-30 -35 -76 -54q-45 -19 -99 -19q-51 0 -99 20v-2zM160 145l-59 -148h-92l268 667h103l269 -667h-92l-59 148h-338zM473 219l-144 371l-145 -371h289z
" />
    <glyph glyph-name="uni1EB1" unicode="&#x1eb1;" horiz-adv-x="527" 
d="M376 57q-61 -67 -160 -67q-43 0 -82 18t-63 54t-24 86q0 51 24 87t63 54t82 18q103 0 160 -66v87q0 48 -34 75q-35 27 -88 27q-45 0 -80 -16q-37 -17 -68 -51l-35 52q39 40 87 60q49 20 107 20q83 0 135 -40t52 -123v-332h-75v55zM374 198q-22 29 -57 44q-36 15 -76 15
q-52 0 -85 -30t-33 -76t33 -76t86 -30q41 0 77 15q35 15 57 44v91zM162 577q-46 24 -78 65l37 32q26 -35 61 -54t79 -19t79 19q36 19 60 54l37 -32q-31 -40 -76 -64t-98 -24t-99 24zM141 823l148 -144h-57l-169 144h78z" />
    <glyph glyph-name="uni1EB2" unicode="&#x1eb2;" horiz-adv-x="658" 
d="M261 912q25 15 60 15q38 0 66 -17q27 -17 27 -50q0 -15 -6 -27t-19 -25h-51q29 23 29 51q0 18 -12 27t-33 9q-38 0 -53 -31l-42 10q11 23 36 38h-2zM228 724q-47 19 -78 54l37 28q26 -29 61 -45t79 -16t79 16q37 17 59 46l37 -28q-30 -35 -76 -54q-45 -19 -99 -19
q-51 0 -99 20v-2zM158 145l-59 -148h-92l268 667h103l269 -667h-92l-59 148h-338zM471 219l-144 371l-145 -371h289z" />
    <glyph glyph-name="uni1EB3" unicode="&#x1eb3;" horiz-adv-x="527" 
d="M376 57q-61 -67 -160 -67q-43 0 -82 18t-63 54t-24 86q0 51 24 87t63 54t82 18q103 0 160 -66v87q0 48 -34 75q-35 27 -88 27q-45 0 -80 -16q-37 -17 -68 -51l-35 52q39 40 87 60q49 20 107 20q83 0 135 -40t52 -123v-332h-75v55zM374 198q-22 29 -57 44q-36 15 -76 15
q-52 0 -85 -30t-33 -76t33 -76t86 -30q41 0 77 15q35 15 57 44v91zM162 577q-46 24 -78 65l37 32q26 -35 61 -54t79 -19t79 19q36 19 60 54l37 -32q-31 -40 -76 -64t-98 -24t-99 24zM193 819q26 20 60 20q40 0 66 -22q27 -23 27 -67q0 -20 -6 -36q-6 -17 -19 -34h-51
q29 32 29 68q0 26 -12 38t-33 12q-38 0 -53 -42l-42 13q10 31 36 51z" />
    <glyph glyph-name="uni1EB4" unicode="&#x1eb4;" horiz-adv-x="658" 
d="M288 852q-8 7 -24 7q-21 0 -34 -16t-13 -48h-45q0 44 26 73q25 28 72 28q27 0 41 -10q15 -11 33 -30q7 -8 12.5 -13t10.5 -9q8 -7 24 -7q23 0 36 16t13 48h45q0 -46 -25 -72q-26 -27 -72 -27q-26 0 -42 10q-15 10 -34 30q-15 18 -22 24zM227 716q-47 18 -78 49l37 24
q25 -25 61 -40t79 -15q42 0 79 14t59 39l37 -24q-30 -31 -76 -49q-47 -18 -99 -18q-53 0 -99 18v2zM157 145l-59 -148h-92l268 667h103l269 -667h-92l-59 148h-338zM470 219l-144 371l-145 -371h289z" />
    <glyph glyph-name="uni1EB5" unicode="&#x1eb5;" horiz-adv-x="527" 
d="M376 57q-61 -67 -160 -67q-43 0 -82 18t-63 54t-24 86q0 51 24 87t63 54t82 18q103 0 160 -66v87q0 48 -34 75q-35 27 -88 27q-45 0 -80 -16q-37 -17 -68 -51l-35 52q39 40 87 60q49 20 107 20q83 0 135 -40t52 -123v-332h-75v55zM374 198q-22 29 -57 44q-36 15 -76 15
q-52 0 -85 -30t-33 -76t33 -76t86 -30q41 0 77 15q35 15 57 44v91zM162 577q-46 24 -78 65l37 32q26 -35 61 -54t79 -19t79 19q36 19 60 54l37 -32q-31 -40 -76 -64t-98 -24t-99 24zM218 759q-9 9 -24 9q-21 0 -34 -21q-13 -20 -13 -64h-45q0 59 26 97q25 37 72 37
q27 0 41 -13q15 -14 33 -39q15 -21 24 -30t24 -9q21 0 35 21q14 22 14 65h45q0 -60 -25 -97t-72 -37q-26 0 -42 14q-15 13 -33 39l-12 17t-10 12z" />
    <glyph glyph-name="uni1EB6" unicode="&#x1eb6;" horiz-adv-x="658" 
d="M160 148l-59 -148h-92l268 667h103l269 -667h-92l-59 148h-338zM473 222l-144 371l-145 -371h289zM228 739q-46 24 -78 65l37 32q26 -35 61 -54t79 -19t79 19q36 19 60 54l37 -32q-31 -40 -76 -64t-98 -24t-99 24zM293 -88q14 14 33 14t33 -14t14 -33q0 -20 -13 -33
t-33 -13q-19 0 -33 14t-14 33t14 33z" />
    <glyph glyph-name="uni1EB7" unicode="&#x1eb7;" horiz-adv-x="527" 
d="M376 57q-61 -67 -160 -67q-43 0 -82 18t-63 54t-24 86q0 51 24 87t63 54t82 18q103 0 160 -66v87q0 48 -34 75q-35 27 -88 27q-45 0 -80 -16q-37 -17 -68 -51l-35 52q39 40 87 60q49 20 107 20q83 0 135 -40t52 -123v-332h-75v55zM374 198q-22 29 -57 44q-36 15 -76 15
q-52 0 -85 -30t-33 -76t33 -76t86 -30q41 0 77 15q35 15 57 44v91zM162 577q-46 24 -78 65l37 32q26 -35 61 -54t79 -19t79 19q36 19 60 54l37 -32q-31 -40 -76 -64t-98 -24t-99 24zM227 -83q14 14 33 14t33 -14t14 -33q0 -20 -13 -33t-33 -13q-19 0 -33 14t-14 33t14 33z
" />
    <glyph glyph-name="uni1EB8" unicode="&#x1eb8;" horiz-adv-x="569" 
d="M515 667v-74h-354v-215h347v-74h-347v-230h354v-74h-437v667h437zM268 -86q14 14 33 14t33 -14t14 -33q0 -20 -13 -33t-33 -13q-19 0 -33 14t-14 33t14 33z" />
    <glyph glyph-name="uni1EB9" unicode="&#x1eb9;" horiz-adv-x="563" 
d="M77 368q32 59 85 93t122 34q71 0 123 -34q52 -35 81 -93q28 -57 28 -132v-19h-391q5 -71 51 -119t122 -48q43 0 81 16q40 17 68 45l36 -49q-74 -74 -192 -74q-70 0 -126 32q-56 31 -87 90q-31 58 -31 132q0 69 31 127zM200 408q-36 -25 -53 -61q-19 -39 -20 -76h317
q-2 40 -19 76q-18 37 -54 61t-88 24q-50 0 -84 -24h1zM250 -87q14 14 33 14t33 -14t14 -33q0 -20 -13 -33t-33 -13q-19 0 -33 14t-14 33t14 33z" />
    <glyph glyph-name="uni1EBA" unicode="&#x1eba;" horiz-adv-x="569" 
d="M515 667v-74h-354v-215h347v-74h-347v-230h354v-74h-437v667h437zM234 862q26 20 60 20q40 0 66 -22q27 -23 27 -67q0 -20 -6 -36q-6 -17 -19 -34h-51q29 32 29 68q0 26 -12 38t-33 12q-38 0 -53 -42l-42 13q10 31 36 51z" />
    <glyph glyph-name="uni1EBB" unicode="&#x1ebb;" horiz-adv-x="563" 
d="M77 368q32 59 85 93t122 34q71 0 123 -34q52 -35 81 -93q28 -57 28 -132v-19h-391q5 -71 51 -119t122 -48q43 0 81 16q40 17 68 45l36 -49q-74 -74 -192 -74q-70 0 -126 32q-56 31 -87 90q-31 58 -31 132q0 69 31 127zM200 408q-36 -25 -53 -61q-19 -39 -20 -76h317
q-2 40 -19 76q-18 37 -54 61t-88 24q-50 0 -84 -24h1zM216 694q26 20 60 20q40 0 66 -22q27 -23 27 -67q0 -20 -6 -36q-6 -17 -19 -34h-51q29 32 29 68q0 26 -12 38t-33 12q-38 0 -53 -42l-42 13q10 31 36 51z" />
    <glyph glyph-name="uni1EBC" unicode="&#x1ebc;" horiz-adv-x="569" 
d="M515 667v-74h-354v-215h347v-74h-347v-230h354v-74h-437v667h437zM259 802q-9 9 -24 9q-21 0 -34 -21q-13 -20 -13 -64h-45q0 59 26 97q25 37 72 37q27 0 41 -13q15 -14 33 -39q15 -21 24 -30t24 -9q21 0 35 21q14 22 14 65h45q0 -60 -25 -97t-72 -37q-26 0 -42 14
q-15 13 -33 39l-12 17t-10 12z" />
    <glyph glyph-name="uni1EBD" unicode="&#x1ebd;" horiz-adv-x="563" 
d="M77 368q32 59 85 93t122 34q71 0 123 -34q52 -35 81 -93q28 -57 28 -132v-19h-391q5 -71 51 -119t122 -48q43 0 81 16q40 17 68 45l36 -49q-74 -74 -192 -74q-70 0 -126 32q-56 31 -87 90q-31 58 -31 132q0 69 31 127zM200 408q-36 -25 -53 -61q-19 -39 -20 -76h317
q-2 40 -19 76q-18 37 -54 61t-88 24q-50 0 -84 -24h1zM241 634q-9 9 -24 9q-21 0 -34 -21q-13 -20 -13 -64h-45q0 59 26 97q25 37 72 37q27 0 41 -13q15 -14 33 -39q15 -21 24 -30t24 -9q21 0 35 21q14 22 14 65h45q0 -60 -25 -97t-72 -37q-26 0 -42 14q-15 13 -33 39
l-12 17t-10 12z" />
    <glyph glyph-name="uni1EBE" unicode="&#x1ebe;" horiz-adv-x="569" 
d="M552 888h78l-169 -108h-57zM222 705h-51l95 108h72l98 -108h-51l-83 80zM515 667v-74h-354v-215h347v-74h-347v-230h354v-74h-437v667h437z" />
    <glyph glyph-name="uni1EBF" unicode="&#x1ebf;" horiz-adv-x="563" 
d="M77 368q32 59 85 93t122 34q71 0 123 -34q52 -35 81 -93q28 -57 28 -132v-19h-391q5 -71 51 -119t122 -48q43 0 81 16q40 17 68 45l36 -49q-74 -74 -192 -74q-70 0 -126 32q-56 31 -87 90q-31 58 -31 132q0 69 31 127zM200 408q-36 -25 -53 -61q-19 -39 -20 -76h317
q-2 40 -19 76q-18 37 -54 61t-88 24q-50 0 -84 -24h1zM204 555h-51l95 144h72l98 -144h-51l-83 106zM534 799h78l-169 -144h-57z" />
    <glyph glyph-name="uni1EC0" unicode="&#x1ec0;" horiz-adv-x="569" 
d="M56 888l148 -108h-57l-169 108h78zM222 705h-51l95 108h72l98 -108h-51l-83 80zM515 667v-74h-354v-215h347v-74h-347v-230h354v-74h-437v667h437z" />
    <glyph glyph-name="uni1EC1" unicode="&#x1ec1;" horiz-adv-x="563" 
d="M77 368q32 59 85 93t122 34q71 0 123 -34q52 -35 81 -93q28 -57 28 -132v-19h-391q5 -71 51 -119t122 -48q43 0 81 16q40 17 68 45l36 -49q-74 -74 -192 -74q-70 0 -126 32q-56 31 -87 90q-31 58 -31 132q0 69 31 127zM200 408q-36 -25 -53 -61q-19 -39 -20 -76h317
q-2 40 -19 76q-18 37 -54 61t-88 24q-50 0 -84 -24h1zM204 555h-51l95 144h72l98 -144h-51l-83 106zM38 799l148 -144h-57l-169 144h78z" />
    <glyph glyph-name="uni1EC2" unicode="&#x1ec2;" horiz-adv-x="569" 
d="M325 884q25 15 60 15q38 0 66 -17q27 -17 27 -50q0 -15 -6 -27t-19 -25h-51q29 23 29 51q0 18 -12 27t-33 9q-38 0 -53 -31l-42 10q11 23 36 38h-2zM220 704h-51l95 108h72l98 -108h-51l-83 80zM513 666v-74h-354v-215h347v-74h-347v-230h354v-74h-437v667h437z" />
    <glyph glyph-name="uni1EC3" unicode="&#x1ec3;" horiz-adv-x="563" 
d="M77 368q32 59 85 93t122 34q71 0 123 -34q52 -35 81 -93q28 -57 28 -132v-19h-391q5 -71 51 -119t122 -48q43 0 81 16q40 17 68 45l36 -49q-74 -74 -192 -74q-70 0 -126 32q-56 31 -87 90q-31 58 -31 132q0 69 31 127zM200 408q-36 -25 -53 -61q-19 -39 -20 -76h317
q-2 40 -19 76q-18 37 -54 61t-88 24q-50 0 -84 -24h1zM204 555h-51l95 144h72l98 -144h-51l-83 106zM307 793q26 20 60 20q40 0 66 -22q27 -23 27 -67q0 -20 -6 -36q-6 -17 -19 -34h-51q29 32 29 68q0 26 -12 38t-33 12q-38 0 -53 -42l-42 13q10 31 36 51z" />
    <glyph glyph-name="uni1EC4" unicode="&#x1ec4;" horiz-adv-x="569" 
d="M261 883q-8 7 -24 7q-21 0 -34 -16t-13 -48h-45q0 44 26 73q25 28 72 28q27 0 41 -10q15 -11 33 -30q7 -8 12.5 -13t10.5 -9q8 -7 24 -7q23 0 36 16t13 48h45q0 -46 -25 -72q-26 -27 -72 -27q-26 0 -42 10q-15 10 -34 30q-15 18 -22 24zM219 701h-51l95 108h72l98 -108
h-51l-83 80zM512 663v-74h-354v-215h347v-74h-347v-230h354v-74h-437v667h437z" />
    <glyph glyph-name="uni1EC5" unicode="&#x1ec5;" horiz-adv-x="563" 
d="M77 368q32 59 85 93t122 34q71 0 123 -34q52 -35 81 -93q28 -57 28 -132v-19h-391q5 -71 51 -119t122 -48q43 0 81 16q40 17 68 45l36 -49q-74 -74 -192 -74q-70 0 -126 32q-56 31 -87 90q-31 58 -31 132q0 69 31 127zM200 408q-36 -25 -53 -61q-19 -39 -20 -76h317
q-2 40 -19 76q-18 37 -54 61t-88 24q-50 0 -84 -24h1zM204 555h-51l95 144h72l98 -144h-51l-83 106zM241 796q-9 9 -24 9q-21 0 -34 -21q-13 -20 -13 -64h-45q0 59 26 97q25 37 72 37q27 0 41 -13q15 -14 33 -39q15 -21 24 -30t24 -9q21 0 35 21q14 22 14 65h45
q0 -60 -25 -97t-72 -37q-26 0 -42 14q-15 13 -33 39l-12 17t-10 12z" />
    <glyph glyph-name="uni1EC6" unicode="&#x1ec6;" horiz-adv-x="569" 
d="M515 667v-74h-354v-215h347v-74h-347v-230h354v-74h-437v667h437zM222 723h-51l95 144h72l98 -144h-51l-83 106zM268 -86q14 14 33 14t33 -14t14 -33q0 -20 -13 -33t-33 -13q-19 0 -33 14t-14 33t14 33z" />
    <glyph glyph-name="uni1EC7" unicode="&#x1ec7;" horiz-adv-x="563" 
d="M77 368q32 59 85 93t122 34q71 0 123 -34q52 -35 81 -93q28 -57 28 -132v-19h-391q5 -71 51 -119t122 -48q43 0 81 16q40 17 68 45l36 -49q-74 -74 -192 -74q-70 0 -126 32q-56 31 -87 90q-31 58 -31 132q0 69 31 127zM200 408q-36 -25 -53 -61q-19 -39 -20 -76h317
q-2 40 -19 76q-18 37 -54 61t-88 24q-50 0 -84 -24h1zM204 555h-51l95 144h72l98 -144h-51l-83 106zM250 -87q14 14 33 14t33 -14t14 -33q0 -20 -13 -33t-33 -13q-19 0 -33 14t-14 33t14 33z" />
    <glyph glyph-name="uni1EC8" unicode="&#x1ec8;" horiz-adv-x="239" 
d="M161 667v-667h-83v667h83zM52 862q26 20 60 20q40 0 66 -22q27 -23 27 -67q0 -20 -6 -36q-6 -17 -19 -34h-51q29 32 29 68q0 26 -12 38t-33 12q-38 0 -53 -42l-42 13q10 31 36 51z" />
    <glyph glyph-name="uni1EC9" unicode="&#x1ec9;" horiz-adv-x="225" 
d="M150 483v-483h-75v483h75zM44 695q26 20 60 20q40 0 66 -22q27 -23 27 -67q0 -20 -6 -36q-6 -17 -19 -34h-51q29 32 29 68q0 26 -12 38t-33 12q-38 0 -53 -42l-42 13q10 31 36 51z" />
    <glyph glyph-name="uni1ECA" unicode="&#x1eca;" horiz-adv-x="239" 
d="M161 667v-667h-83v667h83zM86 -86q14 14 33 14t33 -14t14 -33q0 -20 -13 -33t-33 -13q-19 0 -33 14t-14 33t14 33z" />
    <glyph glyph-name="uni1ECB" unicode="&#x1ecb;" horiz-adv-x="225" 
d="M77 575q-15 15 -15 36t15 36t35 15q21 0 36 -15t15 -36t-15 -36t-36 -15q-20 0 -35 15zM150 482v-483h-75v483h75zM78 -87q14 14 33 14t33 -14t14 -33q0 -20 -13 -33t-33 -13q-19 0 -33 14t-14 33t14 33z" />
    <glyph glyph-name="uni1ECC" unicode="&#x1ecc;" horiz-adv-x="765" 
d="M91 509q42 78 117 123t173 45q97 0 172 -45t117 -123t42 -176t-42 -176t-117 -123t-172 -45t-172 45t-117 123t-42 176t42 176h-1zM594 471q-30 61 -86 96t-129 35t-129 -35q-55 -34 -85 -96t-30 -139t30 -138t86 -96t129 -35t129 35t86 96t30 138q0 78 -30 140zM344 -88
q14 14 33 14t33 -14t14 -33q0 -20 -13 -33t-33 -13q-19 0 -33 14t-14 33t14 33z" />
    <glyph glyph-name="uni1ECD" unicode="&#x1ecd;" 
d="M160 21q-54 34 -84 93q-30 58 -30 129q0 70 30 129t84 92t126 33t126 -33t84 -91q30 -59 30 -129q0 -71 -30 -129q-30 -59 -84 -93q-53 -34 -126 -34t-126 34v-1zM371 77q35 25 55 69q19 42 19 93t-19 92q-20 43 -55 68q-37 26 -86 26q-51 0 -86 -25t-55 -68
q-19 -41 -19 -92t19 -93q19 -43 56 -69q35 -25 86 -25q49 0 86 26zM251 -90q14 14 33 14t33 -14t14 -33q0 -20 -13 -33t-33 -13q-19 0 -33 14t-14 33t14 33z" />
    <glyph glyph-name="uni1ECE" unicode="&#x1ece;" horiz-adv-x="765" 
d="M91 509q42 78 117 123t173 45q97 0 172 -45t117 -123t42 -176t-42 -176t-117 -123t-172 -45t-172 45t-117 123t-42 176t42 176h-1zM594 471q-30 61 -86 96t-129 35t-129 -35q-55 -34 -85 -96t-30 -139t30 -138t86 -96t129 -35t129 35t86 96t30 138q0 78 -30 140zM310 861
q26 20 60 20q40 0 66 -22q27 -23 27 -67q0 -20 -6 -36q-6 -17 -19 -34h-51q29 32 29 68q0 26 -12 38t-33 12q-38 0 -53 -42l-42 13q10 31 36 51z" />
    <glyph glyph-name="uni1ECF" unicode="&#x1ecf;" 
d="M160 21q-54 34 -84 93q-30 58 -30 129q0 70 30 129t84 92t126 33t126 -33t84 -91q30 -59 30 -129q0 -71 -30 -129q-30 -59 -84 -93q-53 -34 -126 -34t-126 34v-1zM371 77q35 25 55 69q19 42 19 93t-19 92q-20 43 -55 68q-37 26 -86 26q-51 0 -86 -25t-55 -68
q-19 -41 -19 -92t19 -93q19 -43 56 -69q35 -25 86 -25q49 0 86 26zM217 692q26 20 60 20q40 0 66 -22q27 -23 27 -67q0 -20 -6 -36q-6 -17 -19 -34h-51q29 32 29 68q0 26 -12 38t-33 12q-38 0 -53 -42l-42 13q10 31 36 51z" />
    <glyph glyph-name="uni1ED0" unicode="&#x1ed0;" horiz-adv-x="765" 
d="M631 888h78l-169 -108h-57zM301 705h-51l95 108h72l98 -108h-51l-83 80zM91 509q42 78 117 123t173 45q97 0 172 -45t117 -123t42 -176t-42 -176t-117 -123t-172 -45t-172 45t-117 123t-42 176t42 176h-1zM594 471q-30 61 -86 96t-129 35t-129 -35q-55 -34 -85 -96
t-30 -139t30 -138t86 -96t129 -35t129 35t86 96t30 138q0 78 -30 140z" />
    <glyph glyph-name="uni1ED1" unicode="&#x1ed1;" 
d="M160 21q-54 34 -84 93q-30 58 -30 129q0 70 30 129t84 92t126 33t126 -33t84 -91q30 -59 30 -129q0 -71 -30 -129q-30 -59 -84 -93q-53 -34 -126 -34t-126 34v-1zM371 77q35 25 55 69q19 42 19 93t-19 92q-20 43 -55 68q-37 26 -86 26q-51 0 -86 -25t-55 -68
q-19 -41 -19 -92t19 -93q19 -43 56 -69q35 -25 86 -25q49 0 86 26zM205 552h-51l95 144h72l98 -144h-51l-83 106zM535 796h78l-169 -144h-57z" />
    <glyph glyph-name="uni1ED2" unicode="&#x1ed2;" horiz-adv-x="765" 
d="M135 888l148 -108h-57l-169 108h78zM301 705h-51l95 108h72l98 -108h-51l-83 80zM91 509q42 78 117 123t173 45q97 0 172 -45t117 -123t42 -176t-42 -176t-117 -123t-172 -45t-172 45t-117 123t-42 176t42 176h-1zM594 471q-30 61 -86 96t-129 35t-129 -35
q-55 -34 -85 -96t-30 -139t30 -138t86 -96t129 -35t129 35t86 96t30 138q0 78 -30 140z" />
    <glyph glyph-name="uni1ED3" unicode="&#x1ed3;" 
d="M160 21q-54 34 -84 93q-30 58 -30 129q0 70 30 129t84 92t126 33t126 -33t84 -91q30 -59 30 -129q0 -71 -30 -129q-30 -59 -84 -93q-53 -34 -126 -34t-126 34v-1zM371 77q35 25 55 69q19 42 19 93t-19 92q-20 43 -55 68q-37 26 -86 26q-51 0 -86 -25t-55 -68
q-19 -41 -19 -92t19 -93q19 -43 56 -69q35 -25 86 -25q49 0 86 26zM205 552h-51l95 144h72l98 -144h-51l-83 106zM39 796l148 -144h-57l-169 144h78z" />
    <glyph glyph-name="uni1ED4" unicode="&#x1ed4;" horiz-adv-x="765" 
d="M404 884q25 15 60 15q38 0 66 -17q27 -17 27 -50q0 -15 -6 -27t-19 -25h-51q29 23 29 51q0 18 -12 27t-33 9q-38 0 -53 -31l-42 10q11 23 36 38h-2zM299 704h-51l95 108h72l98 -108h-51l-83 80zM89 508q42 78 117 123t173 45q97 0 172 -45t117 -123t42 -176t-42 -176
t-117 -123t-172 -45t-172 45t-117 123t-42 176t42 176h-1zM592 470q-30 61 -86 96t-129 35t-129 -35q-55 -34 -85 -96t-30 -139t30 -138t86 -96t129 -35t129 35t86 96t30 138q0 78 -30 140z" />
    <glyph glyph-name="uni1ED5" unicode="&#x1ed5;" 
d="M160 21q-54 34 -84 93q-30 58 -30 129q0 70 30 129t84 92t126 33t126 -33t84 -91q30 -59 30 -129q0 -71 -30 -129q-30 -59 -84 -93q-53 -34 -126 -34t-126 34v-1zM371 77q35 25 55 69q19 42 19 93t-19 92q-20 43 -55 68q-37 26 -86 26q-51 0 -86 -25t-55 -68
q-19 -41 -19 -92t19 -93q19 -43 56 -69q35 -25 86 -25q49 0 86 26zM205 552h-51l95 144h72l98 -144h-51l-83 106zM308 790q26 20 60 20q40 0 66 -22q27 -23 27 -67q0 -20 -6 -36q-6 -17 -19 -34h-51q29 32 29 68q0 26 -12 38t-33 12q-38 0 -53 -42l-42 13q10 31 36 51z" />
    <glyph glyph-name="uni1ED6" unicode="&#x1ed6;" horiz-adv-x="765" 
d="M340 883q-8 7 -24 7q-21 0 -34 -16t-13 -48h-45q0 44 26 73q25 28 72 28q27 0 41 -10q15 -11 33 -30q7 -8 12.5 -13t10.5 -9q8 -7 24 -7q23 0 36 16t13 48h45q0 -46 -25 -72q-26 -27 -72 -27q-26 0 -42 10q-15 10 -34 30q-15 18 -22 24zM298 701h-51l95 108h72l98 -108
h-51l-83 80zM88 505q42 78 117 123t173 45q97 0 172 -45t117 -123t42 -176t-42 -176t-117 -123t-172 -45t-172 45t-117 123t-42 176t42 176h-1zM591 467q-30 61 -86 96t-129 35t-129 -35q-55 -34 -85 -96t-30 -139t30 -138t86 -96t129 -35t129 35t86 96t30 138q0 78 -30 140
z" />
    <glyph glyph-name="uni1ED7" unicode="&#x1ed7;" 
d="M160 21q-54 34 -84 93q-30 58 -30 129q0 70 30 129t84 92t126 33t126 -33t84 -91q30 -59 30 -129q0 -71 -30 -129q-30 -59 -84 -93q-53 -34 -126 -34t-126 34v-1zM371 77q35 25 55 69q19 42 19 93t-19 92q-20 43 -55 68q-37 26 -86 26q-51 0 -86 -25t-55 -68
q-19 -41 -19 -92t19 -93q19 -43 56 -69q35 -25 86 -25q49 0 86 26zM205 552h-51l95 144h72l98 -144h-51l-83 106zM242 793q-9 9 -24 9q-21 0 -34 -21q-13 -20 -13 -64h-45q0 59 26 97q25 37 72 37q27 0 41 -13q15 -14 33 -39q15 -21 24 -30t24 -9q21 0 35 21q14 22 14 65h45
q0 -60 -25 -97t-72 -37q-26 0 -42 14q-15 13 -33 39l-12 17t-10 12z" />
    <glyph glyph-name="uni1ED8" unicode="&#x1ed8;" horiz-adv-x="765" 
d="M91 509q42 78 117 123t173 45q97 0 172 -45t117 -123t42 -176t-42 -176t-117 -123t-172 -45t-172 45t-117 123t-42 176t42 176h-1zM594 471q-30 61 -86 96t-129 35t-129 -35q-55 -34 -85 -96t-30 -139t30 -138t86 -96t129 -35t129 35t86 96t30 138q0 78 -30 140zM298 721
h-51l95 144h72l98 -144h-51l-83 106zM344 -88q14 14 33 14t33 -14t14 -33q0 -20 -13 -33t-33 -13q-19 0 -33 14t-14 33t14 33z" />
    <glyph glyph-name="uni1ED9" unicode="&#x1ed9;" 
d="M160 21q-54 34 -84 93q-30 58 -30 129q0 70 30 129t84 92t126 33t126 -33t84 -91q30 -59 30 -129q0 -71 -30 -129q-30 -59 -84 -93q-53 -34 -126 -34t-126 34v-1zM371 77q35 25 55 69q19 42 19 93t-19 92q-20 43 -55 68q-37 26 -86 26q-51 0 -86 -25t-55 -68
q-19 -41 -19 -92t19 -93q19 -43 56 -69q35 -25 86 -25q49 0 86 26zM205 552h-51l95 144h72l98 -144h-51l-83 106zM251 -90q14 14 33 14t33 -14t14 -33q0 -20 -13 -33t-33 -13q-19 0 -33 14t-14 33t14 33z" />
    <glyph glyph-name="uni1EDA" unicode="&#x1eda;" horiz-adv-x="765" 
d="M699 591q-17 -31 -47 -55q59 -88 59 -205q0 -98 -42 -176t-117 -123t-172 -45t-172 45t-117 123t-42 176t42 176t117 123t173 45q78 0 141 -28q64 -29 108 -81q17 14 31 36q14 21 15 40q-6 -2 -12 -2q-17 0 -27 12q-11 13 -11 29q0 17 12 31q12 13 30 13q21 0 36 -17
t15 -45q0 -37 -18 -70zM507 93q56 35 86 96t30 138q0 78 -30 140q-30 61 -86 96t-129 35t-129 -35q-55 -34 -85 -96t-30 -139t30 -138t86 -96t129 -35t129 35zM494 863h78l-169 -144h-57z" />
    <glyph glyph-name="uni1EDB" unicode="&#x1edb;" 
d="M511 462q-17 -32 -42 -53q27 -35 42 -78q15 -44 15 -93q0 -71 -30 -129q-30 -59 -84 -93q-53 -34 -126 -34t-126 34q-54 34 -84 93q-30 58 -30 129q0 70 30 129t84 92t126 33q94 0 157 -57q17 15 29 35q11 18 13 38q-3 -1 -11 -1q-16 0 -28 12t-12 30q0 16 12 30
q12 13 30 13q21 0 36 -17t15 -45q0 -35 -16 -66v-2zM371 76q35 25 55 69q19 42 19 93t-19 92q-20 43 -55 68q-37 26 -86 26q-51 0 -86 -25t-55 -68q-19 -41 -19 -92t19 -93q19 -43 56 -69q35 -25 86 -25q49 0 86 26zM402 695h78l-169 -144h-57z" />
    <glyph glyph-name="uni1EDC" unicode="&#x1edc;" horiz-adv-x="765" 
d="M699 591q-17 -31 -47 -55q59 -88 59 -205q0 -98 -42 -176t-117 -123t-172 -45t-172 45t-117 123t-42 176t42 176t117 123t173 45q78 0 141 -28q64 -29 108 -81q17 14 31 36q14 21 15 40q-6 -2 -12 -2q-17 0 -27 12q-11 13 -11 29q0 17 12 31q12 13 30 13q21 0 36 -17
t15 -45q0 -37 -18 -70zM507 93q56 35 86 96t30 138q0 78 -30 140q-30 61 -86 96t-129 35t-129 -35q-55 -34 -85 -96t-30 -139t30 -138t86 -96t129 -35t129 35zM257 863l148 -144h-57l-169 144h78z" />
    <glyph glyph-name="uni1EDD" unicode="&#x1edd;" 
d="M511 462q-17 -32 -42 -53q27 -35 42 -78q15 -44 15 -93q0 -71 -30 -129q-30 -59 -84 -93q-53 -34 -126 -34t-126 34q-54 34 -84 93q-30 58 -30 129q0 70 30 129t84 92t126 33q94 0 157 -57q17 15 29 35q11 18 13 38q-3 -1 -11 -1q-16 0 -28 12t-12 30q0 16 12 30
q12 13 30 13q21 0 36 -17t15 -45q0 -35 -16 -66v-2zM371 76q35 25 55 69q19 42 19 93t-19 92q-20 43 -55 68q-37 26 -86 26q-51 0 -86 -25t-55 -68q-19 -41 -19 -92t19 -93q19 -43 56 -69q35 -25 86 -25q49 0 86 26zM165 695l148 -144h-57l-169 144h78z" />
    <glyph glyph-name="uni1EDE" unicode="&#x1ede;" horiz-adv-x="765" 
d="M699 591q-17 -31 -47 -55q59 -88 59 -205q0 -98 -42 -176t-117 -123t-172 -45t-172 45t-117 123t-42 176t42 176t117 123t173 45q78 0 141 -28q64 -29 108 -81q17 14 31 36q14 21 15 40q-6 -2 -12 -2q-17 0 -27 12q-11 13 -11 29q0 17 12 31q12 13 30 13q21 0 36 -17
t15 -45q0 -37 -18 -70zM507 93q56 35 86 96t30 138q0 78 -30 140q-30 61 -86 96t-129 35t-129 -35q-55 -34 -85 -96t-30 -139t30 -138t86 -96t129 -35t129 35zM309 858q26 20 60 20q40 0 66 -22q27 -23 27 -67q0 -20 -6 -36q-6 -17 -19 -34h-51q29 32 29 68q0 26 -12 38
t-33 12q-38 0 -53 -42l-42 13q10 31 36 51z" />
    <glyph glyph-name="uni1EDF" unicode="&#x1edf;" 
d="M511 462q-17 -32 -42 -53q27 -35 42 -78q15 -44 15 -93q0 -71 -30 -129q-30 -59 -84 -93q-53 -34 -126 -34t-126 34q-54 34 -84 93q-30 58 -30 129q0 70 30 129t84 92t126 33q94 0 157 -57q17 15 29 35q11 18 13 38q-3 -1 -11 -1q-16 0 -28 12t-12 30q0 16 12 30
q12 13 30 13q21 0 36 -17t15 -45q0 -35 -16 -66v-2zM371 76q35 25 55 69q19 42 19 93t-19 92q-20 43 -55 68q-37 26 -86 26q-51 0 -86 -25t-55 -68q-19 -41 -19 -92t19 -93q19 -43 56 -69q35 -25 86 -25q49 0 86 26zM217 691q26 20 60 20q40 0 66 -22q27 -23 27 -67
q0 -20 -6 -36q-6 -17 -19 -34h-51q29 32 29 68q0 26 -12 38t-33 12q-38 0 -53 -42l-42 13q10 31 36 51z" />
    <glyph glyph-name="uni1EE0" unicode="&#x1ee0;" horiz-adv-x="765" 
d="M699 591q-17 -31 -47 -55q59 -88 59 -205q0 -98 -42 -176t-117 -123t-172 -45t-172 45t-117 123t-42 176t42 176t117 123t173 45q78 0 141 -28q64 -29 108 -81q17 14 31 36q14 21 15 40q-6 -2 -12 -2q-17 0 -27 12q-11 13 -11 29q0 17 12 31q12 13 30 13q21 0 36 -17
t15 -45q0 -37 -18 -70zM507 93q56 35 86 96t30 138q0 78 -30 140q-30 61 -86 96t-129 35t-129 -35q-55 -34 -85 -96t-30 -139t30 -138t86 -96t129 -35t129 35zM335 798q-9 9 -24 9q-21 0 -34 -21q-13 -20 -13 -64h-45q0 59 26 97q25 37 72 37q27 0 41 -13q15 -14 33 -39
q15 -21 24 -30t24 -9q21 0 35 21q14 22 14 65h45q0 -60 -25 -97t-72 -37q-26 0 -42 14q-15 13 -33 39l-12 17t-10 12z" />
    <glyph glyph-name="uni1EE1" unicode="&#x1ee1;" 
d="M511 462q-17 -32 -42 -53q27 -35 42 -78q15 -44 15 -93q0 -71 -30 -129q-30 -59 -84 -93q-53 -34 -126 -34t-126 34q-54 34 -84 93q-30 58 -30 129q0 70 30 129t84 92t126 33q94 0 157 -57q17 15 29 35q11 18 13 38q-3 -1 -11 -1q-16 0 -28 12t-12 30q0 16 12 30
q12 13 30 13q21 0 36 -17t15 -45q0 -35 -16 -66v-2zM371 76q35 25 55 69q19 42 19 93t-19 92q-20 43 -55 68q-37 26 -86 26q-51 0 -86 -25t-55 -68q-19 -41 -19 -92t19 -93q19 -43 56 -69q35 -25 86 -25q49 0 86 26zM242 631q-9 9 -24 9q-21 0 -34 -21q-13 -20 -13 -64h-45
q0 59 26 97q25 37 72 37q27 0 41 -13q15 -14 33 -39q15 -21 24 -30t24 -9q21 0 35 21q14 22 14 65h45q0 -60 -25 -97t-72 -37q-26 0 -42 14q-15 13 -33 39l-12 17t-10 12z" />
    <glyph glyph-name="uni1EE2" unicode="&#x1ee2;" horiz-adv-x="765" 
d="M699 591q-17 -31 -47 -55q59 -88 59 -205q0 -98 -42 -176t-117 -123t-172 -45t-172 45t-117 123t-42 176t42 176t117 123t173 45q78 0 141 -28q64 -29 108 -81q17 14 31 36q14 21 15 40q-6 -2 -12 -2q-17 0 -27 12q-11 13 -11 29q0 17 12 31q12 13 30 13q21 0 36 -17
t15 -45q0 -37 -18 -70zM507 93q56 35 86 96t30 138q0 78 -30 140q-30 61 -86 96t-129 35t-129 -35q-55 -34 -85 -96t-30 -139t30 -138t86 -96t129 -35t129 35zM343 -90q14 14 33 14t33 -14t14 -33q0 -20 -13 -33t-33 -13q-19 0 -33 14t-14 33t14 33z" />
    <glyph glyph-name="uni1EE3" unicode="&#x1ee3;" 
d="M511 462q-17 -32 -42 -53q27 -35 42 -78q15 -44 15 -93q0 -71 -30 -129q-30 -59 -84 -93q-53 -34 -126 -34t-126 34q-54 34 -84 93q-30 58 -30 129q0 70 30 129t84 92t126 33q94 0 157 -57q17 15 29 35q11 18 13 38q-3 -1 -11 -1q-16 0 -28 12t-12 30q0 16 12 30
q12 13 30 13q21 0 36 -17t15 -45q0 -35 -16 -66v-2zM371 76q35 25 55 69q19 42 19 93t-19 92q-20 43 -55 68q-37 26 -86 26q-51 0 -86 -25t-55 -68q-19 -41 -19 -92t19 -93q19 -43 56 -69q35 -25 86 -25q49 0 86 26zM251 -91q14 14 33 14t33 -14t14 -33q0 -20 -13 -33
t-33 -13q-19 0 -33 14t-14 33t14 33z" />
    <glyph glyph-name="uni1EE4" unicode="&#x1ee4;" horiz-adv-x="700" 
d="M157 667v-406q0 -94 49 -146q50 -53 141 -53t141 53q49 52 49 146v406h83v-407q0 -127 -69 -199t-202 -72t-202 72t-69 198v408h79zM312 -86q14 14 33 14t33 -14t14 -33q0 -20 -13 -33t-33 -13q-19 0 -33 14t-14 33t14 33z" />
    <glyph glyph-name="uni1EE5" unicode="&#x1ee5;" horiz-adv-x="551" 
d="M401 68q-30 -35 -75 -57q-46 -23 -96 -23q-154 0 -154 154v341h75v-318q0 -60 27 -85q26 -25 80 -25q42 0 81 21q40 22 62 52v355h75v-483h-75v68zM241 -86q14 14 33 14t33 -14t14 -33q0 -20 -13 -33t-33 -13q-19 0 -33 14t-14 33t14 33z" />
    <glyph glyph-name="uni1EE6" unicode="&#x1ee6;" horiz-adv-x="700" 
d="M157 667v-406q0 -94 49 -146q50 -53 141 -53t141 53q49 52 49 146v406h83v-407q0 -127 -69 -199t-202 -72t-202 72t-69 198v408h79zM278 862q26 20 60 20q40 0 66 -22q27 -23 27 -67q0 -20 -6 -36q-6 -17 -19 -34h-51q29 32 29 68q0 26 -12 38t-33 12q-38 0 -53 -42
l-42 13q10 31 36 51z" />
    <glyph glyph-name="uni1EE7" unicode="&#x1ee7;" horiz-adv-x="551" 
d="M401 68q-30 -35 -75 -57q-46 -23 -96 -23q-154 0 -154 154v341h75v-318q0 -60 27 -85q26 -25 80 -25q42 0 81 21q40 22 62 52v355h75v-483h-75v68zM207 695q26 20 60 20q40 0 66 -22q27 -23 27 -67q0 -20 -6 -36q-6 -17 -19 -34h-51q29 32 29 68q0 26 -12 38t-33 12
q-38 0 -53 -42l-42 13q10 31 36 51z" />
    <glyph glyph-name="uni1EE8" unicode="&#x1ee8;" horiz-adv-x="700" 
d="M700 637q-32 -42 -84 -63v-315q0 -127 -69 -199t-202 -72t-202 72t-69 198v408h83v-406q0 -94 49 -146q50 -53 141 -53t141 53q49 52 49 146v406h83v-53q29 15 50 41q22 26 23 53l-11 -1q-17 0 -27 12q-11 13 -11 30q0 18 12 30t30 12q21 0 36 -17t15 -45q0 -50 -31 -91
h-6zM460 866h78l-169 -144h-57z" />
    <glyph glyph-name="uni1EE9" unicode="&#x1ee9;" horiz-adv-x="551" 
d="M544 452q-25 -38 -69 -61v-393h-75v68q-30 -35 -75 -57q-46 -23 -96 -23q-154 0 -154 154v341h75v-318q0 -60 27 -85q26 -25 80 -25q42 0 81 21q40 22 62 52v355h75v-47q22 15 36 37t16 43l-11 -1q-16 0 -28 12t-12 30q0 16 12 30q12 13 30 13q21 0 36 -17t15 -45
q0 -44 -25 -82v-2zM391 697h78l-169 -144h-57z" />
    <glyph glyph-name="uni1EEA" unicode="&#x1eea;" horiz-adv-x="700" 
d="M700 637q-32 -42 -84 -63v-315q0 -127 -69 -199t-202 -72t-202 72t-69 198v408h83v-406q0 -94 49 -146q50 -53 141 -53t141 53q49 52 49 146v406h83v-53q29 15 50 41q22 26 23 53l-11 -1q-17 0 -27 12q-11 13 -11 30q0 18 12 30t30 12q21 0 36 -17t15 -45q0 -50 -31 -91
h-6zM223 866l148 -144h-57l-169 144h78z" />
    <glyph glyph-name="uni1EEB" unicode="&#x1eeb;" horiz-adv-x="551" 
d="M544 452q-25 -38 -69 -61v-393h-75v68q-30 -35 -75 -57q-46 -23 -96 -23q-154 0 -154 154v341h75v-318q0 -60 27 -85q26 -25 80 -25q42 0 81 21q40 22 62 52v355h75v-47q22 15 36 37t16 43l-11 -1q-16 0 -28 12t-12 30q0 16 12 30q12 13 30 13q21 0 36 -17t15 -45
q0 -44 -25 -82v-2zM154 697l148 -144h-57l-169 144h78z" />
    <glyph glyph-name="uni1EEC" unicode="&#x1eec;" horiz-adv-x="700" 
d="M700 637q-32 -42 -84 -63v-315q0 -127 -69 -199t-202 -72t-202 72t-69 198v408h83v-406q0 -94 49 -146q50 -53 141 -53t141 53q49 52 49 146v406h83v-53q29 15 50 41q22 26 23 53l-11 -1q-17 0 -27 12q-11 13 -11 30q0 18 12 30t30 12q21 0 36 -17t15 -45q0 -50 -31 -91
h-6zM275 862q26 20 60 20q40 0 66 -22q27 -23 27 -67q0 -20 -6 -36q-6 -17 -19 -34h-51q29 32 29 68q0 26 -12 38t-33 12q-38 0 -53 -42l-42 13q10 31 36 51z" />
    </font>
</defs>
</svg>
